<svg width="88" height="88" viewBox="0 0 88 88" fill="none" xmlns="http://www.w3.org/2000/svg">
<rect width="88" height="88" rx="6" fill="#F1E8FB"/>
<path d="M32.8232 30.1191L23.9023 56H18.5088L29.7471 26.1406H33.1924L32.8232 30.1191ZM40.2881 56L31.3467 30.1191L30.957 26.1406H34.4229L45.7021 56H40.2881ZM39.8574 44.9258V49.0068H23.6152V44.9258H39.8574ZM62.7646 33.8105H67.2559V55.3848C67.2559 57.3809 66.832 59.0762 65.9844 60.4707C65.1367 61.8652 63.9541 62.9248 62.4365 63.6494C60.9189 64.3877 59.1621 64.7568 57.166 64.7568C56.3184 64.7568 55.375 64.6338 54.3359 64.3877C53.3105 64.1416 52.3125 63.7451 51.3418 63.1982C50.3848 62.665 49.585 61.9609 48.9424 61.0859L51.2598 58.1738C52.0527 59.1172 52.9277 59.8076 53.8848 60.2451C54.8418 60.6826 55.8467 60.9014 56.8994 60.9014C58.0342 60.9014 58.998 60.6895 59.791 60.2656C60.5977 59.8555 61.2197 59.2471 61.6572 58.4404C62.0947 57.6338 62.3135 56.6494 62.3135 55.4873V38.835L62.7646 33.8105ZM47.6914 45.1514V44.7207C47.6914 43.0391 47.8965 41.5078 48.3066 40.127C48.7168 38.7324 49.3047 37.5361 50.0703 36.5381C50.8359 35.5264 51.7656 34.7539 52.8594 34.2207C53.9531 33.6738 55.1904 33.4004 56.5713 33.4004C58.0068 33.4004 59.2305 33.6602 60.2422 34.1797C61.2676 34.6992 62.1221 35.4443 62.8057 36.415C63.4893 37.3721 64.0225 38.5205 64.4053 39.8604C64.8018 41.1865 65.0957 42.6631 65.2871 44.29V45.6641C65.1094 47.25 64.8086 48.6992 64.3848 50.0117C63.9609 51.3242 63.4004 52.459 62.7031 53.416C62.0059 54.373 61.1445 55.1113 60.1191 55.6309C59.1074 56.1504 57.9111 56.4102 56.5303 56.4102C55.1768 56.4102 53.9531 56.1299 52.8594 55.5693C51.7793 55.0088 50.8496 54.2227 50.0703 53.2109C49.3047 52.1992 48.7168 51.0098 48.3066 49.6426C47.8965 48.2617 47.6914 46.7646 47.6914 45.1514ZM52.6338 44.7207V45.1514C52.6338 46.1631 52.7295 47.1064 52.9209 47.9814C53.126 48.8564 53.4336 49.6289 53.8438 50.2988C54.2676 50.9551 54.8008 51.4746 55.4434 51.8574C56.0996 52.2266 56.8721 52.4111 57.7607 52.4111C58.9229 52.4111 59.873 52.165 60.6113 51.6729C61.3633 51.1807 61.9375 50.5176 62.334 49.6836C62.7441 48.8359 63.0312 47.8926 63.1953 46.8535V43.1416C63.1133 42.335 62.9424 41.583 62.6826 40.8857C62.4365 40.1885 62.1016 39.5801 61.6777 39.0605C61.2539 38.5273 60.7207 38.1172 60.0781 37.8301C59.4355 37.5293 58.6768 37.3789 57.8018 37.3789C56.9131 37.3789 56.1406 37.5703 55.4844 37.9531C54.8281 38.3359 54.2881 38.8623 53.8643 39.5322C53.4541 40.2021 53.1465 40.9814 52.9414 41.8701C52.7363 42.7588 52.6338 43.709 52.6338 44.7207Z" fill="#5A3EE3"/>
</svg>
