<svg width="88" height="88" viewBox="0 0 88 88" fill="none" xmlns="http://www.w3.org/2000/svg">
<rect width="88" height="88" rx="6" fill="#FBE8EB"/>
<path d="M37.3145 30.1191L28.3936 56H23L34.2383 26.1406H37.6836L37.3145 30.1191ZM44.7793 56L35.8379 30.1191L35.4482 26.1406H38.9141L50.1934 56H44.7793ZM44.3486 44.9258V49.0068H28.1064V44.9258H44.3486ZM58.0068 38.0352V56H53.0645V33.8105H57.7812L58.0068 38.0352ZM64.7949 33.667L64.7539 38.2607C64.4531 38.2061 64.125 38.165 63.7695 38.1377C63.4277 38.1104 63.0859 38.0967 62.7441 38.0967C61.8965 38.0967 61.1514 38.2197 60.5088 38.4658C59.8662 38.6982 59.3262 39.04 58.8887 39.4912C58.4648 39.9287 58.1367 40.4619 57.9043 41.0908C57.6719 41.7197 57.5352 42.4238 57.4941 43.2031L56.3662 43.2852C56.3662 41.8906 56.5029 40.5986 56.7764 39.4092C57.0498 38.2197 57.46 37.1738 58.0068 36.2715C58.5674 35.3691 59.2646 34.665 60.0986 34.1592C60.9463 33.6533 61.9238 33.4004 63.0312 33.4004C63.332 33.4004 63.6533 33.4277 63.9951 33.4824C64.3506 33.5371 64.6172 33.5986 64.7949 33.667Z" fill="#BC335F"/>
</svg>
