<svg width="88" height="88" viewBox="0 0 88 88" fill="none" xmlns="http://www.w3.org/2000/svg">
<rect width="88" height="88" rx="6" fill="#FDF7E2"/>
<path d="M33.9307 30.1191L25.0098 56H19.6162L30.8545 26.1406H34.2998L33.9307 30.1191ZM41.3955 56L32.4541 30.1191L32.0645 26.1406H35.5303L46.8096 56H41.3955ZM40.9648 44.9258V49.0068H24.7227V44.9258H40.9648ZM62.1084 49.9912C62.1084 49.499 61.9854 49.0547 61.7393 48.6582C61.4932 48.248 61.0215 47.8789 60.3242 47.5508C59.6406 47.2227 58.6289 46.9219 57.2891 46.6484C56.1133 46.3887 55.0332 46.0811 54.0488 45.7256C53.0781 45.3564 52.2441 44.9121 51.5469 44.3926C50.8496 43.873 50.3096 43.2578 49.9268 42.5469C49.5439 41.8359 49.3525 41.0156 49.3525 40.0859C49.3525 39.1836 49.5508 38.3291 49.9473 37.5225C50.3438 36.7158 50.9111 36.0049 51.6494 35.3896C52.3877 34.7744 53.2832 34.2891 54.3359 33.9336C55.4023 33.5781 56.5918 33.4004 57.9043 33.4004C59.7637 33.4004 61.3564 33.7148 62.6826 34.3438C64.0225 34.959 65.0479 35.7998 65.7588 36.8662C66.4697 37.9189 66.8252 39.1084 66.8252 40.4346H61.8828C61.8828 39.8467 61.7324 39.2998 61.4316 38.7939C61.1445 38.2744 60.707 37.8574 60.1191 37.543C59.5312 37.2148 58.793 37.0508 57.9043 37.0508C57.0566 37.0508 56.3525 37.1875 55.792 37.4609C55.2451 37.7207 54.835 38.0625 54.5615 38.4863C54.3018 38.9102 54.1719 39.375 54.1719 39.8809C54.1719 40.25 54.2402 40.585 54.377 40.8857C54.5273 41.1729 54.7734 41.4395 55.1152 41.6855C55.457 41.918 55.9219 42.1367 56.5098 42.3418C57.1113 42.5469 57.8633 42.7451 58.7656 42.9365C60.4609 43.292 61.917 43.75 63.1338 44.3105C64.3643 44.8574 65.3076 45.5684 65.9639 46.4434C66.6201 47.3047 66.9482 48.3984 66.9482 49.7246C66.9482 50.709 66.7363 51.6113 66.3125 52.4316C65.9023 53.2383 65.3008 53.9424 64.5078 54.5439C63.7148 55.1318 62.7646 55.5898 61.6572 55.918C60.5635 56.2461 59.333 56.4102 57.9658 56.4102C55.9561 56.4102 54.2539 56.0547 52.8594 55.3438C51.4648 54.6191 50.4053 53.6963 49.6807 52.5752C48.9697 51.4404 48.6143 50.2646 48.6143 49.0479H53.3926C53.4473 49.9639 53.7002 50.6953 54.1514 51.2422C54.6162 51.7754 55.1904 52.165 55.874 52.4111C56.5713 52.6436 57.2891 52.7598 58.0273 52.7598C58.916 52.7598 59.6611 52.6436 60.2627 52.4111C60.8643 52.165 61.3223 51.8369 61.6367 51.4268C61.9512 51.0029 62.1084 50.5244 62.1084 49.9912Z" fill="#8C591D"/>
</svg>
