<svg width="88" height="88" viewBox="0 0 88 88" fill="none" xmlns="http://www.w3.org/2000/svg">
<rect width="88" height="88" rx="6" fill="#DDF8E9"/>
<path d="M37.9297 30.1191L29.0088 56H23.6152L34.8535 26.1406H38.2988L37.9297 30.1191ZM45.3945 56L36.4531 30.1191L36.0635 26.1406H39.5293L50.8086 56H45.3945ZM44.9639 44.9258V49.0068H28.7217V44.9258H44.9639ZM63.4619 33.8105V37.4199H50.9521V33.8105H63.4619ZM54.5615 28.376H59.5039V49.8682C59.5039 50.5518 59.5996 51.0781 59.791 51.4473C59.9961 51.8027 60.2764 52.042 60.6318 52.165C60.9873 52.2881 61.4043 52.3496 61.8828 52.3496C62.2246 52.3496 62.5527 52.3291 62.8672 52.2881C63.1816 52.2471 63.4346 52.2061 63.626 52.165L63.6465 55.9385C63.2363 56.0615 62.7578 56.1709 62.2109 56.2666C61.6777 56.3623 61.0625 56.4102 60.3652 56.4102C59.2305 56.4102 58.2256 56.2119 57.3506 55.8154C56.4756 55.4053 55.792 54.7422 55.2998 53.8262C54.8076 52.9102 54.5615 51.6934 54.5615 50.1758V28.376Z" fill="#0E2B06"/>
</svg>
