<svg width="88" height="88" viewBox="0 0 88 88" fill="none" xmlns="http://www.w3.org/2000/svg">
<rect width="88" height="88" rx="6" fill="#F1E8FB"/>
<path d="M33.1719 30.1191L24.251 56H18.8574L30.0957 26.1406H33.541L33.1719 30.1191ZM40.6367 56L31.6953 30.1191L31.3057 26.1406H34.7715L46.0508 56H40.6367ZM40.2061 44.9258V49.0068H23.9639V44.9258H40.2061ZM62.0059 50.7705V33.8105H66.9688V56H62.293L62.0059 50.7705ZM62.7031 46.1562L64.3643 46.1152C64.3643 47.6055 64.2002 48.9795 63.8721 50.2373C63.5439 51.4814 63.0381 52.5684 62.3545 53.498C61.6709 54.4141 60.7959 55.1318 59.7295 55.6514C58.6631 56.1572 57.3848 56.4102 55.8945 56.4102C54.8145 56.4102 53.8232 56.2529 52.9209 55.9385C52.0186 55.624 51.2393 55.1387 50.583 54.4824C49.9404 53.8262 49.4414 52.9717 49.0859 51.9189C48.7305 50.8662 48.5527 49.6084 48.5527 48.1455V33.8105H53.4951V48.1865C53.4951 48.9932 53.5908 49.6699 53.7822 50.2168C53.9736 50.75 54.2334 51.1807 54.5615 51.5088C54.8896 51.8369 55.2725 52.0693 55.71 52.2061C56.1475 52.3428 56.6123 52.4111 57.1045 52.4111C58.5127 52.4111 59.6201 52.1377 60.4268 51.5908C61.2471 51.0303 61.8281 50.2783 62.1699 49.335C62.5254 48.3916 62.7031 47.332 62.7031 46.1562Z" fill="#5A3EE3"/>
</svg>
