<svg width="88" height="88" viewBox="0 0 88 88" fill="none" xmlns="http://www.w3.org/2000/svg">
<rect width="88" height="88" rx="6" fill="#FDF7E2"/>
<path d="M44.9639 42.5059H37.3555L37.3145 38.7529H43.959C45.0801 38.7529 46.0303 38.5889 46.8096 38.2607C47.6025 37.9189 48.2041 37.4336 48.6143 36.8047C49.0244 36.1621 49.2295 35.3896 49.2295 34.4873C49.2295 33.4893 49.0381 32.6758 48.6553 32.0469C48.2725 31.418 47.6846 30.96 46.8916 30.6729C46.1123 30.3857 45.1143 30.2422 43.8975 30.2422H38.9141V56H33.7666V26.1406H43.8975C45.5381 26.1406 47.001 26.2979 48.2861 26.6123C49.585 26.9268 50.6855 27.4189 51.5879 28.0889C52.5039 28.7451 53.1943 29.5791 53.6592 30.5908C54.1377 31.6025 54.377 32.8057 54.377 34.2002C54.377 35.4307 54.083 36.5586 53.4951 37.584C52.9072 38.5957 52.0391 39.4229 50.8906 40.0654C49.7422 40.708 48.3135 41.0908 46.6045 41.2139L44.9639 42.5059ZM44.7383 56H35.7354L38.0527 51.9189H44.7383C45.9004 51.9189 46.8711 51.7275 47.6504 51.3447C48.4297 50.9482 49.0107 50.4082 49.3936 49.7246C49.79 49.0273 49.9883 48.2139 49.9883 47.2842C49.9883 46.3135 49.8174 45.4727 49.4756 44.7617C49.1338 44.0371 48.5938 43.4834 47.8555 43.1006C47.1172 42.7041 46.1533 42.5059 44.9639 42.5059H39.1807L39.2217 38.7529H46.748L47.917 40.168C49.5576 40.2227 50.9043 40.585 51.957 41.2549C53.0234 41.9248 53.8164 42.793 54.3359 43.8594C54.8555 44.9258 55.1152 46.0742 55.1152 47.3047C55.1152 49.2051 54.6982 50.7979 53.8643 52.083C53.0439 53.3682 51.8613 54.3457 50.3164 55.0156C48.7715 55.6719 46.9121 56 44.7383 56Z" fill="#8C591D"/>
</svg>
