<svg width="88" height="88" viewBox="0 0 88 88" fill="none" xmlns="http://www.w3.org/2000/svg">
<rect width="88" height="88" rx="6" fill="#FBE8E7"/>
<path d="M33.6436 42.5059H26.0352L25.9941 38.7529H32.6387C33.7598 38.7529 34.71 38.5889 35.4893 38.2607C36.2822 37.9189 36.8838 37.4336 37.2939 36.8047C37.7041 36.1621 37.9092 35.3896 37.9092 34.4873C37.9092 33.4893 37.7178 32.6758 37.335 32.0469C36.9521 31.418 36.3643 30.96 35.5713 30.6729C34.792 30.3857 33.7939 30.2422 32.5771 30.2422H27.5938V56H22.4463V26.1406H32.5771C34.2178 26.1406 35.6807 26.2979 36.9658 26.6123C38.2646 26.9268 39.3652 27.4189 40.2676 28.0889C41.1836 28.7451 41.874 29.5791 42.3389 30.5908C42.8174 31.6025 43.0566 32.8057 43.0566 34.2002C43.0566 35.4307 42.7627 36.5586 42.1748 37.584C41.5869 38.5957 40.7188 39.4229 39.5703 40.0654C38.4219 40.708 36.9932 41.0908 35.2842 41.2139L33.6436 42.5059ZM33.418 56H24.415L26.7324 51.9189H33.418C34.5801 51.9189 35.5508 51.7275 36.3301 51.3447C37.1094 50.9482 37.6904 50.4082 38.0732 49.7246C38.4697 49.0273 38.668 48.2139 38.668 47.2842C38.668 46.3135 38.4971 45.4727 38.1553 44.7617C37.8135 44.0371 37.2734 43.4834 36.5352 43.1006C35.7969 42.7041 34.833 42.5059 33.6436 42.5059H27.8604L27.9014 38.7529H35.4277L36.5967 40.168C38.2373 40.2227 39.584 40.585 40.6367 41.2549C41.7031 41.9248 42.4961 42.793 43.0156 43.8594C43.5352 44.9258 43.7949 46.0742 43.7949 47.3047C43.7949 49.2051 43.3779 50.7979 42.5439 52.083C41.7236 53.3682 40.541 54.3457 38.9961 55.0156C37.4512 55.6719 35.5918 56 33.418 56ZM61.001 51.5498V40.9678C61.001 40.1748 60.8574 39.4912 60.5703 38.917C60.2832 38.3428 59.8457 37.8984 59.2578 37.584C58.6836 37.2695 57.959 37.1123 57.084 37.1123C56.2773 37.1123 55.5801 37.249 54.9922 37.5225C54.4043 37.7959 53.9463 38.165 53.6182 38.6299C53.29 39.0947 53.126 39.6211 53.126 40.209H48.2041C48.2041 39.334 48.416 38.4863 48.8398 37.666C49.2637 36.8457 49.8789 36.1143 50.6855 35.4717C51.4922 34.8291 52.4561 34.3232 53.5771 33.9541C54.6982 33.585 55.9561 33.4004 57.3506 33.4004C59.0186 33.4004 60.4951 33.6807 61.7803 34.2412C63.0791 34.8018 64.0977 35.6494 64.8359 36.7842C65.5879 37.9053 65.9639 39.3135 65.9639 41.0088V50.873C65.9639 51.8848 66.0322 52.7939 66.1689 53.6006C66.3193 54.3936 66.5312 55.084 66.8047 55.6719V56H61.7393C61.5068 55.4668 61.3223 54.79 61.1855 53.9697C61.0625 53.1357 61.001 52.3291 61.001 51.5498ZM61.7188 42.5059L61.7598 45.5615H58.2119C57.2959 45.5615 56.4893 45.6504 55.792 45.8281C55.0947 45.9922 54.5137 46.2383 54.0488 46.5664C53.584 46.8945 53.2354 47.291 53.0029 47.7559C52.7705 48.2207 52.6543 48.7471 52.6543 49.335C52.6543 49.9229 52.791 50.4629 53.0645 50.9551C53.3379 51.4336 53.7344 51.8096 54.2539 52.083C54.7871 52.3564 55.4297 52.4932 56.1816 52.4932C57.1934 52.4932 58.0752 52.2881 58.8271 51.8779C59.5928 51.4541 60.1943 50.9414 60.6318 50.3398C61.0693 49.7246 61.3018 49.1436 61.3291 48.5967L62.9287 50.791C62.7646 51.3516 62.4844 51.9531 62.0879 52.5957C61.6914 53.2383 61.1719 53.8535 60.5293 54.4414C59.9004 55.0156 59.1416 55.4873 58.2529 55.8564C57.3779 56.2256 56.3662 56.4102 55.2178 56.4102C53.7686 56.4102 52.4766 56.123 51.3418 55.5488C50.207 54.9609 49.3184 54.1748 48.6758 53.1904C48.0332 52.1924 47.7119 51.0645 47.7119 49.8066C47.7119 48.6309 47.9307 47.5918 48.3682 46.6895C48.8193 45.7734 49.4756 45.0078 50.3369 44.3926C51.2119 43.7773 52.2783 43.3125 53.5361 42.998C54.7939 42.6699 56.2295 42.5059 57.8428 42.5059H61.7188Z" fill="#C4292E"/>
</svg>
