<svg width="88" height="88" viewBox="0 0 88 88" fill="none" xmlns="http://www.w3.org/2000/svg">
<rect width="88" height="88" rx="6" fill="#FBE8E7"/>
<path d="M33.7051 42.5059H26.0967L26.0557 38.7529H32.7002C33.8213 38.7529 34.7715 38.5889 35.5508 38.2607C36.3438 37.9189 36.9453 37.4336 37.3555 36.8047C37.7656 36.1621 37.9707 35.3896 37.9707 34.4873C37.9707 33.4893 37.7793 32.6758 37.3965 32.0469C37.0137 31.418 36.4258 30.96 35.6328 30.6729C34.8535 30.3857 33.8555 30.2422 32.6387 30.2422H27.6553V56H22.5078V26.1406H32.6387C34.2793 26.1406 35.7422 26.2979 37.0273 26.6123C38.3262 26.9268 39.4268 27.4189 40.3291 28.0889C41.2451 28.7451 41.9355 29.5791 42.4004 30.5908C42.8789 31.6025 43.1182 32.8057 43.1182 34.2002C43.1182 35.4307 42.8242 36.5586 42.2363 37.584C41.6484 38.5957 40.7803 39.4229 39.6318 40.0654C38.4834 40.708 37.0547 41.0908 35.3457 41.2139L33.7051 42.5059ZM33.4795 56H24.4766L26.7939 51.9189H33.4795C34.6416 51.9189 35.6123 51.7275 36.3916 51.3447C37.1709 50.9482 37.752 50.4082 38.1348 49.7246C38.5312 49.0273 38.7295 48.2139 38.7295 47.2842C38.7295 46.3135 38.5586 45.4727 38.2168 44.7617C37.875 44.0371 37.335 43.4834 36.5967 43.1006C35.8584 42.7041 34.8945 42.5059 33.7051 42.5059H27.9219L27.9629 38.7529H35.4893L36.6582 40.168C38.2988 40.2227 39.6455 40.585 40.6982 41.2549C41.7646 41.9248 42.5576 42.793 43.0771 43.8594C43.5967 44.9258 43.8564 46.0742 43.8564 47.3047C43.8564 49.2051 43.4395 50.7979 42.6055 52.083C41.7852 53.3682 40.6025 54.3457 39.0576 55.0156C37.5127 55.6719 35.6533 56 33.4795 56ZM58.335 56.4102C56.6943 56.4102 55.2109 56.1436 53.8848 55.6104C52.5723 55.0635 51.4512 54.3047 50.5215 53.334C49.6055 52.3633 48.9014 51.2217 48.4092 49.9092C47.917 48.5967 47.6709 47.1816 47.6709 45.6641V44.8438C47.6709 43.1074 47.9238 41.5352 48.4297 40.127C48.9355 38.7188 49.6396 37.5156 50.542 36.5176C51.4443 35.5059 52.5107 34.7334 53.7412 34.2002C54.9717 33.667 56.3047 33.4004 57.7402 33.4004C59.3262 33.4004 60.7139 33.667 61.9033 34.2002C63.0928 34.7334 64.0771 35.4854 64.8564 36.4561C65.6494 37.4131 66.2373 38.5547 66.6201 39.8809C67.0166 41.207 67.2148 42.6699 67.2148 44.2695V46.3818H50.0703V42.834H62.334V42.4443C62.3066 41.5557 62.1289 40.7217 61.8008 39.9424C61.4863 39.1631 61.001 38.5342 60.3447 38.0557C59.6885 37.5771 58.8135 37.3379 57.7197 37.3379C56.8994 37.3379 56.168 37.5156 55.5254 37.8711C54.8965 38.2129 54.3701 38.7119 53.9463 39.3682C53.5225 40.0244 53.1943 40.8174 52.9619 41.7471C52.7432 42.6631 52.6338 43.6953 52.6338 44.8438V45.6641C52.6338 46.6348 52.7637 47.5371 53.0234 48.3711C53.2969 49.1914 53.6934 49.9092 54.2129 50.5244C54.7324 51.1396 55.3613 51.625 56.0996 51.9805C56.8379 52.3223 57.6787 52.4932 58.6221 52.4932C59.8115 52.4932 60.8711 52.2539 61.8008 51.7754C62.7305 51.2969 63.5371 50.6201 64.2207 49.7451L66.8252 52.2676C66.3467 52.9648 65.7246 53.6348 64.959 54.2773C64.1934 54.9062 63.2568 55.4189 62.1494 55.8154C61.0557 56.2119 59.7842 56.4102 58.335 56.4102Z" fill="#C4292E"/>
</svg>
