<svg width="88" height="88" viewBox="0 0 88 88" fill="none" xmlns="http://www.w3.org/2000/svg">
<rect width="88" height="88" rx="6" fill="#F1E8FB"/>
<path d="M33.2949 42.5059H25.6865L25.6455 38.7529H32.29C33.4111 38.7529 34.3613 38.5889 35.1406 38.2607C35.9336 37.9189 36.5352 37.4336 36.9453 36.8047C37.3555 36.1621 37.5605 35.3896 37.5605 34.4873C37.5605 33.4893 37.3691 32.6758 36.9863 32.0469C36.6035 31.418 36.0156 30.96 35.2227 30.6729C34.4434 30.3857 33.4453 30.2422 32.2285 30.2422H27.2451V56H22.0977V26.1406H32.2285C33.8691 26.1406 35.332 26.2979 36.6172 26.6123C37.916 26.9268 39.0166 27.4189 39.9189 28.0889C40.835 28.7451 41.5254 29.5791 41.9902 30.5908C42.4688 31.6025 42.708 32.8057 42.708 34.2002C42.708 35.4307 42.4141 36.5586 41.8262 37.584C41.2383 38.5957 40.3701 39.4229 39.2217 40.0654C38.0732 40.708 36.6445 41.0908 34.9355 41.2139L33.2949 42.5059ZM33.0693 56H24.0664L26.3838 51.9189H33.0693C34.2314 51.9189 35.2021 51.7275 35.9814 51.3447C36.7607 50.9482 37.3418 50.4082 37.7246 49.7246C38.1211 49.0273 38.3193 48.2139 38.3193 47.2842C38.3193 46.3135 38.1484 45.4727 37.8066 44.7617C37.4648 44.0371 36.9248 43.4834 36.1865 43.1006C35.4482 42.7041 34.4844 42.5059 33.2949 42.5059H27.5117L27.5527 38.7529H35.0791L36.248 40.168C37.8887 40.2227 39.2354 40.585 40.2881 41.2549C41.3545 41.9248 42.1475 42.793 42.667 43.8594C43.1865 44.9258 43.4463 46.0742 43.4463 47.3047C43.4463 49.2051 43.0293 50.7979 42.1953 52.083C41.375 53.3682 40.1924 54.3457 38.6475 55.0156C37.1025 55.6719 35.2432 56 33.0693 56ZM53.0234 24.5V56H48.1016V24.5H53.0234ZM52.1621 44.085L50.5625 44.0645C50.5762 42.5332 50.7881 41.1182 51.1982 39.8193C51.6221 38.5205 52.21 37.3926 52.9619 36.4355C53.7275 35.4648 54.6436 34.7197 55.71 34.2002C56.7764 33.667 57.959 33.4004 59.2578 33.4004C60.3516 33.4004 61.3359 33.5508 62.2109 33.8516C63.0996 34.1523 63.8652 34.6377 64.5078 35.3076C65.1504 35.9639 65.6357 36.8252 65.9639 37.8916C66.3057 38.9443 66.4766 40.2295 66.4766 41.7471V56H61.5137V41.7061C61.5137 40.6396 61.3564 39.792 61.042 39.1631C60.7412 38.5342 60.2969 38.083 59.709 37.8096C59.1211 37.5225 58.4033 37.3789 57.5557 37.3789C56.667 37.3789 55.8809 37.5566 55.1973 37.9121C54.5273 38.2676 53.9668 38.7529 53.5156 39.3682C53.0645 39.9834 52.7227 40.6943 52.4902 41.501C52.2715 42.3076 52.1621 43.1689 52.1621 44.085Z" fill="#5A3EE3"/>
</svg>
