<svg width="88" height="88" viewBox="0 0 88 88" fill="none" xmlns="http://www.w3.org/2000/svg">
<rect width="88" height="88" rx="6" fill="#DDF8E9"/>
<path d="M39.6113 42.5059H32.0029L31.9619 38.7529H38.6064C39.7275 38.7529 40.6777 38.5889 41.457 38.2607C42.25 37.9189 42.8516 37.4336 43.2617 36.8047C43.6719 36.1621 43.877 35.3896 43.877 34.4873C43.877 33.4893 43.6855 32.6758 43.3027 32.0469C42.9199 31.418 42.332 30.96 41.5391 30.6729C40.7598 30.3857 39.7617 30.2422 38.5449 30.2422H33.5615V56H28.4141V26.1406H38.5449C40.1855 26.1406 41.6484 26.2979 42.9336 26.6123C44.2324 26.9268 45.333 27.4189 46.2354 28.0889C47.1514 28.7451 47.8418 29.5791 48.3066 30.5908C48.7852 31.6025 49.0244 32.8057 49.0244 34.2002C49.0244 35.4307 48.7305 36.5586 48.1426 37.584C47.5547 38.5957 46.6865 39.4229 45.5381 40.0654C44.3896 40.708 42.9609 41.0908 41.252 41.2139L39.6113 42.5059ZM39.3857 56H30.3828L32.7002 51.9189H39.3857C40.5479 51.9189 41.5186 51.7275 42.2979 51.3447C43.0771 50.9482 43.6582 50.4082 44.041 49.7246C44.4375 49.0273 44.6357 48.2139 44.6357 47.2842C44.6357 46.3135 44.4648 45.4727 44.123 44.7617C43.7812 44.0371 43.2412 43.4834 42.5029 43.1006C41.7646 42.7041 40.8008 42.5059 39.6113 42.5059H33.8281L33.8691 38.7529H41.3955L42.5645 40.168C44.2051 40.2227 45.5518 40.585 46.6045 41.2549C47.6709 41.9248 48.4639 42.793 48.9834 43.8594C49.5029 44.9258 49.7627 46.0742 49.7627 47.3047C49.7627 49.2051 49.3457 50.7979 48.5117 52.083C47.6914 53.3682 46.5088 54.3457 44.9639 55.0156C43.4189 55.6719 41.5596 56 39.3857 56ZM59.75 33.8105V56H54.7871V33.8105H59.75ZM54.459 27.9863C54.459 27.2344 54.7051 26.6123 55.1973 26.1201C55.7031 25.6143 56.4004 25.3613 57.2891 25.3613C58.1641 25.3613 58.8545 25.6143 59.3604 26.1201C59.8662 26.6123 60.1191 27.2344 60.1191 27.9863C60.1191 28.7246 59.8662 29.3398 59.3604 29.832C58.8545 30.3242 58.1641 30.5703 57.2891 30.5703C56.4004 30.5703 55.7031 30.3242 55.1973 29.832C54.7051 29.3398 54.459 28.7246 54.459 27.9863Z" fill="#0E2B06"/>
</svg>
