<svg width="88" height="88" viewBox="0 0 88 88" fill="none" xmlns="http://www.w3.org/2000/svg">
<rect width="88" height="88" rx="6" fill="#E4EEFD"/>
<path d="M37.54 42.5059H29.9316L29.8906 38.7529H36.5352C37.6562 38.7529 38.6064 38.5889 39.3857 38.2607C40.1787 37.9189 40.7803 37.4336 41.1904 36.8047C41.6006 36.1621 41.8057 35.3896 41.8057 34.4873C41.8057 33.4893 41.6143 32.6758 41.2314 32.0469C40.8486 31.418 40.2607 30.96 39.4678 30.6729C38.6885 30.3857 37.6904 30.2422 36.4736 30.2422H31.4902V56H26.3428V26.1406H36.4736C38.1143 26.1406 39.5771 26.2979 40.8623 26.6123C42.1611 26.9268 43.2617 27.4189 44.1641 28.0889C45.0801 28.7451 45.7705 29.5791 46.2354 30.5908C46.7139 31.6025 46.9531 32.8057 46.9531 34.2002C46.9531 35.4307 46.6592 36.5586 46.0713 37.584C45.4834 38.5957 44.6152 39.4229 43.4668 40.0654C42.3184 40.708 40.8896 41.0908 39.1807 41.2139L37.54 42.5059ZM37.3145 56H28.3115L30.6289 51.9189H37.3145C38.4766 51.9189 39.4473 51.7275 40.2266 51.3447C41.0059 50.9482 41.5869 50.4082 41.9697 49.7246C42.3662 49.0273 42.5645 48.2139 42.5645 47.2842C42.5645 46.3135 42.3936 45.4727 42.0518 44.7617C41.71 44.0371 41.1699 43.4834 40.4316 43.1006C39.6934 42.7041 38.7295 42.5059 37.54 42.5059H31.7568L31.7979 38.7529H39.3242L40.4932 40.168C42.1338 40.2227 43.4805 40.585 44.5332 41.2549C45.5996 41.9248 46.3926 42.793 46.9121 43.8594C47.4316 44.9258 47.6914 46.0742 47.6914 47.3047C47.6914 49.2051 47.2744 50.7979 46.4404 52.083C45.6201 53.3682 44.4375 54.3457 42.8926 55.0156C41.3477 55.6719 39.4883 56 37.3145 56ZM57.3506 38.0352V56H52.4082V33.8105H57.125L57.3506 38.0352ZM64.1387 33.667L64.0977 38.2607C63.7969 38.2061 63.4688 38.165 63.1133 38.1377C62.7715 38.1104 62.4297 38.0967 62.0879 38.0967C61.2402 38.0967 60.4951 38.2197 59.8525 38.4658C59.21 38.6982 58.6699 39.04 58.2324 39.4912C57.8086 39.9287 57.4805 40.4619 57.248 41.0908C57.0156 41.7197 56.8789 42.4238 56.8379 43.2031L55.71 43.2852C55.71 41.8906 55.8467 40.5986 56.1201 39.4092C56.3936 38.2197 56.8037 37.1738 57.3506 36.2715C57.9111 35.3691 58.6084 34.665 59.4424 34.1592C60.29 33.6533 61.2676 33.4004 62.375 33.4004C62.6758 33.4004 62.9971 33.4277 63.3389 33.4824C63.6943 33.5371 63.9609 33.5986 64.1387 33.667Z" fill="#2163E7"/>
</svg>
