<svg width="88" height="88" viewBox="0 0 88 88" fill="none" xmlns="http://www.w3.org/2000/svg">
<rect width="88" height="88" rx="6" fill="#E4EEFD"/>
<path d="M50.9521 46.2793H56.0791C55.915 48.2344 55.3682 49.9775 54.4385 51.5088C53.5088 53.0264 52.2031 54.2227 50.5215 55.0977C48.8398 55.9727 46.7959 56.4102 44.3896 56.4102C42.5439 56.4102 40.8828 56.082 39.4062 55.4258C37.9297 54.7559 36.665 53.8125 35.6123 52.5957C34.5596 51.3652 33.7529 49.8818 33.1924 48.1455C32.6455 46.4092 32.3721 44.4678 32.3721 42.3213V39.8398C32.3721 37.6934 32.6523 35.752 33.2129 34.0156C33.7871 32.2793 34.6074 30.7959 35.6738 29.5654C36.7402 28.3213 38.0186 27.3711 39.5088 26.7148C41.0127 26.0586 42.7012 25.7305 44.5742 25.7305C46.9531 25.7305 48.9629 26.168 50.6035 27.043C52.2441 27.918 53.5156 29.1279 54.418 30.6729C55.334 32.2178 55.8945 33.9883 56.0996 35.9844H50.9727C50.8359 34.6992 50.5352 33.5986 50.0703 32.6826C49.6191 31.7666 48.9492 31.0693 48.0605 30.5908C47.1719 30.0986 46.0098 29.8525 44.5742 29.8525C43.3984 29.8525 42.373 30.0713 41.498 30.5088C40.623 30.9463 39.8916 31.5889 39.3037 32.4365C38.7158 33.2842 38.2715 34.3301 37.9707 35.5742C37.6836 36.8047 37.54 38.2129 37.54 39.7988V42.3213C37.54 43.8252 37.6699 45.1924 37.9297 46.4229C38.2031 47.6396 38.6133 48.6855 39.1602 49.5605C39.7207 50.4355 40.4316 51.1123 41.293 51.5908C42.1543 52.0693 43.1865 52.3086 44.3896 52.3086C45.8525 52.3086 47.0352 52.0762 47.9375 51.6113C48.8535 51.1465 49.5439 50.4697 50.0088 49.5811C50.4873 48.6787 50.8018 47.5781 50.9521 46.2793Z" fill="#2163E7"/>
</svg>
