<svg width="88" height="88" viewBox="0 0 88 88" fill="none" xmlns="http://www.w3.org/2000/svg">
<rect width="88" height="88" rx="6" fill="#FBE8E7"/>
<path d="M39.6318 46.2793H44.7588C44.5947 48.2344 44.0479 49.9775 43.1182 51.5088C42.1885 53.0264 40.8828 54.2227 39.2012 55.0977C37.5195 55.9727 35.4756 56.4102 33.0693 56.4102C31.2236 56.4102 29.5625 56.082 28.0859 55.4258C26.6094 54.7559 25.3447 53.8125 24.292 52.5957C23.2393 51.3652 22.4326 49.8818 21.8721 48.1455C21.3252 46.4092 21.0518 44.4678 21.0518 42.3213V39.8398C21.0518 37.6934 21.332 35.752 21.8926 34.0156C22.4668 32.2793 23.2871 30.7959 24.3535 29.5654C25.4199 28.3213 26.6982 27.3711 28.1885 26.7148C29.6924 26.0586 31.3809 25.7305 33.2539 25.7305C35.6328 25.7305 37.6426 26.168 39.2832 27.043C40.9238 27.918 42.1953 29.1279 43.0977 30.6729C44.0137 32.2178 44.5742 33.9883 44.7793 35.9844H39.6523C39.5156 34.6992 39.2148 33.5986 38.75 32.6826C38.2988 31.7666 37.6289 31.0693 36.7402 30.5908C35.8516 30.0986 34.6895 29.8525 33.2539 29.8525C32.0781 29.8525 31.0527 30.0713 30.1777 30.5088C29.3027 30.9463 28.5713 31.5889 27.9834 32.4365C27.3955 33.2842 26.9512 34.3301 26.6504 35.5742C26.3633 36.8047 26.2197 38.2129 26.2197 39.7988V42.3213C26.2197 43.8252 26.3496 45.1924 26.6094 46.4229C26.8828 47.6396 27.293 48.6855 27.8398 49.5605C28.4004 50.4355 29.1113 51.1123 29.9727 51.5908C30.834 52.0693 31.8662 52.3086 33.0693 52.3086C34.5322 52.3086 35.7148 52.0762 36.6172 51.6113C37.5332 51.1465 38.2236 50.4697 38.6885 49.5811C39.167 48.6787 39.4814 47.5781 39.6318 46.2793ZM61.4521 51.5498V40.9678C61.4521 40.1748 61.3086 39.4912 61.0215 38.917C60.7344 38.3428 60.2969 37.8984 59.709 37.584C59.1348 37.2695 58.4102 37.1123 57.5352 37.1123C56.7285 37.1123 56.0312 37.249 55.4434 37.5225C54.8555 37.7959 54.3975 38.165 54.0693 38.6299C53.7412 39.0947 53.5771 39.6211 53.5771 40.209H48.6553C48.6553 39.334 48.8672 38.4863 49.291 37.666C49.7148 36.8457 50.3301 36.1143 51.1367 35.4717C51.9434 34.8291 52.9072 34.3232 54.0283 33.9541C55.1494 33.585 56.4072 33.4004 57.8018 33.4004C59.4697 33.4004 60.9463 33.6807 62.2314 34.2412C63.5303 34.8018 64.5488 35.6494 65.2871 36.7842C66.0391 37.9053 66.415 39.3135 66.415 41.0088V50.873C66.415 51.8848 66.4834 52.7939 66.6201 53.6006C66.7705 54.3936 66.9824 55.084 67.2559 55.6719V56H62.1904C61.958 55.4668 61.7734 54.79 61.6367 53.9697C61.5137 53.1357 61.4521 52.3291 61.4521 51.5498ZM62.1699 42.5059L62.2109 45.5615H58.6631C57.7471 45.5615 56.9404 45.6504 56.2432 45.8281C55.5459 45.9922 54.9648 46.2383 54.5 46.5664C54.0352 46.8945 53.6865 47.291 53.4541 47.7559C53.2217 48.2207 53.1055 48.7471 53.1055 49.335C53.1055 49.9229 53.2422 50.4629 53.5156 50.9551C53.7891 51.4336 54.1855 51.8096 54.7051 52.083C55.2383 52.3564 55.8809 52.4932 56.6328 52.4932C57.6445 52.4932 58.5264 52.2881 59.2783 51.8779C60.0439 51.4541 60.6455 50.9414 61.083 50.3398C61.5205 49.7246 61.7529 49.1436 61.7803 48.5967L63.3799 50.791C63.2158 51.3516 62.9355 51.9531 62.5391 52.5957C62.1426 53.2383 61.623 53.8535 60.9805 54.4414C60.3516 55.0156 59.5928 55.4873 58.7041 55.8564C57.8291 56.2256 56.8174 56.4102 55.6689 56.4102C54.2197 56.4102 52.9277 56.123 51.793 55.5488C50.6582 54.9609 49.7695 54.1748 49.127 53.1904C48.4844 52.1924 48.1631 51.0645 48.1631 49.8066C48.1631 48.6309 48.3818 47.5918 48.8193 46.6895C49.2705 45.7734 49.9268 45.0078 50.7881 44.3926C51.6631 43.7773 52.7295 43.3125 53.9873 42.998C55.2451 42.6699 56.6807 42.5059 58.2939 42.5059H62.1699Z" fill="#C4292E"/>
</svg>
