<svg width="88" height="88" viewBox="0 0 88 88" fill="none" xmlns="http://www.w3.org/2000/svg">
<rect width="88" height="88" rx="6" fill="#F1E8FB"/>
<path d="M39.1191 46.2793H44.2461C44.082 48.2344 43.5352 49.9775 42.6055 51.5088C41.6758 53.0264 40.3701 54.2227 38.6885 55.0977C37.0068 55.9727 34.9629 56.4102 32.5566 56.4102C30.7109 56.4102 29.0498 56.082 27.5732 55.4258C26.0967 54.7559 24.832 53.8125 23.7793 52.5957C22.7266 51.3652 21.9199 49.8818 21.3594 48.1455C20.8125 46.4092 20.5391 44.4678 20.5391 42.3213V39.8398C20.5391 37.6934 20.8193 35.752 21.3799 34.0156C21.9541 32.2793 22.7744 30.7959 23.8408 29.5654C24.9072 28.3213 26.1855 27.3711 27.6758 26.7148C29.1797 26.0586 30.8682 25.7305 32.7412 25.7305C35.1201 25.7305 37.1299 26.168 38.7705 27.043C40.4111 27.918 41.6826 29.1279 42.585 30.6729C43.501 32.2178 44.0615 33.9883 44.2666 35.9844H39.1396C39.0029 34.6992 38.7021 33.5986 38.2373 32.6826C37.7861 31.7666 37.1162 31.0693 36.2275 30.5908C35.3389 30.0986 34.1768 29.8525 32.7412 29.8525C31.5654 29.8525 30.54 30.0713 29.665 30.5088C28.79 30.9463 28.0586 31.5889 27.4707 32.4365C26.8828 33.2842 26.4385 34.3301 26.1377 35.5742C25.8506 36.8047 25.707 38.2129 25.707 39.7988V42.3213C25.707 43.8252 25.8369 45.1924 26.0967 46.4229C26.3701 47.6396 26.7803 48.6855 27.3271 49.5605C27.8877 50.4355 28.5986 51.1123 29.46 51.5908C30.3213 52.0693 31.3535 52.3086 32.5566 52.3086C34.0195 52.3086 35.2021 52.0762 36.1045 51.6113C37.0205 51.1465 37.7109 50.4697 38.1758 49.5811C38.6543 48.6787 38.9688 47.5781 39.1191 46.2793ZM61.9648 51.4062V24.5H66.9277V56H62.4365L61.9648 51.4062ZM47.5273 45.1514V44.7207C47.5273 43.0391 47.7256 41.5078 48.1221 40.127C48.5186 38.7324 49.0928 37.5361 49.8447 36.5381C50.5967 35.5264 51.5127 34.7539 52.5928 34.2207C53.6729 33.6738 54.8896 33.4004 56.2432 33.4004C57.583 33.4004 58.7588 33.6602 59.7705 34.1797C60.7822 34.6992 61.6436 35.4443 62.3545 36.415C63.0654 37.3721 63.6328 38.5205 64.0566 39.8604C64.4805 41.1865 64.7812 42.6631 64.959 44.29V45.6641C64.7812 47.25 64.4805 48.6992 64.0566 50.0117C63.6328 51.3242 63.0654 52.459 62.3545 53.416C61.6436 54.373 60.7754 55.1113 59.75 55.6309C58.7383 56.1504 57.5557 56.4102 56.2021 56.4102C54.8623 56.4102 53.6523 56.1299 52.5723 55.5693C51.5059 55.0088 50.5967 54.2227 49.8447 53.2109C49.0928 52.1992 48.5186 51.0098 48.1221 49.6426C47.7256 48.2617 47.5273 46.7646 47.5273 45.1514ZM52.4697 44.7207V45.1514C52.4697 46.1631 52.5586 47.1064 52.7363 47.9814C52.9277 48.8564 53.2217 49.6289 53.6182 50.2988C54.0146 50.9551 54.5273 51.4746 55.1562 51.8574C55.7988 52.2266 56.5645 52.4111 57.4531 52.4111C58.5742 52.4111 59.4971 52.165 60.2217 51.6729C60.9463 51.1807 61.5137 50.5176 61.9238 49.6836C62.3477 48.8359 62.6348 47.8926 62.7852 46.8535V43.1416C62.7031 42.335 62.5322 41.583 62.2725 40.8857C62.0264 40.1885 61.6914 39.5801 61.2676 39.0605C60.8438 38.5273 60.3174 38.1172 59.6885 37.8301C59.0732 37.5293 58.3418 37.3789 57.4941 37.3789C56.5918 37.3789 55.8262 37.5703 55.1973 37.9531C54.5684 38.3359 54.0488 38.8623 53.6387 39.5322C53.2422 40.2021 52.9482 40.9814 52.7568 41.8701C52.5654 42.7588 52.4697 43.709 52.4697 44.7207Z" fill="#5A3EE3"/>
</svg>
