<svg width="88" height="88" viewBox="0 0 88 88" fill="none" xmlns="http://www.w3.org/2000/svg">
<rect width="88" height="88" rx="6" fill="#E4EEFD"/>
<path d="M45.5996 46.2793H50.7266C50.5625 48.2344 50.0156 49.9775 49.0859 51.5088C48.1562 53.0264 46.8506 54.2227 45.1689 55.0977C43.4873 55.9727 41.4434 56.4102 39.0371 56.4102C37.1914 56.4102 35.5303 56.082 34.0537 55.4258C32.5771 54.7559 31.3125 53.8125 30.2598 52.5957C29.207 51.3652 28.4004 49.8818 27.8398 48.1455C27.293 46.4092 27.0195 44.4678 27.0195 42.3213V39.8398C27.0195 37.6934 27.2998 35.752 27.8604 34.0156C28.4346 32.2793 29.2549 30.7959 30.3213 29.5654C31.3877 28.3213 32.666 27.3711 34.1562 26.7148C35.6602 26.0586 37.3486 25.7305 39.2217 25.7305C41.6006 25.7305 43.6104 26.168 45.251 27.043C46.8916 27.918 48.1631 29.1279 49.0654 30.6729C49.9814 32.2178 50.542 33.9883 50.7471 35.9844H45.6201C45.4834 34.6992 45.1826 33.5986 44.7178 32.6826C44.2666 31.7666 43.5967 31.0693 42.708 30.5908C41.8193 30.0986 40.6572 29.8525 39.2217 29.8525C38.0459 29.8525 37.0205 30.0713 36.1455 30.5088C35.2705 30.9463 34.5391 31.5889 33.9512 32.4365C33.3633 33.2842 32.9189 34.3301 32.6182 35.5742C32.3311 36.8047 32.1875 38.2129 32.1875 39.7988V42.3213C32.1875 43.8252 32.3174 45.1924 32.5771 46.4229C32.8506 47.6396 33.2607 48.6855 33.8076 49.5605C34.3682 50.4355 35.0791 51.1123 35.9404 51.5908C36.8018 52.0693 37.834 52.3086 39.0371 52.3086C40.5 52.3086 41.6826 52.0762 42.585 51.6113C43.501 51.1465 44.1914 50.4697 44.6562 49.5811C45.1348 48.6787 45.4492 47.5781 45.5996 46.2793ZM60.2012 24.5V56H55.2383V24.5H60.2012Z" fill="#2163E7"/>
</svg>
