<svg width="88" height="88" viewBox="0 0 88 88" fill="none" xmlns="http://www.w3.org/2000/svg">
<rect width="88" height="88" rx="6" fill="#E7E7EA"/>
<path d="M39.2627 46.2793H44.3896C44.2256 48.2344 43.6787 49.9775 42.749 51.5088C41.8193 53.0264 40.5137 54.2227 38.832 55.0977C37.1504 55.9727 35.1064 56.4102 32.7002 56.4102C30.8545 56.4102 29.1934 56.082 27.7168 55.4258C26.2402 54.7559 24.9756 53.8125 23.9229 52.5957C22.8701 51.3652 22.0635 49.8818 21.5029 48.1455C20.9561 46.4092 20.6826 44.4678 20.6826 42.3213V39.8398C20.6826 37.6934 20.9629 35.752 21.5234 34.0156C22.0977 32.2793 22.918 30.7959 23.9844 29.5654C25.0508 28.3213 26.3291 27.3711 27.8193 26.7148C29.3232 26.0586 31.0117 25.7305 32.8848 25.7305C35.2637 25.7305 37.2734 26.168 38.9141 27.043C40.5547 27.918 41.8262 29.1279 42.7285 30.6729C43.6445 32.2178 44.2051 33.9883 44.4102 35.9844H39.2832C39.1465 34.6992 38.8457 33.5986 38.3809 32.6826C37.9297 31.7666 37.2598 31.0693 36.3711 30.5908C35.4824 30.0986 34.3203 29.8525 32.8848 29.8525C31.709 29.8525 30.6836 30.0713 29.8086 30.5088C28.9336 30.9463 28.2021 31.5889 27.6143 32.4365C27.0264 33.2842 26.582 34.3301 26.2812 35.5742C25.9941 36.8047 25.8506 38.2129 25.8506 39.7988V42.3213C25.8506 43.8252 25.9805 45.1924 26.2402 46.4229C26.5137 47.6396 26.9238 48.6855 27.4707 49.5605C28.0312 50.4355 28.7422 51.1123 29.6035 51.5908C30.4648 52.0693 31.4971 52.3086 32.7002 52.3086C34.1631 52.3086 35.3457 52.0762 36.248 51.6113C37.1641 51.1465 37.8545 50.4697 38.3193 49.5811C38.7979 48.6787 39.1123 47.5781 39.2627 46.2793ZM53.4746 38.5479V56H48.5322V33.8105H53.1875L53.4746 38.5479ZM52.5928 44.085L50.9932 44.0645C51.0068 42.4922 51.2256 41.0498 51.6494 39.7373C52.0869 38.4248 52.6885 37.2969 53.4541 36.3535C54.2334 35.4102 55.1631 34.6855 56.2432 34.1797C57.3232 33.6602 58.5264 33.4004 59.8525 33.4004C60.9189 33.4004 61.8828 33.5508 62.7441 33.8516C63.6191 34.1387 64.3643 34.6104 64.9795 35.2666C65.6084 35.9229 66.0869 36.7773 66.415 37.8301C66.7432 38.8691 66.9072 40.1475 66.9072 41.665V56H61.9443V41.6445C61.9443 40.5781 61.7871 39.7373 61.4727 39.1221C61.1719 38.4932 60.7275 38.0488 60.1396 37.7891C59.5654 37.5156 58.8477 37.3789 57.9863 37.3789C57.1387 37.3789 56.3799 37.5566 55.71 37.9121C55.04 38.2676 54.4727 38.7529 54.0078 39.3682C53.5566 39.9834 53.208 40.6943 52.9619 41.501C52.7158 42.3076 52.5928 43.1689 52.5928 44.085Z" fill="#3E374D"/>
</svg>
