<svg width="88" height="88" viewBox="0 0 88 88" fill="none" xmlns="http://www.w3.org/2000/svg">
<rect width="88" height="88" rx="6" fill="#F1E8FB"/>
<path d="M39.0371 46.2793H44.1641C44 48.2344 43.4531 49.9775 42.5234 51.5088C41.5938 53.0264 40.2881 54.2227 38.6064 55.0977C36.9248 55.9727 34.8809 56.4102 32.4746 56.4102C30.6289 56.4102 28.9678 56.082 27.4912 55.4258C26.0146 54.7559 24.75 53.8125 23.6973 52.5957C22.6445 51.3652 21.8379 49.8818 21.2773 48.1455C20.7305 46.4092 20.457 44.4678 20.457 42.3213V39.8398C20.457 37.6934 20.7373 35.752 21.2979 34.0156C21.8721 32.2793 22.6924 30.7959 23.7588 29.5654C24.8252 28.3213 26.1035 27.3711 27.5938 26.7148C29.0977 26.0586 30.7861 25.7305 32.6592 25.7305C35.0381 25.7305 37.0479 26.168 38.6885 27.043C40.3291 27.918 41.6006 29.1279 42.5029 30.6729C43.4189 32.2178 43.9795 33.9883 44.1846 35.9844H39.0576C38.9209 34.6992 38.6201 33.5986 38.1553 32.6826C37.7041 31.7666 37.0342 31.0693 36.1455 30.5908C35.2568 30.0986 34.0947 29.8525 32.6592 29.8525C31.4834 29.8525 30.458 30.0713 29.583 30.5088C28.708 30.9463 27.9766 31.5889 27.3887 32.4365C26.8008 33.2842 26.3564 34.3301 26.0557 35.5742C25.7686 36.8047 25.625 38.2129 25.625 39.7988V42.3213C25.625 43.8252 25.7549 45.1924 26.0146 46.4229C26.2881 47.6396 26.6982 48.6855 27.2451 49.5605C27.8057 50.4355 28.5166 51.1123 29.3779 51.5908C30.2393 52.0693 31.2715 52.3086 32.4746 52.3086C33.9375 52.3086 35.1201 52.0762 36.0225 51.6113C36.9385 51.1465 37.6289 50.4697 38.0938 49.5811C38.5723 48.6787 38.8867 47.5781 39.0371 46.2793ZM47.4043 45.1514V44.6797C47.4043 43.0801 47.6367 41.5967 48.1016 40.2295C48.5664 38.8486 49.2363 37.6523 50.1113 36.6406C51 35.6152 52.0801 34.8223 53.3516 34.2617C54.6367 33.6875 56.0859 33.4004 57.6992 33.4004C59.3262 33.4004 60.7754 33.6875 62.0469 34.2617C63.332 34.8223 64.4189 35.6152 65.3076 36.6406C66.1963 37.6523 66.873 38.8486 67.3379 40.2295C67.8027 41.5967 68.0352 43.0801 68.0352 44.6797V45.1514C68.0352 46.751 67.8027 48.2344 67.3379 49.6016C66.873 50.9688 66.1963 52.165 65.3076 53.1904C64.4189 54.2021 63.3389 54.9951 62.0674 55.5693C60.7959 56.1299 59.3535 56.4102 57.7402 56.4102C56.1133 56.4102 54.6572 56.1299 53.3721 55.5693C52.1006 54.9951 51.0205 54.2021 50.1318 53.1904C49.2432 52.165 48.5664 50.9688 48.1016 49.6016C47.6367 48.2344 47.4043 46.751 47.4043 45.1514ZM52.3467 44.6797V45.1514C52.3467 46.1494 52.4492 47.0928 52.6543 47.9814C52.8594 48.8701 53.1807 49.6494 53.6182 50.3193C54.0557 50.9893 54.6162 51.5156 55.2998 51.8984C55.9834 52.2812 56.7969 52.4727 57.7402 52.4727C58.6562 52.4727 59.4492 52.2812 60.1191 51.8984C60.8027 51.5156 61.3633 50.9893 61.8008 50.3193C62.2383 49.6494 62.5596 48.8701 62.7646 47.9814C62.9834 47.0928 63.0928 46.1494 63.0928 45.1514V44.6797C63.0928 43.6953 62.9834 42.7656 62.7646 41.8906C62.5596 41.002 62.2314 40.2158 61.7803 39.5322C61.3428 38.8486 60.7822 38.3154 60.0986 37.9326C59.4287 37.5361 58.6289 37.3379 57.6992 37.3379C56.7695 37.3379 55.9629 37.5361 55.2793 37.9326C54.6094 38.3154 54.0557 38.8486 53.6182 39.5322C53.1807 40.2158 52.8594 41.002 52.6543 41.8906C52.4492 42.7656 52.3467 43.6953 52.3467 44.6797Z" fill="#5A3EE3"/>
</svg>
