<svg width="88" height="88" viewBox="0 0 88 88" fill="none" xmlns="http://www.w3.org/2000/svg">
<rect width="88" height="88" rx="6" fill="#F1E8FB"/>
<path d="M43.5283 46.2793H48.6553C48.4912 48.2344 47.9443 49.9775 47.0146 51.5088C46.085 53.0264 44.7793 54.2227 43.0977 55.0977C41.416 55.9727 39.3721 56.4102 36.9658 56.4102C35.1201 56.4102 33.459 56.082 31.9824 55.4258C30.5059 54.7559 29.2412 53.8125 28.1885 52.5957C27.1357 51.3652 26.3291 49.8818 25.7686 48.1455C25.2217 46.4092 24.9482 44.4678 24.9482 42.3213V39.8398C24.9482 37.6934 25.2285 35.752 25.7891 34.0156C26.3633 32.2793 27.1836 30.7959 28.25 29.5654C29.3164 28.3213 30.5947 27.3711 32.085 26.7148C33.5889 26.0586 35.2773 25.7305 37.1504 25.7305C39.5293 25.7305 41.5391 26.168 43.1797 27.043C44.8203 27.918 46.0918 29.1279 46.9941 30.6729C47.9102 32.2178 48.4707 33.9883 48.6758 35.9844H43.5488C43.4121 34.6992 43.1113 33.5986 42.6465 32.6826C42.1953 31.7666 41.5254 31.0693 40.6367 30.5908C39.748 30.0986 38.5859 29.8525 37.1504 29.8525C35.9746 29.8525 34.9492 30.0713 34.0742 30.5088C33.1992 30.9463 32.4678 31.5889 31.8799 32.4365C31.292 33.2842 30.8477 34.3301 30.5469 35.5742C30.2598 36.8047 30.1162 38.2129 30.1162 39.7988V42.3213C30.1162 43.8252 30.2461 45.1924 30.5059 46.4229C30.7793 47.6396 31.1895 48.6855 31.7363 49.5605C32.2969 50.4355 33.0078 51.1123 33.8691 51.5908C34.7305 52.0693 35.7627 52.3086 36.9658 52.3086C38.4287 52.3086 39.6113 52.0762 40.5137 51.6113C41.4297 51.1465 42.1201 50.4697 42.585 49.5811C43.0635 48.6787 43.3779 47.5781 43.5283 46.2793ZM57.8018 38.0352V56H52.8594V33.8105H57.5762L57.8018 38.0352ZM64.5898 33.667L64.5488 38.2607C64.248 38.2061 63.9199 38.165 63.5645 38.1377C63.2227 38.1104 62.8809 38.0967 62.5391 38.0967C61.6914 38.0967 60.9463 38.2197 60.3037 38.4658C59.6611 38.6982 59.1211 39.04 58.6836 39.4912C58.2598 39.9287 57.9316 40.4619 57.6992 41.0908C57.4668 41.7197 57.3301 42.4238 57.2891 43.2031L56.1611 43.2852C56.1611 41.8906 56.2979 40.5986 56.5713 39.4092C56.8447 38.2197 57.2549 37.1738 57.8018 36.2715C58.3623 35.3691 59.0596 34.665 59.8936 34.1592C60.7412 33.6533 61.7188 33.4004 62.8262 33.4004C63.127 33.4004 63.4482 33.4277 63.79 33.4824C64.1455 33.5371 64.4121 33.5986 64.5898 33.667Z" fill="#5A3EE3"/>
</svg>
