<svg width="88" height="88" viewBox="0 0 88 88" fill="none" xmlns="http://www.w3.org/2000/svg">
<rect width="88" height="88" rx="6" fill="#DEF7FE"/>
<path d="M40.1445 46.2793H45.2715C45.1074 48.2344 44.5605 49.9775 43.6309 51.5088C42.7012 53.0264 41.3955 54.2227 39.7139 55.0977C38.0322 55.9727 35.9883 56.4102 33.582 56.4102C31.7363 56.4102 30.0752 56.082 28.5986 55.4258C27.1221 54.7559 25.8574 53.8125 24.8047 52.5957C23.752 51.3652 22.9453 49.8818 22.3848 48.1455C21.8379 46.4092 21.5645 44.4678 21.5645 42.3213V39.8398C21.5645 37.6934 21.8447 35.752 22.4053 34.0156C22.9795 32.2793 23.7998 30.7959 24.8662 29.5654C25.9326 28.3213 27.2109 27.3711 28.7012 26.7148C30.2051 26.0586 31.8936 25.7305 33.7666 25.7305C36.1455 25.7305 38.1553 26.168 39.7959 27.043C41.4365 27.918 42.708 29.1279 43.6104 30.6729C44.5264 32.2178 45.0869 33.9883 45.292 35.9844H40.165C40.0283 34.6992 39.7275 33.5986 39.2627 32.6826C38.8115 31.7666 38.1416 31.0693 37.2529 30.5908C36.3643 30.0986 35.2021 29.8525 33.7666 29.8525C32.5908 29.8525 31.5654 30.0713 30.6904 30.5088C29.8154 30.9463 29.084 31.5889 28.4961 32.4365C27.9082 33.2842 27.4639 34.3301 27.1631 35.5742C26.876 36.8047 26.7324 38.2129 26.7324 39.7988V42.3213C26.7324 43.8252 26.8623 45.1924 27.1221 46.4229C27.3955 47.6396 27.8057 48.6855 28.3525 49.5605C28.9131 50.4355 29.624 51.1123 30.4854 51.5908C31.3467 52.0693 32.3789 52.3086 33.582 52.3086C35.0449 52.3086 36.2275 52.0762 37.1299 51.6113C38.0459 51.1465 38.7363 50.4697 39.2012 49.5811C39.6797 48.6787 39.9941 47.5781 40.1445 46.2793ZM61.9033 49.9912C61.9033 49.499 61.7803 49.0547 61.5342 48.6582C61.2881 48.248 60.8164 47.8789 60.1191 47.5508C59.4355 47.2227 58.4238 46.9219 57.084 46.6484C55.9082 46.3887 54.8281 46.0811 53.8438 45.7256C52.873 45.3564 52.0391 44.9121 51.3418 44.3926C50.6445 43.873 50.1045 43.2578 49.7217 42.5469C49.3389 41.8359 49.1475 41.0156 49.1475 40.0859C49.1475 39.1836 49.3457 38.3291 49.7422 37.5225C50.1387 36.7158 50.7061 36.0049 51.4443 35.3896C52.1826 34.7744 53.0781 34.2891 54.1309 33.9336C55.1973 33.5781 56.3867 33.4004 57.6992 33.4004C59.5586 33.4004 61.1514 33.7148 62.4775 34.3438C63.8174 34.959 64.8428 35.7998 65.5537 36.8662C66.2646 37.9189 66.6201 39.1084 66.6201 40.4346H61.6777C61.6777 39.8467 61.5273 39.2998 61.2266 38.7939C60.9395 38.2744 60.502 37.8574 59.9141 37.543C59.3262 37.2148 58.5879 37.0508 57.6992 37.0508C56.8516 37.0508 56.1475 37.1875 55.5869 37.4609C55.04 37.7207 54.6299 38.0625 54.3564 38.4863C54.0967 38.9102 53.9668 39.375 53.9668 39.8809C53.9668 40.25 54.0352 40.585 54.1719 40.8857C54.3223 41.1729 54.5684 41.4395 54.9102 41.6855C55.252 41.918 55.7168 42.1367 56.3047 42.3418C56.9062 42.5469 57.6582 42.7451 58.5605 42.9365C60.2559 43.292 61.7119 43.75 62.9287 44.3105C64.1592 44.8574 65.1025 45.5684 65.7588 46.4434C66.415 47.3047 66.7432 48.3984 66.7432 49.7246C66.7432 50.709 66.5312 51.6113 66.1074 52.4316C65.6973 53.2383 65.0957 53.9424 64.3027 54.5439C63.5098 55.1318 62.5596 55.5898 61.4521 55.918C60.3584 56.2461 59.1279 56.4102 57.7607 56.4102C55.751 56.4102 54.0488 56.0547 52.6543 55.3438C51.2598 54.6191 50.2002 53.6963 49.4756 52.5752C48.7646 51.4404 48.4092 50.2646 48.4092 49.0479H53.1875C53.2422 49.9639 53.4951 50.6953 53.9463 51.2422C54.4111 51.7754 54.9854 52.165 55.6689 52.4111C56.3662 52.6436 57.084 52.7598 57.8223 52.7598C58.7109 52.7598 59.4561 52.6436 60.0576 52.4111C60.6592 52.165 61.1172 51.8369 61.4316 51.4268C61.7461 51.0029 61.9033 50.5244 61.9033 49.9912Z" fill="#317389"/>
</svg>
