<svg width="88" height="88" viewBox="0 0 88 88" fill="none" xmlns="http://www.w3.org/2000/svg">
<rect width="88" height="88" rx="6" fill="#F1E8FB"/>
<path d="M39.2627 46.2793H44.3896C44.2256 48.2344 43.6787 49.9775 42.749 51.5088C41.8193 53.0264 40.5137 54.2227 38.832 55.0977C37.1504 55.9727 35.1064 56.4102 32.7002 56.4102C30.8545 56.4102 29.1934 56.082 27.7168 55.4258C26.2402 54.7559 24.9756 53.8125 23.9229 52.5957C22.8701 51.3652 22.0635 49.8818 21.5029 48.1455C20.9561 46.4092 20.6826 44.4678 20.6826 42.3213V39.8398C20.6826 37.6934 20.9629 35.752 21.5234 34.0156C22.0977 32.2793 22.918 30.7959 23.9844 29.5654C25.0508 28.3213 26.3291 27.3711 27.8193 26.7148C29.3232 26.0586 31.0117 25.7305 32.8848 25.7305C35.2637 25.7305 37.2734 26.168 38.9141 27.043C40.5547 27.918 41.8262 29.1279 42.7285 30.6729C43.6445 32.2178 44.2051 33.9883 44.4102 35.9844H39.2832C39.1465 34.6992 38.8457 33.5986 38.3809 32.6826C37.9297 31.7666 37.2598 31.0693 36.3711 30.5908C35.4824 30.0986 34.3203 29.8525 32.8848 29.8525C31.709 29.8525 30.6836 30.0713 29.8086 30.5088C28.9336 30.9463 28.2021 31.5889 27.6143 32.4365C27.0264 33.2842 26.582 34.3301 26.2812 35.5742C25.9941 36.8047 25.8506 38.2129 25.8506 39.7988V42.3213C25.8506 43.8252 25.9805 45.1924 26.2402 46.4229C26.5137 47.6396 26.9238 48.6855 27.4707 49.5605C28.0312 50.4355 28.7422 51.1123 29.6035 51.5908C30.4648 52.0693 31.4971 52.3086 32.7002 52.3086C34.1631 52.3086 35.3457 52.0762 36.248 51.6113C37.1641 51.1465 37.8545 50.4697 38.3193 49.5811C38.7979 48.6787 39.1123 47.5781 39.2627 46.2793ZM61.9238 50.7705V33.8105H66.8867V56H62.2109L61.9238 50.7705ZM62.6211 46.1562L64.2822 46.1152C64.2822 47.6055 64.1182 48.9795 63.79 50.2373C63.4619 51.4814 62.9561 52.5684 62.2725 53.498C61.5889 54.4141 60.7139 55.1318 59.6475 55.6514C58.5811 56.1572 57.3027 56.4102 55.8125 56.4102C54.7324 56.4102 53.7412 56.2529 52.8389 55.9385C51.9365 55.624 51.1572 55.1387 50.501 54.4824C49.8584 53.8262 49.3594 52.9717 49.0039 51.9189C48.6484 50.8662 48.4707 49.6084 48.4707 48.1455V33.8105H53.4131V48.1865C53.4131 48.9932 53.5088 49.6699 53.7002 50.2168C53.8916 50.75 54.1514 51.1807 54.4795 51.5088C54.8076 51.8369 55.1904 52.0693 55.6279 52.2061C56.0654 52.3428 56.5303 52.4111 57.0225 52.4111C58.4307 52.4111 59.5381 52.1377 60.3447 51.5908C61.165 51.0303 61.7461 50.2783 62.0879 49.335C62.4434 48.3916 62.6211 47.332 62.6211 46.1562Z" fill="#5A3EE3"/>
</svg>
