<svg width="88" height="88" viewBox="0 0 88 88" fill="none" xmlns="http://www.w3.org/2000/svg">
<rect width="88" height="88" rx="6" fill="#F1E8FB"/>
<path d="M30.1777 56H23.7998L23.8408 51.9189H30.1777C32.0234 51.9189 33.5684 51.5156 34.8125 50.709C36.0703 49.9023 37.0137 48.7471 37.6426 47.2432C38.2852 45.7393 38.6064 43.9482 38.6064 41.8701V40.25C38.6064 38.6367 38.4219 37.208 38.0527 35.9639C37.6973 34.7197 37.1641 33.6738 36.4531 32.8262C35.7559 31.9785 34.8945 31.3359 33.8691 30.8984C32.8574 30.4609 31.6885 30.2422 30.3623 30.2422H23.6768V26.1406H30.3623C32.3447 26.1406 34.1562 26.4756 35.7969 27.1455C37.4375 27.8018 38.8525 28.752 40.042 29.9961C41.2451 31.2402 42.168 32.7305 42.8105 34.4668C43.4531 36.2031 43.7744 38.1445 43.7744 40.291V41.8701C43.7744 44.0166 43.4531 45.958 42.8105 47.6943C42.168 49.4307 41.2451 50.9209 40.042 52.165C38.8389 53.3955 37.4033 54.3457 35.7354 55.0156C34.0811 55.6719 32.2285 56 30.1777 56ZM26.6504 26.1406V56H21.5029V26.1406H26.6504ZM48.4707 24.5H53.4131V51.2627L52.9414 56H48.4707V24.5ZM67.8916 44.7002V45.1309C67.8916 46.7715 67.707 48.2822 67.3379 49.6631C66.9824 51.0303 66.4355 52.2197 65.6973 53.2314C64.9727 54.2432 64.0703 55.0293 62.9902 55.5898C61.9238 56.1367 60.6865 56.4102 59.2783 56.4102C57.8975 56.4102 56.6943 56.1504 55.6689 55.6309C54.6436 55.1113 53.7822 54.373 53.085 53.416C52.4014 52.459 51.8477 51.3174 51.4238 49.9912C51 48.665 50.6992 47.2021 50.5215 45.6025V44.2285C50.6992 42.6152 51 41.1523 51.4238 39.8398C51.8477 38.5137 52.4014 37.3721 53.085 36.415C53.7822 35.4443 54.6367 34.6992 55.6484 34.1797C56.6738 33.6602 57.8701 33.4004 59.2373 33.4004C60.6592 33.4004 61.9102 33.6738 62.9902 34.2207C64.084 34.7676 64.9932 35.5469 65.7178 36.5586C66.4424 37.5566 66.9824 38.7461 67.3379 40.127C67.707 41.5078 67.8916 43.0322 67.8916 44.7002ZM62.9492 45.1309V44.7002C62.9492 43.7021 62.8672 42.7656 62.7031 41.8906C62.5391 41.002 62.2656 40.2227 61.8828 39.5527C61.5137 38.8828 61.0078 38.3564 60.3652 37.9736C59.7363 37.5771 58.9502 37.3789 58.0068 37.3789C57.1318 37.3789 56.3799 37.5293 55.751 37.8301C55.1221 38.1309 54.5957 38.541 54.1719 39.0605C53.748 39.5801 53.4131 40.1816 53.167 40.8652C52.9346 41.5488 52.7773 42.2871 52.6953 43.0801V46.792C52.8184 47.8174 53.0781 48.7607 53.4746 49.6221C53.8848 50.4697 54.459 51.1533 55.1973 51.6729C55.9355 52.1787 56.8857 52.4316 58.0479 52.4316C58.9639 52.4316 59.7363 52.2471 60.3652 51.8779C60.9941 51.5088 61.4932 50.9961 61.8623 50.3398C62.2451 49.6699 62.5186 48.8906 62.6826 48.002C62.8604 47.1133 62.9492 46.1562 62.9492 45.1309Z" fill="#5A3EE3"/>
</svg>
