<svg width="88" height="88" viewBox="0 0 88 88" fill="none" xmlns="http://www.w3.org/2000/svg">
<rect width="88" height="88" rx="6" fill="#E7E7EA"/>
<path d="M31.1826 56H24.8047L24.8457 51.9189H31.1826C33.0283 51.9189 34.5732 51.5156 35.8174 50.709C37.0752 49.9023 38.0186 48.7471 38.6475 47.2432C39.29 45.7393 39.6113 43.9482 39.6113 41.8701V40.25C39.6113 38.6367 39.4268 37.208 39.0576 35.9639C38.7021 34.7197 38.1689 33.6738 37.458 32.8262C36.7607 31.9785 35.8994 31.3359 34.874 30.8984C33.8623 30.4609 32.6934 30.2422 31.3672 30.2422H24.6816V26.1406H31.3672C33.3496 26.1406 35.1611 26.4756 36.8018 27.1455C38.4424 27.8018 39.8574 28.752 41.0469 29.9961C42.25 31.2402 43.1729 32.7305 43.8154 34.4668C44.458 36.2031 44.7793 38.1445 44.7793 40.291V41.8701C44.7793 44.0166 44.458 45.958 43.8154 47.6943C43.1729 49.4307 42.25 50.9209 41.0469 52.165C39.8438 53.3955 38.4082 54.3457 36.7402 55.0156C35.0859 55.6719 33.2334 56 31.1826 56ZM27.6553 26.1406V56H22.5078V26.1406H27.6553ZM61.9033 49.9912C61.9033 49.499 61.7803 49.0547 61.5342 48.6582C61.2881 48.248 60.8164 47.8789 60.1191 47.5508C59.4355 47.2227 58.4238 46.9219 57.084 46.6484C55.9082 46.3887 54.8281 46.0811 53.8438 45.7256C52.873 45.3564 52.0391 44.9121 51.3418 44.3926C50.6445 43.873 50.1045 43.2578 49.7217 42.5469C49.3389 41.8359 49.1475 41.0156 49.1475 40.0859C49.1475 39.1836 49.3457 38.3291 49.7422 37.5225C50.1387 36.7158 50.7061 36.0049 51.4443 35.3896C52.1826 34.7744 53.0781 34.2891 54.1309 33.9336C55.1973 33.5781 56.3867 33.4004 57.6992 33.4004C59.5586 33.4004 61.1514 33.7148 62.4775 34.3438C63.8174 34.959 64.8428 35.7998 65.5537 36.8662C66.2646 37.9189 66.6201 39.1084 66.6201 40.4346H61.6777C61.6777 39.8467 61.5273 39.2998 61.2266 38.7939C60.9395 38.2744 60.502 37.8574 59.9141 37.543C59.3262 37.2148 58.5879 37.0508 57.6992 37.0508C56.8516 37.0508 56.1475 37.1875 55.5869 37.4609C55.04 37.7207 54.6299 38.0625 54.3564 38.4863C54.0967 38.9102 53.9668 39.375 53.9668 39.8809C53.9668 40.25 54.0352 40.585 54.1719 40.8857C54.3223 41.1729 54.5684 41.4395 54.9102 41.6855C55.252 41.918 55.7168 42.1367 56.3047 42.3418C56.9062 42.5469 57.6582 42.7451 58.5605 42.9365C60.2559 43.292 61.7119 43.75 62.9287 44.3105C64.1592 44.8574 65.1025 45.5684 65.7588 46.4434C66.415 47.3047 66.7432 48.3984 66.7432 49.7246C66.7432 50.709 66.5312 51.6113 66.1074 52.4316C65.6973 53.2383 65.0957 53.9424 64.3027 54.5439C63.5098 55.1318 62.5596 55.5898 61.4521 55.918C60.3584 56.2461 59.1279 56.4102 57.7607 56.4102C55.751 56.4102 54.0488 56.0547 52.6543 55.3438C51.2598 54.6191 50.2002 53.6963 49.4756 52.5752C48.7646 51.4404 48.4092 50.2646 48.4092 49.0479H53.1875C53.2422 49.9639 53.4951 50.6953 53.9463 51.2422C54.4111 51.7754 54.9854 52.165 55.6689 52.4111C56.3662 52.6436 57.084 52.7598 57.8223 52.7598C58.7109 52.7598 59.4561 52.6436 60.0576 52.4111C60.6592 52.165 61.1172 51.8369 61.4316 51.4268C61.7461 51.0029 61.9033 50.5244 61.9033 49.9912Z" fill="#3E374D"/>
</svg>
