<svg width="88" height="88" viewBox="0 0 88 88" fill="none" xmlns="http://www.w3.org/2000/svg">
<rect width="88" height="88" rx="6" fill="#F1E8FB"/>
<path d="M29.583 26.1406V56H24.4355V26.1406H29.583ZM41.7646 39.2041V43.2852H28.2705V39.2041H41.7646ZM43.4668 26.1406V30.2422H28.2705V26.1406H43.4668ZM56.4072 56.4102C54.7666 56.4102 53.2832 56.1436 51.957 55.6104C50.6445 55.0635 49.5234 54.3047 48.5938 53.334C47.6777 52.3633 46.9736 51.2217 46.4814 49.9092C45.9893 48.5967 45.7432 47.1816 45.7432 45.6641V44.8438C45.7432 43.1074 45.9961 41.5352 46.502 40.127C47.0078 38.7188 47.7119 37.5156 48.6143 36.5176C49.5166 35.5059 50.583 34.7334 51.8135 34.2002C53.0439 33.667 54.377 33.4004 55.8125 33.4004C57.3984 33.4004 58.7861 33.667 59.9756 34.2002C61.165 34.7334 62.1494 35.4854 62.9287 36.4561C63.7217 37.4131 64.3096 38.5547 64.6924 39.8809C65.0889 41.207 65.2871 42.6699 65.2871 44.2695V46.3818H48.1426V42.834H60.4062V42.4443C60.3789 41.5557 60.2012 40.7217 59.873 39.9424C59.5586 39.1631 59.0732 38.5342 58.417 38.0557C57.7607 37.5771 56.8857 37.3379 55.792 37.3379C54.9717 37.3379 54.2402 37.5156 53.5977 37.8711C52.9688 38.2129 52.4424 38.7119 52.0186 39.3682C51.5947 40.0244 51.2666 40.8174 51.0342 41.7471C50.8154 42.6631 50.7061 43.6953 50.7061 44.8438V45.6641C50.7061 46.6348 50.8359 47.5371 51.0957 48.3711C51.3691 49.1914 51.7656 49.9092 52.2852 50.5244C52.8047 51.1396 53.4336 51.625 54.1719 51.9805C54.9102 52.3223 55.751 52.4932 56.6943 52.4932C57.8838 52.4932 58.9434 52.2539 59.873 51.7754C60.8027 51.2969 61.6094 50.6201 62.293 49.7451L64.8975 52.2676C64.4189 52.9648 63.7969 53.6348 63.0312 54.2773C62.2656 54.9062 61.3291 55.4189 60.2217 55.8154C59.1279 56.2119 57.8564 56.4102 56.4072 56.4102Z" fill="#5A3EE3"/>
</svg>
