<svg width="88" height="88" viewBox="0 0 88 88" fill="none" xmlns="http://www.w3.org/2000/svg">
<rect width="88" height="88" rx="6" fill="#DEF7FE"/>
<path d="M33.459 26.1406V56H28.3115V26.1406H33.459ZM45.6406 39.2041V43.2852H32.1465V39.2041H45.6406ZM47.3428 26.1406V30.2422H32.1465V26.1406H47.3428ZM55.3818 38.0352V56H50.4395V33.8105H55.1562L55.3818 38.0352ZM62.1699 33.667L62.1289 38.2607C61.8281 38.2061 61.5 38.165 61.1445 38.1377C60.8027 38.1104 60.4609 38.0967 60.1191 38.0967C59.2715 38.0967 58.5264 38.2197 57.8838 38.4658C57.2412 38.6982 56.7012 39.04 56.2637 39.4912C55.8398 39.9287 55.5117 40.4619 55.2793 41.0908C55.0469 41.7197 54.9102 42.4238 54.8691 43.2031L53.7412 43.2852C53.7412 41.8906 53.8779 40.5986 54.1514 39.4092C54.4248 38.2197 54.835 37.1738 55.3818 36.2715C55.9424 35.3691 56.6396 34.665 57.4736 34.1592C58.3213 33.6533 59.2988 33.4004 60.4062 33.4004C60.707 33.4004 61.0283 33.4277 61.3701 33.4824C61.7256 33.5371 61.9922 33.5986 62.1699 33.667Z" fill="#317389"/>
</svg>
