<svg width="88" height="88" viewBox="0 0 88 88" fill="none" xmlns="http://www.w3.org/2000/svg">
<rect width="88" height="88" rx="6" fill="#DDF8E9"/>
<path d="M44.3281 40.7422V52.1445C43.9043 52.7051 43.2412 53.3203 42.3389 53.9902C41.4502 54.6465 40.2676 55.2139 38.791 55.6924C37.3145 56.1709 35.4756 56.4102 33.2744 56.4102C31.4014 56.4102 29.6855 56.0957 28.127 55.4668C26.5684 54.8242 25.2217 53.8877 24.0869 52.6572C22.9658 51.4268 22.0977 49.9297 21.4824 48.166C20.8672 46.3887 20.5596 44.3652 20.5596 42.0957V40.0244C20.5596 37.7686 20.8398 35.7588 21.4004 33.9951C21.9746 32.2178 22.7949 30.7139 23.8613 29.4834C24.9277 28.2529 26.2129 27.3232 27.7168 26.6943C29.2344 26.0518 30.9502 25.7305 32.8643 25.7305C35.3115 25.7305 37.335 26.1406 38.9346 26.9609C40.5479 27.7676 41.792 28.8887 42.667 30.3242C43.542 31.7598 44.0957 33.4004 44.3281 35.2461H39.2832C39.1191 34.207 38.7979 33.2773 38.3193 32.457C37.8545 31.6367 37.1846 30.9941 36.3096 30.5293C35.4482 30.0508 34.3271 29.8115 32.9463 29.8115C31.7568 29.8115 30.7109 30.0371 29.8086 30.4883C28.9062 30.9395 28.1543 31.6025 27.5527 32.4775C26.9648 33.3525 26.5205 34.4189 26.2197 35.6768C25.9189 36.9346 25.7686 38.3701 25.7686 39.9834V42.0957C25.7686 43.7363 25.9395 45.1924 26.2812 46.4639C26.6367 47.7354 27.1426 48.8086 27.7988 49.6836C28.4688 50.5586 29.2822 51.2217 30.2393 51.6729C31.1963 52.1104 32.2764 52.3291 33.4795 52.3291C34.6553 52.3291 35.6191 52.2334 36.3711 52.042C37.123 51.8369 37.7178 51.5977 38.1553 51.3242C38.6064 51.0371 38.9551 50.7637 39.2012 50.5039V44.5771H32.9873V40.7422H44.3281ZM62.0469 51.5498V40.9678C62.0469 40.1748 61.9033 39.4912 61.6162 38.917C61.3291 38.3428 60.8916 37.8984 60.3037 37.584C59.7295 37.2695 59.0049 37.1123 58.1299 37.1123C57.3232 37.1123 56.626 37.249 56.0381 37.5225C55.4502 37.7959 54.9922 38.165 54.6641 38.6299C54.3359 39.0947 54.1719 39.6211 54.1719 40.209H49.25C49.25 39.334 49.4619 38.4863 49.8857 37.666C50.3096 36.8457 50.9248 36.1143 51.7314 35.4717C52.5381 34.8291 53.502 34.3232 54.623 33.9541C55.7441 33.585 57.002 33.4004 58.3965 33.4004C60.0645 33.4004 61.541 33.6807 62.8262 34.2412C64.125 34.8018 65.1436 35.6494 65.8818 36.7842C66.6338 37.9053 67.0098 39.3135 67.0098 41.0088V50.873C67.0098 51.8848 67.0781 52.7939 67.2148 53.6006C67.3652 54.3936 67.5771 55.084 67.8506 55.6719V56H62.7852C62.5527 55.4668 62.3682 54.79 62.2314 53.9697C62.1084 53.1357 62.0469 52.3291 62.0469 51.5498ZM62.7646 42.5059L62.8057 45.5615H59.2578C58.3418 45.5615 57.5352 45.6504 56.8379 45.8281C56.1406 45.9922 55.5596 46.2383 55.0947 46.5664C54.6299 46.8945 54.2812 47.291 54.0488 47.7559C53.8164 48.2207 53.7002 48.7471 53.7002 49.335C53.7002 49.9229 53.8369 50.4629 54.1104 50.9551C54.3838 51.4336 54.7803 51.8096 55.2998 52.083C55.833 52.3564 56.4756 52.4932 57.2275 52.4932C58.2393 52.4932 59.1211 52.2881 59.873 51.8779C60.6387 51.4541 61.2402 50.9414 61.6777 50.3398C62.1152 49.7246 62.3477 49.1436 62.375 48.5967L63.9746 50.791C63.8105 51.3516 63.5303 51.9531 63.1338 52.5957C62.7373 53.2383 62.2178 53.8535 61.5752 54.4414C60.9463 55.0156 60.1875 55.4873 59.2988 55.8564C58.4238 56.2256 57.4121 56.4102 56.2637 56.4102C54.8145 56.4102 53.5225 56.123 52.3877 55.5488C51.2529 54.9609 50.3643 54.1748 49.7217 53.1904C49.0791 52.1924 48.7578 51.0645 48.7578 49.8066C48.7578 48.6309 48.9766 47.5918 49.4141 46.6895C49.8652 45.7734 50.5215 45.0078 51.3828 44.3926C52.2578 43.7773 53.3242 43.3125 54.582 42.998C55.8398 42.6699 57.2754 42.5059 58.8887 42.5059H62.7646Z" fill="#0E2B06"/>
</svg>
