<svg width="88" height="88" viewBox="0 0 88 88" fill="none" xmlns="http://www.w3.org/2000/svg">
<rect width="88" height="88" rx="6" fill="#FDF7E2"/>
<path d="M44.3896 40.7422V52.1445C43.9658 52.7051 43.3027 53.3203 42.4004 53.9902C41.5117 54.6465 40.3291 55.2139 38.8525 55.6924C37.376 56.1709 35.5371 56.4102 33.3359 56.4102C31.4629 56.4102 29.7471 56.0957 28.1885 55.4668C26.6299 54.8242 25.2832 53.8877 24.1484 52.6572C23.0273 51.4268 22.1592 49.9297 21.5439 48.166C20.9287 46.3887 20.6211 44.3652 20.6211 42.0957V40.0244C20.6211 37.7686 20.9014 35.7588 21.4619 33.9951C22.0361 32.2178 22.8564 30.7139 23.9229 29.4834C24.9893 28.2529 26.2744 27.3232 27.7783 26.6943C29.2959 26.0518 31.0117 25.7305 32.9258 25.7305C35.373 25.7305 37.3965 26.1406 38.9961 26.9609C40.6094 27.7676 41.8535 28.8887 42.7285 30.3242C43.6035 31.7598 44.1572 33.4004 44.3896 35.2461H39.3447C39.1807 34.207 38.8594 33.2773 38.3809 32.457C37.916 31.6367 37.2461 30.9941 36.3711 30.5293C35.5098 30.0508 34.3887 29.8115 33.0078 29.8115C31.8184 29.8115 30.7725 30.0371 29.8701 30.4883C28.9678 30.9395 28.2158 31.6025 27.6143 32.4775C27.0264 33.3525 26.582 34.4189 26.2812 35.6768C25.9805 36.9346 25.8301 38.3701 25.8301 39.9834V42.0957C25.8301 43.7363 26.001 45.1924 26.3428 46.4639C26.6982 47.7354 27.2041 48.8086 27.8604 49.6836C28.5303 50.5586 29.3438 51.2217 30.3008 51.6729C31.2578 52.1104 32.3379 52.3291 33.541 52.3291C34.7168 52.3291 35.6807 52.2334 36.4326 52.042C37.1846 51.8369 37.7793 51.5977 38.2168 51.3242C38.668 51.0371 39.0166 50.7637 39.2627 50.5039V44.5771H33.0488V40.7422H44.3896ZM59.3809 56.4102C57.7402 56.4102 56.2568 56.1436 54.9307 55.6104C53.6182 55.0635 52.4971 54.3047 51.5674 53.334C50.6514 52.3633 49.9473 51.2217 49.4551 49.9092C48.9629 48.5967 48.7168 47.1816 48.7168 45.6641V44.8438C48.7168 43.1074 48.9697 41.5352 49.4756 40.127C49.9814 38.7188 50.6855 37.5156 51.5879 36.5176C52.4902 35.5059 53.5566 34.7334 54.7871 34.2002C56.0176 33.667 57.3506 33.4004 58.7861 33.4004C60.3721 33.4004 61.7598 33.667 62.9492 34.2002C64.1387 34.7334 65.123 35.4854 65.9023 36.4561C66.6953 37.4131 67.2832 38.5547 67.666 39.8809C68.0625 41.207 68.2607 42.6699 68.2607 44.2695V46.3818H51.1162V42.834H63.3799V42.4443C63.3525 41.5557 63.1748 40.7217 62.8467 39.9424C62.5322 39.1631 62.0469 38.5342 61.3906 38.0557C60.7344 37.5771 59.8594 37.3379 58.7656 37.3379C57.9453 37.3379 57.2139 37.5156 56.5713 37.8711C55.9424 38.2129 55.416 38.7119 54.9922 39.3682C54.5684 40.0244 54.2402 40.8174 54.0078 41.7471C53.7891 42.6631 53.6797 43.6953 53.6797 44.8438V45.6641C53.6797 46.6348 53.8096 47.5371 54.0693 48.3711C54.3428 49.1914 54.7393 49.9092 55.2588 50.5244C55.7783 51.1396 56.4072 51.625 57.1455 51.9805C57.8838 52.3223 58.7246 52.4932 59.668 52.4932C60.8574 52.4932 61.917 52.2539 62.8467 51.7754C63.7764 51.2969 64.583 50.6201 65.2666 49.7451L67.8711 52.2676C67.3926 52.9648 66.7705 53.6348 66.0049 54.2773C65.2393 54.9062 64.3027 55.4189 63.1953 55.8154C62.1016 56.2119 60.8301 56.4102 59.3809 56.4102Z" fill="#8C591D"/>
</svg>
