<svg width="88" height="88" viewBox="0 0 88 88" fill="none" xmlns="http://www.w3.org/2000/svg">
<rect width="88" height="88" rx="6" fill="#F1E8FB"/>
<path d="M44.4307 38.6094V42.6904H28.5781V38.6094H44.4307ZM29.8496 26.1406V56H24.7021V26.1406H29.8496ZM48.3887 26.1406V56H43.2617V26.1406H48.3887ZM60.7139 56H55.7715V31.6777C55.7715 30.0234 56.0791 28.6357 56.6943 27.5146C57.3232 26.3799 58.2188 25.5254 59.3809 24.9512C60.543 24.3633 61.917 24.0693 63.5029 24.0693C63.9951 24.0693 64.4805 24.1035 64.959 24.1719C65.4375 24.2266 65.9023 24.3154 66.3535 24.4385L66.2305 28.2529C65.957 28.1846 65.6562 28.1367 65.3281 28.1094C65.0137 28.082 64.6719 28.0684 64.3027 28.0684C63.5508 28.0684 62.9014 28.2119 62.3545 28.499C61.8213 28.7725 61.4111 29.1758 61.124 29.709C60.8506 30.2422 60.7139 30.8984 60.7139 31.6777V56ZM65.2871 33.8105V37.4199H52.3672V33.8105H65.2871Z" fill="#5A3EE3"/>
</svg>
