<svg width="88" height="88" viewBox="0 0 88 88" fill="none" xmlns="http://www.w3.org/2000/svg">
<rect width="88" height="88" rx="6" fill="#F1E8FB"/>
<path d="M39.9395 38.6094V42.6904H24.0869V38.6094H39.9395ZM25.3584 26.1406V56H20.2109V26.1406H25.3584ZM43.8975 26.1406V56H38.7705V26.1406H43.8975ZM63.749 33.8105H68.2402V55.3848C68.2402 57.3809 67.8164 59.0762 66.9688 60.4707C66.1211 61.8652 64.9385 62.9248 63.4209 63.6494C61.9033 64.3877 60.1465 64.7568 58.1504 64.7568C57.3027 64.7568 56.3594 64.6338 55.3203 64.3877C54.2949 64.1416 53.2969 63.7451 52.3262 63.1982C51.3691 62.665 50.5693 61.9609 49.9268 61.0859L52.2441 58.1738C53.0371 59.1172 53.9121 59.8076 54.8691 60.2451C55.8262 60.6826 56.8311 60.9014 57.8838 60.9014C59.0186 60.9014 59.9824 60.6895 60.7754 60.2656C61.582 59.8555 62.2041 59.2471 62.6416 58.4404C63.0791 57.6338 63.2979 56.6494 63.2979 55.4873V38.835L63.749 33.8105ZM48.6758 45.1514V44.7207C48.6758 43.0391 48.8809 41.5078 49.291 40.127C49.7012 38.7324 50.2891 37.5361 51.0547 36.5381C51.8203 35.5264 52.75 34.7539 53.8438 34.2207C54.9375 33.6738 56.1748 33.4004 57.5557 33.4004C58.9912 33.4004 60.2148 33.6602 61.2266 34.1797C62.252 34.6992 63.1064 35.4443 63.79 36.415C64.4736 37.3721 65.0068 38.5205 65.3896 39.8604C65.7861 41.1865 66.0801 42.6631 66.2715 44.29V45.6641C66.0938 47.25 65.793 48.6992 65.3691 50.0117C64.9453 51.3242 64.3848 52.459 63.6875 53.416C62.9902 54.373 62.1289 55.1113 61.1035 55.6309C60.0918 56.1504 58.8955 56.4102 57.5146 56.4102C56.1611 56.4102 54.9375 56.1299 53.8438 55.5693C52.7637 55.0088 51.834 54.2227 51.0547 53.2109C50.2891 52.1992 49.7012 51.0098 49.291 49.6426C48.8809 48.2617 48.6758 46.7646 48.6758 45.1514ZM53.6182 44.7207V45.1514C53.6182 46.1631 53.7139 47.1064 53.9053 47.9814C54.1104 48.8564 54.418 49.6289 54.8281 50.2988C55.252 50.9551 55.7852 51.4746 56.4277 51.8574C57.084 52.2266 57.8564 52.4111 58.7451 52.4111C59.9072 52.4111 60.8574 52.165 61.5957 51.6729C62.3477 51.1807 62.9219 50.5176 63.3184 49.6836C63.7285 48.8359 64.0156 47.8926 64.1797 46.8535V43.1416C64.0977 42.335 63.9268 41.583 63.667 40.8857C63.4209 40.1885 63.0859 39.5801 62.6621 39.0605C62.2383 38.5273 61.7051 38.1172 61.0625 37.8301C60.4199 37.5293 59.6611 37.3789 58.7861 37.3789C57.8975 37.3789 57.125 37.5703 56.4688 37.9531C55.8125 38.3359 55.2725 38.8623 54.8486 39.5322C54.4385 40.2021 54.1309 40.9814 53.9258 41.8701C53.7207 42.7588 53.6182 43.709 53.6182 44.7207Z" fill="#5A3EE3"/>
</svg>
