<svg width="88" height="88" viewBox="0 0 88 88" fill="none" xmlns="http://www.w3.org/2000/svg">
<rect width="88" height="88" rx="6" fill="#F1E8FB"/>
<path d="M41.0469 38.6094V42.6904H25.1943V38.6094H41.0469ZM26.4658 26.1406V56H21.3184V26.1406H26.4658ZM45.0049 26.1406V56H39.8779V26.1406H45.0049ZM63.0928 49.9912C63.0928 49.499 62.9697 49.0547 62.7236 48.6582C62.4775 48.248 62.0059 47.8789 61.3086 47.5508C60.625 47.2227 59.6133 46.9219 58.2734 46.6484C57.0977 46.3887 56.0176 46.0811 55.0332 45.7256C54.0625 45.3564 53.2285 44.9121 52.5312 44.3926C51.834 43.873 51.2939 43.2578 50.9111 42.5469C50.5283 41.8359 50.3369 41.0156 50.3369 40.0859C50.3369 39.1836 50.5352 38.3291 50.9316 37.5225C51.3281 36.7158 51.8955 36.0049 52.6338 35.3896C53.3721 34.7744 54.2676 34.2891 55.3203 33.9336C56.3867 33.5781 57.5762 33.4004 58.8887 33.4004C60.748 33.4004 62.3408 33.7148 63.667 34.3438C65.0068 34.959 66.0322 35.7998 66.7432 36.8662C67.4541 37.9189 67.8096 39.1084 67.8096 40.4346H62.8672C62.8672 39.8467 62.7168 39.2998 62.416 38.7939C62.1289 38.2744 61.6914 37.8574 61.1035 37.543C60.5156 37.2148 59.7773 37.0508 58.8887 37.0508C58.041 37.0508 57.3369 37.1875 56.7764 37.4609C56.2295 37.7207 55.8193 38.0625 55.5459 38.4863C55.2861 38.9102 55.1562 39.375 55.1562 39.8809C55.1562 40.25 55.2246 40.585 55.3613 40.8857C55.5117 41.1729 55.7578 41.4395 56.0996 41.6855C56.4414 41.918 56.9062 42.1367 57.4941 42.3418C58.0957 42.5469 58.8477 42.7451 59.75 42.9365C61.4453 43.292 62.9014 43.75 64.1182 44.3105C65.3486 44.8574 66.292 45.5684 66.9482 46.4434C67.6045 47.3047 67.9326 48.3984 67.9326 49.7246C67.9326 50.709 67.7207 51.6113 67.2969 52.4316C66.8867 53.2383 66.2852 53.9424 65.4922 54.5439C64.6992 55.1318 63.749 55.5898 62.6416 55.918C61.5479 56.2461 60.3174 56.4102 58.9502 56.4102C56.9404 56.4102 55.2383 56.0547 53.8438 55.3438C52.4492 54.6191 51.3896 53.6963 50.665 52.5752C49.9541 51.4404 49.5986 50.2646 49.5986 49.0479H54.377C54.4316 49.9639 54.6846 50.6953 55.1357 51.2422C55.6006 51.7754 56.1748 52.165 56.8584 52.4111C57.5557 52.6436 58.2734 52.7598 59.0117 52.7598C59.9004 52.7598 60.6455 52.6436 61.2471 52.4111C61.8486 52.165 62.3066 51.8369 62.6211 51.4268C62.9355 51.0029 63.0928 50.5244 63.0928 49.9912Z" fill="#5A3EE3"/>
</svg>
