<svg width="88" height="88" viewBox="0 0 88 88" fill="none" xmlns="http://www.w3.org/2000/svg">
<rect width="88" height="88" rx="6" fill="#DDF8E9"/>
<path d="M34.8945 26.1406V56H29.7471V26.1406H34.8945ZM45.7021 38.5479V56H40.7598V33.8105H45.415L45.7021 38.5479ZM44.8203 44.085L43.2207 44.0645C43.2344 42.4922 43.4531 41.0498 43.877 39.7373C44.3145 38.4248 44.916 37.2969 45.6816 36.3535C46.4609 35.4102 47.3906 34.6855 48.4707 34.1797C49.5508 33.6602 50.7539 33.4004 52.0801 33.4004C53.1465 33.4004 54.1104 33.5508 54.9717 33.8516C55.8467 34.1387 56.5918 34.6104 57.207 35.2666C57.8359 35.9229 58.3145 36.7773 58.6426 37.8301C58.9707 38.8691 59.1348 40.1475 59.1348 41.665V56H54.1719V41.6445C54.1719 40.5781 54.0146 39.7373 53.7002 39.1221C53.3994 38.4932 52.9551 38.0488 52.3672 37.7891C51.793 37.5156 51.0752 37.3789 50.2139 37.3789C49.3662 37.3789 48.6074 37.5566 47.9375 37.9121C47.2676 38.2676 46.7002 38.7529 46.2354 39.3682C45.7842 39.9834 45.4355 40.6943 45.1895 41.501C44.9434 42.3076 44.8203 43.1689 44.8203 44.085Z" fill="#0E2B06"/>
</svg>
