<svg width="88" height="88" viewBox="0 0 88 88" fill="none" xmlns="http://www.w3.org/2000/svg">
<rect width="88" height="88" rx="6" fill="#F1E8FB"/>
<path d="M39.1602 26.1406V56H34.0127V26.1406H39.1602ZM50.0293 38.0352V56H45.0869V33.8105H49.8037L50.0293 38.0352ZM56.8174 33.667L56.7764 38.2607C56.4756 38.2061 56.1475 38.165 55.792 38.1377C55.4502 38.1104 55.1084 38.0967 54.7666 38.0967C53.9189 38.0967 53.1738 38.2197 52.5312 38.4658C51.8887 38.6982 51.3486 39.04 50.9111 39.4912C50.4873 39.9287 50.1592 40.4619 49.9268 41.0908C49.6943 41.7197 49.5576 42.4238 49.5166 43.2031L48.3887 43.2852C48.3887 41.8906 48.5254 40.5986 48.7988 39.4092C49.0723 38.2197 49.4824 37.1738 50.0293 36.2715C50.5898 35.3691 51.2871 34.665 52.1211 34.1592C52.9688 33.6533 53.9463 33.4004 55.0537 33.4004C55.3545 33.4004 55.6758 33.4277 56.0176 33.4824C56.373 33.5371 56.6396 33.5986 56.8174 33.667Z" fill="#5A3EE3"/>
</svg>
