<svg width="88" height="88" viewBox="0 0 88 88" fill="none" xmlns="http://www.w3.org/2000/svg">
<rect width="88" height="88" rx="6" fill="#FBE8EB"/>
<path d="M31.4902 26.1406V56H26.3428V26.1406H31.4902ZM49.4346 26.1406L37.335 40.5166L30.4443 47.8174L29.542 42.7109L34.4639 36.6406L43.1592 26.1406H49.4346ZM43.8975 56L34.0742 41.8496L37.6221 38.3428L50.0088 56H43.8975ZM57.3506 38.0352V56H52.4082V33.8105H57.125L57.3506 38.0352ZM64.1387 33.667L64.0977 38.2607C63.7969 38.2061 63.4688 38.165 63.1133 38.1377C62.7715 38.1104 62.4297 38.0967 62.0879 38.0967C61.2402 38.0967 60.4951 38.2197 59.8525 38.4658C59.21 38.6982 58.6699 39.04 58.2324 39.4912C57.8086 39.9287 57.4805 40.4619 57.248 41.0908C57.0156 41.7197 56.8789 42.4238 56.8379 43.2031L55.71 43.2852C55.71 41.8906 55.8467 40.5986 56.1201 39.4092C56.3936 38.2197 56.8037 37.1738 57.3506 36.2715C57.9111 35.3691 58.6084 34.665 59.4424 34.1592C60.29 33.6533 61.2676 33.4004 62.375 33.4004C62.6758 33.4004 62.9971 33.4277 63.3389 33.4824C63.6943 33.5371 63.9609 33.5986 64.1387 33.667Z" fill="#BC335F"/>
</svg>
