<svg width="88" height="88" viewBox="0 0 88 88" fill="none" xmlns="http://www.w3.org/2000/svg">
<rect width="88" height="88" rx="6" fill="#DEF7FE"/>
<path d="M49.0449 51.9189V56H34.0537V51.9189H49.0449ZM35.4893 26.1406V56H30.3418V26.1406H35.4893ZM57.8223 33.8105V56H52.8594V33.8105H57.8223ZM52.5312 27.9863C52.5312 27.2344 52.7773 26.6123 53.2695 26.1201C53.7754 25.6143 54.4727 25.3613 55.3613 25.3613C56.2363 25.3613 56.9268 25.6143 57.4326 26.1201C57.9385 26.6123 58.1914 27.2344 58.1914 27.9863C58.1914 28.7246 57.9385 29.3398 57.4326 29.832C56.9268 30.3242 56.2363 30.5703 55.3613 30.5703C54.4727 30.5703 53.7754 30.3242 53.2695 29.832C52.7773 29.3398 52.5312 28.7246 52.5312 27.9863Z" fill="#317389"/>
</svg>
