<svg width="88" height="88" viewBox="0 0 88 88" fill="none" xmlns="http://www.w3.org/2000/svg">
<rect width="88" height="88" rx="6" fill="#E7E7EA"/>
<path d="M19.7803 26.1406H24.374L33.0078 49.1709L41.6211 26.1406H46.2148L34.8125 56H31.1621L19.7803 26.1406ZM17.6885 26.1406H22.0566L22.8154 46.0742V56H17.6885V26.1406ZM43.9385 26.1406H48.3271V56H43.1797V46.0742L43.9385 26.1406ZM63.0107 52.4727C63.8174 52.4727 64.542 52.3154 65.1846 52.001C65.8408 51.6729 66.3672 51.2217 66.7637 50.6475C67.1738 50.0732 67.3994 49.4102 67.4404 48.6582H72.0957C72.0684 50.0938 71.6445 51.3994 70.8242 52.5752C70.0039 53.751 68.917 54.6875 67.5635 55.3848C66.21 56.0684 64.7129 56.4102 63.0723 56.4102C61.377 56.4102 59.9004 56.123 58.6426 55.5488C57.3848 54.9609 56.3389 54.1543 55.5049 53.1289C54.6709 52.1035 54.042 50.9209 53.6182 49.5811C53.208 48.2412 53.0029 46.8057 53.0029 45.2744V44.5566C53.0029 43.0254 53.208 41.5898 53.6182 40.25C54.042 38.8965 54.6709 37.707 55.5049 36.6816C56.3389 35.6562 57.3848 34.8564 58.6426 34.2822C59.9004 33.6943 61.3701 33.4004 63.0518 33.4004C64.8291 33.4004 66.3877 33.7559 67.7275 34.4668C69.0674 35.1641 70.1201 36.1416 70.8857 37.3994C71.665 38.6436 72.0684 40.0928 72.0957 41.7471H67.4404C67.3994 40.9268 67.1943 40.1885 66.8252 39.5322C66.4697 38.8623 65.9639 38.3291 65.3076 37.9326C64.665 37.5361 63.8926 37.3379 62.9902 37.3379C61.9922 37.3379 61.165 37.543 60.5088 37.9531C59.8525 38.3496 59.3398 38.8965 58.9707 39.5938C58.6016 40.2773 58.335 41.0498 58.1709 41.9111C58.0205 42.7588 57.9453 43.6406 57.9453 44.5566V45.2744C57.9453 46.1904 58.0205 47.0791 58.1709 47.9404C58.3213 48.8018 58.5811 49.5742 58.9502 50.2578C59.333 50.9277 59.8525 51.4678 60.5088 51.8779C61.165 52.2744 61.999 52.4727 63.0107 52.4727Z" fill="#3E374D"/>
</svg>
