<svg width="88" height="88" viewBox="0 0 88 88" fill="none" xmlns="http://www.w3.org/2000/svg">
<rect width="88" height="88" rx="6" fill="#FBE8E7"/>
<path d="M18.8369 26.1406H23.4307L32.0645 49.1709L40.6777 26.1406H45.2715L33.8691 56H30.2188L18.8369 26.1406ZM16.7451 26.1406H21.1133L21.8721 46.0742V56H16.7451V26.1406ZM42.9951 26.1406H47.3838V56H42.2363V46.0742L42.9951 26.1406ZM67.2148 33.8105H71.7061V55.3848C71.7061 57.3809 71.2822 59.0762 70.4346 60.4707C69.5869 61.8652 68.4043 62.9248 66.8867 63.6494C65.3691 64.3877 63.6123 64.7568 61.6162 64.7568C60.7686 64.7568 59.8252 64.6338 58.7861 64.3877C57.7607 64.1416 56.7627 63.7451 55.792 63.1982C54.835 62.665 54.0352 61.9609 53.3926 61.0859L55.71 58.1738C56.5029 59.1172 57.3779 59.8076 58.335 60.2451C59.292 60.6826 60.2969 60.9014 61.3496 60.9014C62.4844 60.9014 63.4482 60.6895 64.2412 60.2656C65.0479 59.8555 65.6699 59.2471 66.1074 58.4404C66.5449 57.6338 66.7637 56.6494 66.7637 55.4873V38.835L67.2148 33.8105ZM52.1416 45.1514V44.7207C52.1416 43.0391 52.3467 41.5078 52.7568 40.127C53.167 38.7324 53.7549 37.5361 54.5205 36.5381C55.2861 35.5264 56.2158 34.7539 57.3096 34.2207C58.4033 33.6738 59.6406 33.4004 61.0215 33.4004C62.457 33.4004 63.6807 33.6602 64.6924 34.1797C65.7178 34.6992 66.5723 35.4443 67.2559 36.415C67.9395 37.3721 68.4727 38.5205 68.8555 39.8604C69.252 41.1865 69.5459 42.6631 69.7373 44.29V45.6641C69.5596 47.25 69.2588 48.6992 68.835 50.0117C68.4111 51.3242 67.8506 52.459 67.1533 53.416C66.4561 54.373 65.5947 55.1113 64.5693 55.6309C63.5576 56.1504 62.3613 56.4102 60.9805 56.4102C59.627 56.4102 58.4033 56.1299 57.3096 55.5693C56.2295 55.0088 55.2998 54.2227 54.5205 53.2109C53.7549 52.1992 53.167 51.0098 52.7568 49.6426C52.3467 48.2617 52.1416 46.7646 52.1416 45.1514ZM57.084 44.7207V45.1514C57.084 46.1631 57.1797 47.1064 57.3711 47.9814C57.5762 48.8564 57.8838 49.6289 58.2939 50.2988C58.7178 50.9551 59.251 51.4746 59.8936 51.8574C60.5498 52.2266 61.3223 52.4111 62.2109 52.4111C63.373 52.4111 64.3232 52.165 65.0615 51.6729C65.8135 51.1807 66.3877 50.5176 66.7842 49.6836C67.1943 48.8359 67.4814 47.8926 67.6455 46.8535V43.1416C67.5635 42.335 67.3926 41.583 67.1328 40.8857C66.8867 40.1885 66.5518 39.5801 66.1279 39.0605C65.7041 38.5273 65.1709 38.1172 64.5283 37.8301C63.8857 37.5293 63.127 37.3789 62.252 37.3789C61.3633 37.3789 60.5908 37.5703 59.9346 37.9531C59.2783 38.3359 58.7383 38.8623 58.3145 39.5322C57.9043 40.2021 57.5967 40.9814 57.3916 41.8701C57.1865 42.7588 57.084 43.709 57.084 44.7207Z" fill="#C4292E"/>
</svg>
