<svg width="88" height="88" viewBox="0 0 88 88" fill="none" xmlns="http://www.w3.org/2000/svg">
<rect width="88" height="88" rx="6" fill="#F1E8FB"/>
<path d="M19.0625 26.1406H23.6562L32.29 49.1709L40.9033 26.1406H45.4971L34.0947 56H30.4443L19.0625 26.1406ZM16.9707 26.1406H21.3389L22.0977 46.0742V56H16.9707V26.1406ZM43.2207 26.1406H47.6094V56H42.4619V46.0742L43.2207 26.1406ZM58.1299 38.5479V56H53.1875V33.8105H57.8428L58.1299 38.5479ZM57.248 44.085L55.6484 44.0645C55.6621 42.4922 55.8809 41.0498 56.3047 39.7373C56.7422 38.4248 57.3438 37.2969 58.1094 36.3535C58.8887 35.4102 59.8184 34.6855 60.8984 34.1797C61.9785 33.6602 63.1816 33.4004 64.5078 33.4004C65.5742 33.4004 66.5381 33.5508 67.3994 33.8516C68.2744 34.1387 69.0195 34.6104 69.6348 35.2666C70.2637 35.9229 70.7422 36.7773 71.0703 37.8301C71.3984 38.8691 71.5625 40.1475 71.5625 41.665V56H66.5996V41.6445C66.5996 40.5781 66.4424 39.7373 66.1279 39.1221C65.8271 38.4932 65.3828 38.0488 64.7949 37.7891C64.2207 37.5156 63.5029 37.3789 62.6416 37.3789C61.7939 37.3789 61.0352 37.5566 60.3652 37.9121C59.6953 38.2676 59.1279 38.7529 58.6631 39.3682C58.2119 39.9834 57.8633 40.6943 57.6172 41.501C57.3711 42.3076 57.248 43.1689 57.248 44.085Z" fill="#5A3EE3"/>
</svg>
