<svg width="88" height="88" viewBox="0 0 88 88" fill="none" xmlns="http://www.w3.org/2000/svg">
<rect width="88" height="88" rx="6" fill="#F1E8FB"/>
<path d="M18.8369 26.1406H23.4307L32.0645 49.1709L40.6777 26.1406H45.2715L33.8691 56H30.2188L18.8369 26.1406ZM16.7451 26.1406H21.1133L21.8721 46.0742V56H16.7451V26.1406ZM42.9951 26.1406H47.3838V56H42.2363V46.0742L42.9951 26.1406ZM52.0596 45.1514V44.6797C52.0596 43.0801 52.292 41.5967 52.7568 40.2295C53.2217 38.8486 53.8916 37.6523 54.7666 36.6406C55.6553 35.6152 56.7354 34.8223 58.0068 34.2617C59.292 33.6875 60.7412 33.4004 62.3545 33.4004C63.9814 33.4004 65.4307 33.6875 66.7021 34.2617C67.9873 34.8223 69.0742 35.6152 69.9629 36.6406C70.8516 37.6523 71.5283 38.8486 71.9932 40.2295C72.458 41.5967 72.6904 43.0801 72.6904 44.6797V45.1514C72.6904 46.751 72.458 48.2344 71.9932 49.6016C71.5283 50.9688 70.8516 52.165 69.9629 53.1904C69.0742 54.2021 67.9941 54.9951 66.7227 55.5693C65.4512 56.1299 64.0088 56.4102 62.3955 56.4102C60.7686 56.4102 59.3125 56.1299 58.0273 55.5693C56.7559 54.9951 55.6758 54.2021 54.7871 53.1904C53.8984 52.165 53.2217 50.9688 52.7568 49.6016C52.292 48.2344 52.0596 46.751 52.0596 45.1514ZM57.002 44.6797V45.1514C57.002 46.1494 57.1045 47.0928 57.3096 47.9814C57.5146 48.8701 57.8359 49.6494 58.2734 50.3193C58.7109 50.9893 59.2715 51.5156 59.9551 51.8984C60.6387 52.2812 61.4521 52.4727 62.3955 52.4727C63.3115 52.4727 64.1045 52.2812 64.7744 51.8984C65.458 51.5156 66.0186 50.9893 66.4561 50.3193C66.8936 49.6494 67.2148 48.8701 67.4199 47.9814C67.6387 47.0928 67.748 46.1494 67.748 45.1514V44.6797C67.748 43.6953 67.6387 42.7656 67.4199 41.8906C67.2148 41.002 66.8867 40.2158 66.4355 39.5322C65.998 38.8486 65.4375 38.3154 64.7539 37.9326C64.084 37.5361 63.2842 37.3379 62.3545 37.3379C61.4248 37.3379 60.6182 37.5361 59.9346 37.9326C59.2646 38.3154 58.7109 38.8486 58.2734 39.5322C57.8359 40.2158 57.5146 41.002 57.3096 41.8906C57.1045 42.7656 57.002 43.6953 57.002 44.6797Z" fill="#5A3EE3"/>
</svg>
