<svg width="88" height="88" viewBox="0 0 88 88" fill="none" xmlns="http://www.w3.org/2000/svg">
<rect width="88" height="88" rx="6" fill="#E7E7EA"/>
<path d="M23.7588 26.1406H28.3525L36.9863 49.1709L45.5996 26.1406H50.1934L38.791 56H35.1406L23.7588 26.1406ZM21.667 26.1406H26.0352L26.7939 46.0742V56H21.667V26.1406ZM47.917 26.1406H52.3057V56H47.1582V46.0742L47.917 26.1406ZM68.0967 33.8105V37.4199H55.5869V33.8105H68.0967ZM59.1963 28.376H64.1387V49.8682C64.1387 50.5518 64.2344 51.0781 64.4258 51.4473C64.6309 51.8027 64.9111 52.042 65.2666 52.165C65.6221 52.2881 66.0391 52.3496 66.5176 52.3496C66.8594 52.3496 67.1875 52.3291 67.502 52.2881C67.8164 52.2471 68.0693 52.2061 68.2607 52.165L68.2812 55.9385C67.8711 56.0615 67.3926 56.1709 66.8457 56.2666C66.3125 56.3623 65.6973 56.4102 65 56.4102C63.8652 56.4102 62.8604 56.2119 61.9854 55.8154C61.1104 55.4053 60.4268 54.7422 59.9346 53.8262C59.4424 52.9102 59.1963 51.6934 59.1963 50.1758V28.376Z" fill="#3E374D"/>
</svg>
