<svg width="88" height="88" viewBox="0 0 88 88" fill="none" xmlns="http://www.w3.org/2000/svg">
<rect width="88" height="88" rx="6" fill="#DEF7FE"/>
<path d="M44.4922 26.1406V56H39.3447L25.9531 34.6104V56H20.8057V26.1406H25.9531L39.3857 47.5713V26.1406H44.4922ZM62.6416 51.5498V40.9678C62.6416 40.1748 62.498 39.4912 62.2109 38.917C61.9238 38.3428 61.4863 37.8984 60.8984 37.584C60.3242 37.2695 59.5996 37.1123 58.7246 37.1123C57.918 37.1123 57.2207 37.249 56.6328 37.5225C56.0449 37.7959 55.5869 38.165 55.2588 38.6299C54.9307 39.0947 54.7666 39.6211 54.7666 40.209H49.8447C49.8447 39.334 50.0566 38.4863 50.4805 37.666C50.9043 36.8457 51.5195 36.1143 52.3262 35.4717C53.1328 34.8291 54.0967 34.3232 55.2178 33.9541C56.3389 33.585 57.5967 33.4004 58.9912 33.4004C60.6592 33.4004 62.1357 33.6807 63.4209 34.2412C64.7197 34.8018 65.7383 35.6494 66.4766 36.7842C67.2285 37.9053 67.6045 39.3135 67.6045 41.0088V50.873C67.6045 51.8848 67.6729 52.7939 67.8096 53.6006C67.96 54.3936 68.1719 55.084 68.4453 55.6719V56H63.3799C63.1475 55.4668 62.9629 54.79 62.8262 53.9697C62.7031 53.1357 62.6416 52.3291 62.6416 51.5498ZM63.3594 42.5059L63.4004 45.5615H59.8525C58.9365 45.5615 58.1299 45.6504 57.4326 45.8281C56.7354 45.9922 56.1543 46.2383 55.6895 46.5664C55.2246 46.8945 54.876 47.291 54.6436 47.7559C54.4111 48.2207 54.2949 48.7471 54.2949 49.335C54.2949 49.9229 54.4316 50.4629 54.7051 50.9551C54.9785 51.4336 55.375 51.8096 55.8945 52.083C56.4277 52.3564 57.0703 52.4932 57.8223 52.4932C58.834 52.4932 59.7158 52.2881 60.4678 51.8779C61.2334 51.4541 61.835 50.9414 62.2725 50.3398C62.71 49.7246 62.9424 49.1436 62.9697 48.5967L64.5693 50.791C64.4053 51.3516 64.125 51.9531 63.7285 52.5957C63.332 53.2383 62.8125 53.8535 62.1699 54.4414C61.541 55.0156 60.7822 55.4873 59.8936 55.8564C59.0186 56.2256 58.0068 56.4102 56.8584 56.4102C55.4092 56.4102 54.1172 56.123 52.9824 55.5488C51.8477 54.9609 50.959 54.1748 50.3164 53.1904C49.6738 52.1924 49.3525 51.0645 49.3525 49.8066C49.3525 48.6309 49.5713 47.5918 50.0088 46.6895C50.46 45.7734 51.1162 45.0078 51.9775 44.3926C52.8525 43.7773 53.9189 43.3125 55.1768 42.998C56.4346 42.6699 57.8701 42.5059 59.4834 42.5059H63.3594Z" fill="#317389"/>
</svg>
