<svg width="88" height="88" viewBox="0 0 88 88" fill="none" xmlns="http://www.w3.org/2000/svg">
<rect width="88" height="88" rx="6" fill="#F1E8FB"/>
<path d="M44 26.1406V56H38.8525L25.4609 34.6104V56H20.3135V26.1406H25.4609L38.8936 47.5713V26.1406H44ZM49.6602 24.5H54.6025V51.2627L54.1309 56H49.6602V24.5ZM69.0811 44.7002V45.1309C69.0811 46.7715 68.8965 48.2822 68.5273 49.6631C68.1719 51.0303 67.625 52.2197 66.8867 53.2314C66.1621 54.2432 65.2598 55.0293 64.1797 55.5898C63.1133 56.1367 61.876 56.4102 60.4678 56.4102C59.0869 56.4102 57.8838 56.1504 56.8584 55.6309C55.833 55.1113 54.9717 54.373 54.2744 53.416C53.5908 52.459 53.0371 51.3174 52.6133 49.9912C52.1895 48.665 51.8887 47.2021 51.7109 45.6025V44.2285C51.8887 42.6152 52.1895 41.1523 52.6133 39.8398C53.0371 38.5137 53.5908 37.3721 54.2744 36.415C54.9717 35.4443 55.8262 34.6992 56.8379 34.1797C57.8633 33.6602 59.0596 33.4004 60.4268 33.4004C61.8486 33.4004 63.0996 33.6738 64.1797 34.2207C65.2734 34.7676 66.1826 35.5469 66.9072 36.5586C67.6318 37.5566 68.1719 38.7461 68.5273 40.127C68.8965 41.5078 69.0811 43.0322 69.0811 44.7002ZM64.1387 45.1309V44.7002C64.1387 43.7021 64.0566 42.7656 63.8926 41.8906C63.7285 41.002 63.4551 40.2227 63.0723 39.5527C62.7031 38.8828 62.1973 38.3564 61.5547 37.9736C60.9258 37.5771 60.1396 37.3789 59.1963 37.3789C58.3213 37.3789 57.5693 37.5293 56.9404 37.8301C56.3115 38.1309 55.7852 38.541 55.3613 39.0605C54.9375 39.5801 54.6025 40.1816 54.3564 40.8652C54.124 41.5488 53.9668 42.2871 53.8848 43.0801V46.792C54.0078 47.8174 54.2676 48.7607 54.6641 49.6221C55.0742 50.4697 55.6484 51.1533 56.3867 51.6729C57.125 52.1787 58.0752 52.4316 59.2373 52.4316C60.1533 52.4316 60.9258 52.2471 61.5547 51.8779C62.1836 51.5088 62.6826 50.9961 63.0518 50.3398C63.4346 49.6699 63.708 48.8906 63.8721 48.002C64.0498 47.1133 64.1387 46.1562 64.1387 45.1309Z" fill="#5A3EE3"/>
</svg>
