<svg width="88" height="88" viewBox="0 0 88 88" fill="none" xmlns="http://www.w3.org/2000/svg">
<rect width="88" height="88" rx="6" fill="#FBE8EB"/>
<path d="M44.5537 26.1406V56H39.4062L26.0146 34.6104V56H20.8672V26.1406H26.0146L39.4473 47.5713V26.1406H44.5537ZM59.9756 56.4102C58.335 56.4102 56.8516 56.1436 55.5254 55.6104C54.2129 55.0635 53.0918 54.3047 52.1621 53.334C51.2461 52.3633 50.542 51.2217 50.0498 49.9092C49.5576 48.5967 49.3115 47.1816 49.3115 45.6641V44.8438C49.3115 43.1074 49.5645 41.5352 50.0703 40.127C50.5762 38.7188 51.2803 37.5156 52.1826 36.5176C53.085 35.5059 54.1514 34.7334 55.3818 34.2002C56.6123 33.667 57.9453 33.4004 59.3809 33.4004C60.9668 33.4004 62.3545 33.667 63.5439 34.2002C64.7334 34.7334 65.7178 35.4854 66.4971 36.4561C67.29 37.4131 67.8779 38.5547 68.2607 39.8809C68.6572 41.207 68.8555 42.6699 68.8555 44.2695V46.3818H51.7109V42.834H63.9746V42.4443C63.9473 41.5557 63.7695 40.7217 63.4414 39.9424C63.127 39.1631 62.6416 38.5342 61.9854 38.0557C61.3291 37.5771 60.4541 37.3379 59.3604 37.3379C58.54 37.3379 57.8086 37.5156 57.166 37.8711C56.5371 38.2129 56.0107 38.7119 55.5869 39.3682C55.1631 40.0244 54.835 40.8174 54.6025 41.7471C54.3838 42.6631 54.2744 43.6953 54.2744 44.8438V45.6641C54.2744 46.6348 54.4043 47.5371 54.6641 48.3711C54.9375 49.1914 55.334 49.9092 55.8535 50.5244C56.373 51.1396 57.002 51.625 57.7402 51.9805C58.4785 52.3223 59.3193 52.4932 60.2627 52.4932C61.4521 52.4932 62.5117 52.2539 63.4414 51.7754C64.3711 51.2969 65.1777 50.6201 65.8613 49.7451L68.4658 52.2676C67.9873 52.9648 67.3652 53.6348 66.5996 54.2773C65.834 54.9062 64.8975 55.4189 63.79 55.8154C62.6963 56.2119 61.4248 56.4102 59.9756 56.4102Z" fill="#BC335F"/>
</svg>
