<svg width="88" height="88" viewBox="0 0 88 88" fill="none" xmlns="http://www.w3.org/2000/svg">
<rect width="88" height="88" rx="6" fill="#E7E7EA"/>
<path d="M44.1436 26.1406V56H38.9961L25.6045 34.6104V56H20.457V26.1406H25.6045L39.0371 47.5713V26.1406H44.1436ZM54.6641 24.5V56H49.7422V24.5H54.6641ZM53.8027 44.085L52.2031 44.0645C52.2168 42.5332 52.4287 41.1182 52.8389 39.8193C53.2627 38.5205 53.8506 37.3926 54.6025 36.4355C55.3682 35.4648 56.2842 34.7197 57.3506 34.2002C58.417 33.667 59.5996 33.4004 60.8984 33.4004C61.9922 33.4004 62.9766 33.5508 63.8516 33.8516C64.7402 34.1523 65.5059 34.6377 66.1484 35.3076C66.791 35.9639 67.2764 36.8252 67.6045 37.8916C67.9463 38.9443 68.1172 40.2295 68.1172 41.7471V56H63.1543V41.7061C63.1543 40.6396 62.9971 39.792 62.6826 39.1631C62.3818 38.5342 61.9375 38.083 61.3496 37.8096C60.7617 37.5225 60.0439 37.3789 59.1963 37.3789C58.3076 37.3789 57.5215 37.5566 56.8379 37.9121C56.168 38.2676 55.6074 38.7529 55.1562 39.3682C54.7051 39.9834 54.3633 40.6943 54.1309 41.501C53.9121 42.3076 53.8027 43.1689 53.8027 44.085Z" fill="#3E374D"/>
</svg>
