<svg width="88" height="88" viewBox="0 0 88 88" fill="none" xmlns="http://www.w3.org/2000/svg">
<rect width="88" height="88" rx="6" fill="#F1E8FB"/>
<path d="M50.46 26.1406V56H45.3125L31.9209 34.6104V56H26.7734V26.1406H31.9209L45.3535 47.5713V26.1406H50.46ZM61.3906 33.8105V56H56.4277V33.8105H61.3906ZM56.0996 27.9863C56.0996 27.2344 56.3457 26.6123 56.8379 26.1201C57.3438 25.6143 58.041 25.3613 58.9297 25.3613C59.8047 25.3613 60.4951 25.6143 61.001 26.1201C61.5068 26.6123 61.7598 27.2344 61.7598 27.9863C61.7598 28.7246 61.5068 29.3398 61.001 29.832C60.4951 30.3242 59.8047 30.5703 58.9297 30.5703C58.041 30.5703 57.3438 30.3242 56.8379 29.832C56.3457 29.3398 56.0996 28.7246 56.0996 27.9863Z" fill="#5A3EE3"/>
</svg>
