<svg width="88" height="88" viewBox="0 0 88 88" fill="none" xmlns="http://www.w3.org/2000/svg">
<rect width="88" height="88" rx="6" fill="#E4EEFD"/>
<path d="M56.3662 40.25V41.8906C56.3662 44.1465 56.0723 46.1699 55.4844 47.9609C54.8965 49.752 54.0557 51.2764 52.9619 52.5342C51.8818 53.792 50.583 54.7559 49.0654 55.4258C47.5479 56.082 45.8662 56.4102 44.0205 56.4102C42.1885 56.4102 40.5137 56.082 38.9961 55.4258C37.4922 54.7559 36.1865 53.792 35.0791 52.5342C33.9717 51.2764 33.1104 49.752 32.4951 47.9609C31.8936 46.1699 31.5928 44.1465 31.5928 41.8906V40.25C31.5928 37.9941 31.8936 35.9775 32.4951 34.2002C33.0967 32.4092 33.9443 30.8848 35.0381 29.627C36.1455 28.3555 37.4512 27.3916 38.9551 26.7354C40.4727 26.0654 42.1475 25.7305 43.9795 25.7305C45.8252 25.7305 47.5068 26.0654 49.0244 26.7354C50.542 27.3916 51.8477 28.3555 52.9414 29.627C54.0352 30.8848 54.876 32.4092 55.4639 34.2002C56.0654 35.9775 56.3662 37.9941 56.3662 40.25ZM51.2188 41.8906V40.209C51.2188 38.541 51.0547 37.0713 50.7266 35.7998C50.4121 34.5146 49.9404 33.4414 49.3115 32.5801C48.6963 31.7051 47.9375 31.0488 47.0352 30.6113C46.1328 30.1602 45.1143 29.9346 43.9795 29.9346C42.8447 29.9346 41.833 30.1602 40.9443 30.6113C40.0557 31.0488 39.2969 31.7051 38.668 32.5801C38.0527 33.4414 37.5811 34.5146 37.2529 35.7998C36.9248 37.0713 36.7607 38.541 36.7607 40.209V41.8906C36.7607 43.5586 36.9248 45.0352 37.2529 46.3203C37.5811 47.6055 38.0596 48.6924 38.6885 49.5811C39.3311 50.4561 40.0967 51.1191 40.9854 51.5703C41.874 52.0078 42.8857 52.2266 44.0205 52.2266C45.1689 52.2266 46.1875 52.0078 47.0762 51.5703C47.9648 51.1191 48.7168 50.4561 49.332 49.5811C49.9473 48.6924 50.4121 47.6055 50.7266 46.3203C51.0547 45.0352 51.2188 43.5586 51.2188 41.8906Z" fill="#2163E7"/>
</svg>
