<svg width="88" height="88" viewBox="0 0 88 88" fill="none" xmlns="http://www.w3.org/2000/svg">
<rect width="88" height="88" rx="6" fill="#E7E7EA"/>
<path d="M44.4512 40.25V41.8906C44.4512 44.1465 44.1572 46.1699 43.5693 47.9609C42.9814 49.752 42.1406 51.2764 41.0469 52.5342C39.9668 53.792 38.668 54.7559 37.1504 55.4258C35.6328 56.082 33.9512 56.4102 32.1055 56.4102C30.2734 56.4102 28.5986 56.082 27.0811 55.4258C25.5771 54.7559 24.2715 53.792 23.1641 52.5342C22.0566 51.2764 21.1953 49.752 20.5801 47.9609C19.9785 46.1699 19.6777 44.1465 19.6777 41.8906V40.25C19.6777 37.9941 19.9785 35.9775 20.5801 34.2002C21.1816 32.4092 22.0293 30.8848 23.123 29.627C24.2305 28.3555 25.5361 27.3916 27.04 26.7354C28.5576 26.0654 30.2324 25.7305 32.0645 25.7305C33.9102 25.7305 35.5918 26.0654 37.1094 26.7354C38.627 27.3916 39.9326 28.3555 41.0264 29.627C42.1201 30.8848 42.9609 32.4092 43.5488 34.2002C44.1504 35.9775 44.4512 37.9941 44.4512 40.25ZM39.3037 41.8906V40.209C39.3037 38.541 39.1396 37.0713 38.8115 35.7998C38.4971 34.5146 38.0254 33.4414 37.3965 32.5801C36.7812 31.7051 36.0225 31.0488 35.1201 30.6113C34.2178 30.1602 33.1992 29.9346 32.0645 29.9346C30.9297 29.9346 29.918 30.1602 29.0293 30.6113C28.1406 31.0488 27.3818 31.7051 26.7529 32.5801C26.1377 33.4414 25.666 34.5146 25.3379 35.7998C25.0098 37.0713 24.8457 38.541 24.8457 40.209V41.8906C24.8457 43.5586 25.0098 45.0352 25.3379 46.3203C25.666 47.6055 26.1445 48.6924 26.7734 49.5811C27.416 50.4561 28.1816 51.1191 29.0703 51.5703C29.959 52.0078 30.9707 52.2266 32.1055 52.2266C33.2539 52.2266 34.2725 52.0078 35.1611 51.5703C36.0498 51.1191 36.8018 50.4561 37.417 49.5811C38.0322 48.6924 38.4971 47.6055 38.8115 46.3203C39.1396 45.0352 39.3037 43.5586 39.3037 41.8906ZM63.3184 33.8105H67.8096V55.3848C67.8096 57.3809 67.3857 59.0762 66.5381 60.4707C65.6904 61.8652 64.5078 62.9248 62.9902 63.6494C61.4727 64.3877 59.7158 64.7568 57.7197 64.7568C56.8721 64.7568 55.9287 64.6338 54.8896 64.3877C53.8643 64.1416 52.8662 63.7451 51.8955 63.1982C50.9385 62.665 50.1387 61.9609 49.4961 61.0859L51.8135 58.1738C52.6064 59.1172 53.4814 59.8076 54.4385 60.2451C55.3955 60.6826 56.4004 60.9014 57.4531 60.9014C58.5879 60.9014 59.5518 60.6895 60.3447 60.2656C61.1514 59.8555 61.7734 59.2471 62.2109 58.4404C62.6484 57.6338 62.8672 56.6494 62.8672 55.4873V38.835L63.3184 33.8105ZM48.2451 45.1514V44.7207C48.2451 43.0391 48.4502 41.5078 48.8604 40.127C49.2705 38.7324 49.8584 37.5361 50.624 36.5381C51.3896 35.5264 52.3193 34.7539 53.4131 34.2207C54.5068 33.6738 55.7441 33.4004 57.125 33.4004C58.5605 33.4004 59.7842 33.6602 60.7959 34.1797C61.8213 34.6992 62.6758 35.4443 63.3594 36.415C64.043 37.3721 64.5762 38.5205 64.959 39.8604C65.3555 41.1865 65.6494 42.6631 65.8408 44.29V45.6641C65.6631 47.25 65.3623 48.6992 64.9385 50.0117C64.5146 51.3242 63.9541 52.459 63.2568 53.416C62.5596 54.373 61.6982 55.1113 60.6729 55.6309C59.6611 56.1504 58.4648 56.4102 57.084 56.4102C55.7305 56.4102 54.5068 56.1299 53.4131 55.5693C52.333 55.0088 51.4033 54.2227 50.624 53.2109C49.8584 52.1992 49.2705 51.0098 48.8604 49.6426C48.4502 48.2617 48.2451 46.7646 48.2451 45.1514ZM53.1875 44.7207V45.1514C53.1875 46.1631 53.2832 47.1064 53.4746 47.9814C53.6797 48.8564 53.9873 49.6289 54.3975 50.2988C54.8213 50.9551 55.3545 51.4746 55.9971 51.8574C56.6533 52.2266 57.4258 52.4111 58.3145 52.4111C59.4766 52.4111 60.4268 52.165 61.165 51.6729C61.917 51.1807 62.4912 50.5176 62.8877 49.6836C63.2979 48.8359 63.585 47.8926 63.749 46.8535V43.1416C63.667 42.335 63.4961 41.583 63.2363 40.8857C62.9902 40.1885 62.6553 39.5801 62.2314 39.0605C61.8076 38.5273 61.2744 38.1172 60.6318 37.8301C59.9893 37.5293 59.2305 37.3789 58.3555 37.3789C57.4668 37.3789 56.6943 37.5703 56.0381 37.9531C55.3818 38.3359 54.8418 38.8623 54.418 39.5322C54.0078 40.2021 53.7002 40.9814 53.4951 41.8701C53.29 42.7588 53.1875 43.709 53.1875 44.7207Z" fill="#3E374D"/>
</svg>
