<svg width="88" height="88" viewBox="0 0 88 88" fill="none" xmlns="http://www.w3.org/2000/svg">
<rect width="88" height="88" rx="6" fill="#F1E8FB"/>
<path d="M45.5586 40.25V41.8906C45.5586 44.1465 45.2646 46.1699 44.6768 47.9609C44.0889 49.752 43.248 51.2764 42.1543 52.5342C41.0742 53.792 39.7754 54.7559 38.2578 55.4258C36.7402 56.082 35.0586 56.4102 33.2129 56.4102C31.3809 56.4102 29.7061 56.082 28.1885 55.4258C26.6846 54.7559 25.3789 53.792 24.2715 52.5342C23.1641 51.2764 22.3027 49.752 21.6875 47.9609C21.0859 46.1699 20.7852 44.1465 20.7852 41.8906V40.25C20.7852 37.9941 21.0859 35.9775 21.6875 34.2002C22.2891 32.4092 23.1367 30.8848 24.2305 29.627C25.3379 28.3555 26.6436 27.3916 28.1475 26.7354C29.665 26.0654 31.3398 25.7305 33.1719 25.7305C35.0176 25.7305 36.6992 26.0654 38.2168 26.7354C39.7344 27.3916 41.04 28.3555 42.1338 29.627C43.2275 30.8848 44.0684 32.4092 44.6562 34.2002C45.2578 35.9775 45.5586 37.9941 45.5586 40.25ZM40.4111 41.8906V40.209C40.4111 38.541 40.2471 37.0713 39.9189 35.7998C39.6045 34.5146 39.1328 33.4414 38.5039 32.5801C37.8887 31.7051 37.1299 31.0488 36.2275 30.6113C35.3252 30.1602 34.3066 29.9346 33.1719 29.9346C32.0371 29.9346 31.0254 30.1602 30.1367 30.6113C29.248 31.0488 28.4893 31.7051 27.8604 32.5801C27.2451 33.4414 26.7734 34.5146 26.4453 35.7998C26.1172 37.0713 25.9531 38.541 25.9531 40.209V41.8906C25.9531 43.5586 26.1172 45.0352 26.4453 46.3203C26.7734 47.6055 27.252 48.6924 27.8809 49.5811C28.5234 50.4561 29.2891 51.1191 30.1777 51.5703C31.0664 52.0078 32.0781 52.2266 33.2129 52.2266C34.3613 52.2266 35.3799 52.0078 36.2686 51.5703C37.1572 51.1191 37.9092 50.4561 38.5244 49.5811C39.1396 48.6924 39.6045 47.6055 39.9189 46.3203C40.2471 45.0352 40.4111 43.5586 40.4111 41.8906ZM62.6621 49.9912C62.6621 49.499 62.5391 49.0547 62.293 48.6582C62.0469 48.248 61.5752 47.8789 60.8779 47.5508C60.1943 47.2227 59.1826 46.9219 57.8428 46.6484C56.667 46.3887 55.5869 46.0811 54.6025 45.7256C53.6318 45.3564 52.7979 44.9121 52.1006 44.3926C51.4033 43.873 50.8633 43.2578 50.4805 42.5469C50.0977 41.8359 49.9062 41.0156 49.9062 40.0859C49.9062 39.1836 50.1045 38.3291 50.501 37.5225C50.8975 36.7158 51.4648 36.0049 52.2031 35.3896C52.9414 34.7744 53.8369 34.2891 54.8896 33.9336C55.9561 33.5781 57.1455 33.4004 58.458 33.4004C60.3174 33.4004 61.9102 33.7148 63.2363 34.3438C64.5762 34.959 65.6016 35.7998 66.3125 36.8662C67.0234 37.9189 67.3789 39.1084 67.3789 40.4346H62.4365C62.4365 39.8467 62.2861 39.2998 61.9854 38.7939C61.6982 38.2744 61.2607 37.8574 60.6729 37.543C60.085 37.2148 59.3467 37.0508 58.458 37.0508C57.6104 37.0508 56.9062 37.1875 56.3457 37.4609C55.7988 37.7207 55.3887 38.0625 55.1152 38.4863C54.8555 38.9102 54.7256 39.375 54.7256 39.8809C54.7256 40.25 54.7939 40.585 54.9307 40.8857C55.0811 41.1729 55.3271 41.4395 55.6689 41.6855C56.0107 41.918 56.4756 42.1367 57.0635 42.3418C57.665 42.5469 58.417 42.7451 59.3193 42.9365C61.0146 43.292 62.4707 43.75 63.6875 44.3105C64.918 44.8574 65.8613 45.5684 66.5176 46.4434C67.1738 47.3047 67.502 48.3984 67.502 49.7246C67.502 50.709 67.29 51.6113 66.8662 52.4316C66.4561 53.2383 65.8545 53.9424 65.0615 54.5439C64.2686 55.1318 63.3184 55.5898 62.2109 55.918C61.1172 56.2461 59.8867 56.4102 58.5195 56.4102C56.5098 56.4102 54.8076 56.0547 53.4131 55.3438C52.0186 54.6191 50.959 53.6963 50.2344 52.5752C49.5234 51.4404 49.168 50.2646 49.168 49.0479H53.9463C54.001 49.9639 54.2539 50.6953 54.7051 51.2422C55.1699 51.7754 55.7441 52.165 56.4277 52.4111C57.125 52.6436 57.8428 52.7598 58.5811 52.7598C59.4697 52.7598 60.2148 52.6436 60.8164 52.4111C61.418 52.165 61.876 51.8369 62.1904 51.4268C62.5049 51.0029 62.6621 50.5244 62.6621 49.9912Z" fill="#5A3EE3"/>
</svg>
