<svg width="88" height="88" viewBox="0 0 88 88" fill="none" xmlns="http://www.w3.org/2000/svg">
<rect width="88" height="88" rx="6" fill="#E4EEFD"/>
<path d="M44.9639 44.8643H37.1914V40.7832H44.9639C46.3174 40.7832 47.4111 40.5645 48.2451 40.127C49.0791 39.6895 49.6875 39.0879 50.0703 38.3223C50.4668 37.543 50.665 36.6543 50.665 35.6562C50.665 34.7129 50.4668 33.8311 50.0703 33.0107C49.6875 32.1768 49.0791 31.5068 48.2451 31.001C47.4111 30.4951 46.3174 30.2422 44.9639 30.2422H38.7705V56H33.623V26.1406H44.9639C47.2744 26.1406 49.2363 26.5508 50.8496 27.3711C52.4766 28.1777 53.7139 29.2988 54.5615 30.7344C55.4092 32.1562 55.833 33.7832 55.833 35.6152C55.833 37.543 55.4092 39.1973 54.5615 40.5781C53.7139 41.959 52.4766 43.0186 50.8496 43.7568C49.2363 44.4951 47.2744 44.8643 44.9639 44.8643Z" fill="#2163E7"/>
</svg>
