<svg width="88" height="88" viewBox="0 0 88 88" fill="none" xmlns="http://www.w3.org/2000/svg">
<rect width="88" height="88" rx="6" fill="#DDF8E9"/>
<path d="M33.1514 44.8643H25.3789V40.7832H33.1514C34.5049 40.7832 35.5986 40.5645 36.4326 40.127C37.2666 39.6895 37.875 39.0879 38.2578 38.3223C38.6543 37.543 38.8525 36.6543 38.8525 35.6562C38.8525 34.7129 38.6543 33.8311 38.2578 33.0107C37.875 32.1768 37.2666 31.5068 36.4326 31.001C35.5986 30.4951 34.5049 30.2422 33.1514 30.2422H26.958V56H21.8105V26.1406H33.1514C35.4619 26.1406 37.4238 26.5508 39.0371 27.3711C40.6641 28.1777 41.9014 29.2988 42.749 30.7344C43.5967 32.1562 44.0205 33.7832 44.0205 35.6152C44.0205 37.543 43.5967 39.1973 42.749 40.5781C41.9014 41.959 40.6641 43.0186 39.0371 43.7568C37.4238 44.4951 35.4619 44.8643 33.1514 44.8643ZM48.1631 24.5H53.1055V51.2627L52.6338 56H48.1631V24.5ZM67.584 44.7002V45.1309C67.584 46.7715 67.3994 48.2822 67.0303 49.6631C66.6748 51.0303 66.1279 52.2197 65.3896 53.2314C64.665 54.2432 63.7627 55.0293 62.6826 55.5898C61.6162 56.1367 60.3789 56.4102 58.9707 56.4102C57.5898 56.4102 56.3867 56.1504 55.3613 55.6309C54.3359 55.1113 53.4746 54.373 52.7773 53.416C52.0938 52.459 51.54 51.3174 51.1162 49.9912C50.6924 48.665 50.3916 47.2021 50.2139 45.6025V44.2285C50.3916 42.6152 50.6924 41.1523 51.1162 39.8398C51.54 38.5137 52.0938 37.3721 52.7773 36.415C53.4746 35.4443 54.3291 34.6992 55.3408 34.1797C56.3662 33.6602 57.5625 33.4004 58.9297 33.4004C60.3516 33.4004 61.6025 33.6738 62.6826 34.2207C63.7764 34.7676 64.6855 35.5469 65.4102 36.5586C66.1348 37.5566 66.6748 38.7461 67.0303 40.127C67.3994 41.5078 67.584 43.0322 67.584 44.7002ZM62.6416 45.1309V44.7002C62.6416 43.7021 62.5596 42.7656 62.3955 41.8906C62.2314 41.002 61.958 40.2227 61.5752 39.5527C61.2061 38.8828 60.7002 38.3564 60.0576 37.9736C59.4287 37.5771 58.6426 37.3789 57.6992 37.3789C56.8242 37.3789 56.0723 37.5293 55.4434 37.8301C54.8145 38.1309 54.2881 38.541 53.8643 39.0605C53.4404 39.5801 53.1055 40.1816 52.8594 40.8652C52.627 41.5488 52.4697 42.2871 52.3877 43.0801V46.792C52.5107 47.8174 52.7705 48.7607 53.167 49.6221C53.5771 50.4697 54.1514 51.1533 54.8896 51.6729C55.6279 52.1787 56.5781 52.4316 57.7402 52.4316C58.6562 52.4316 59.4287 52.2471 60.0576 51.8779C60.6865 51.5088 61.1855 50.9961 61.5547 50.3398C61.9375 49.6699 62.2109 48.8906 62.375 48.002C62.5527 47.1133 62.6416 46.1562 62.6416 45.1309Z" fill="#0E2B06"/>
</svg>
