<svg width="88" height="88" viewBox="0 0 88 88" fill="none" xmlns="http://www.w3.org/2000/svg">
<rect width="88" height="88" rx="6" fill="#F1E8FB"/>
<path d="M33.2744 44.8643H25.502V40.7832H33.2744C34.6279 40.7832 35.7217 40.5645 36.5557 40.127C37.3896 39.6895 37.998 39.0879 38.3809 38.3223C38.7773 37.543 38.9756 36.6543 38.9756 35.6562C38.9756 34.7129 38.7773 33.8311 38.3809 33.0107C37.998 32.1768 37.3896 31.5068 36.5557 31.001C35.7217 30.4951 34.6279 30.2422 33.2744 30.2422H27.0811V56H21.9336V26.1406H33.2744C35.585 26.1406 37.5469 26.5508 39.1602 27.3711C40.7871 28.1777 42.0244 29.2988 42.8721 30.7344C43.7197 32.1562 44.1436 33.7832 44.1436 35.6152C44.1436 37.543 43.7197 39.1973 42.8721 40.5781C42.0244 41.959 40.7871 43.0186 39.1602 43.7568C37.5469 44.4951 35.585 44.8643 33.2744 44.8643ZM61.5137 51.4062V24.5H66.4766V56H61.9854L61.5137 51.4062ZM47.0762 45.1514V44.7207C47.0762 43.0391 47.2744 41.5078 47.6709 40.127C48.0674 38.7324 48.6416 37.5361 49.3936 36.5381C50.1455 35.5264 51.0615 34.7539 52.1416 34.2207C53.2217 33.6738 54.4385 33.4004 55.792 33.4004C57.1318 33.4004 58.3076 33.6602 59.3193 34.1797C60.3311 34.6992 61.1924 35.4443 61.9033 36.415C62.6143 37.3721 63.1816 38.5205 63.6055 39.8604C64.0293 41.1865 64.3301 42.6631 64.5078 44.29V45.6641C64.3301 47.25 64.0293 48.6992 63.6055 50.0117C63.1816 51.3242 62.6143 52.459 61.9033 53.416C61.1924 54.373 60.3242 55.1113 59.2988 55.6309C58.2871 56.1504 57.1045 56.4102 55.751 56.4102C54.4111 56.4102 53.2012 56.1299 52.1211 55.5693C51.0547 55.0088 50.1455 54.2227 49.3936 53.2109C48.6416 52.1992 48.0674 51.0098 47.6709 49.6426C47.2744 48.2617 47.0762 46.7646 47.0762 45.1514ZM52.0186 44.7207V45.1514C52.0186 46.1631 52.1074 47.1064 52.2852 47.9814C52.4766 48.8564 52.7705 49.6289 53.167 50.2988C53.5635 50.9551 54.0762 51.4746 54.7051 51.8574C55.3477 52.2266 56.1133 52.4111 57.002 52.4111C58.123 52.4111 59.0459 52.165 59.7705 51.6729C60.4951 51.1807 61.0625 50.5176 61.4727 49.6836C61.8965 48.8359 62.1836 47.8926 62.334 46.8535V43.1416C62.252 42.335 62.0811 41.583 61.8213 40.8857C61.5752 40.1885 61.2402 39.5801 60.8164 39.0605C60.3926 38.5273 59.8662 38.1172 59.2373 37.8301C58.6221 37.5293 57.8906 37.3789 57.043 37.3789C56.1406 37.3789 55.375 37.5703 54.7461 37.9531C54.1172 38.3359 53.5977 38.8623 53.1875 39.5322C52.791 40.2021 52.4971 40.9814 52.3057 41.8701C52.1143 42.7588 52.0186 43.709 52.0186 44.7207Z" fill="#5A3EE3"/>
</svg>
