<svg width="88" height="88" viewBox="0 0 88 88" fill="none" xmlns="http://www.w3.org/2000/svg">
<rect width="88" height="88" rx="6" fill="#DDF8E9"/>
<path d="M33.1924 44.8643H25.4199V40.7832H33.1924C34.5459 40.7832 35.6396 40.5645 36.4736 40.127C37.3076 39.6895 37.916 39.0879 38.2988 38.3223C38.6953 37.543 38.8936 36.6543 38.8936 35.6562C38.8936 34.7129 38.6953 33.8311 38.2988 33.0107C37.916 32.1768 37.3076 31.5068 36.4736 31.001C35.6396 30.4951 34.5459 30.2422 33.1924 30.2422H26.999V56H21.8516V26.1406H33.1924C35.5029 26.1406 37.4648 26.5508 39.0781 27.3711C40.7051 28.1777 41.9424 29.2988 42.79 30.7344C43.6377 32.1562 44.0615 33.7832 44.0615 35.6152C44.0615 37.543 43.6377 39.1973 42.79 40.5781C41.9424 41.959 40.7051 43.0186 39.0781 43.7568C37.4648 44.4951 35.5029 44.8643 33.1924 44.8643ZM46.9531 45.1514V44.6797C46.9531 43.0801 47.1855 41.5967 47.6504 40.2295C48.1152 38.8486 48.7852 37.6523 49.6602 36.6406C50.5488 35.6152 51.6289 34.8223 52.9004 34.2617C54.1855 33.6875 55.6348 33.4004 57.248 33.4004C58.875 33.4004 60.3242 33.6875 61.5957 34.2617C62.8809 34.8223 63.9678 35.6152 64.8564 36.6406C65.7451 37.6523 66.4219 38.8486 66.8867 40.2295C67.3516 41.5967 67.584 43.0801 67.584 44.6797V45.1514C67.584 46.751 67.3516 48.2344 66.8867 49.6016C66.4219 50.9688 65.7451 52.165 64.8564 53.1904C63.9678 54.2021 62.8877 54.9951 61.6162 55.5693C60.3447 56.1299 58.9023 56.4102 57.2891 56.4102C55.6621 56.4102 54.2061 56.1299 52.9209 55.5693C51.6494 54.9951 50.5693 54.2021 49.6807 53.1904C48.792 52.165 48.1152 50.9688 47.6504 49.6016C47.1855 48.2344 46.9531 46.751 46.9531 45.1514ZM51.8955 44.6797V45.1514C51.8955 46.1494 51.998 47.0928 52.2031 47.9814C52.4082 48.8701 52.7295 49.6494 53.167 50.3193C53.6045 50.9893 54.165 51.5156 54.8486 51.8984C55.5322 52.2812 56.3457 52.4727 57.2891 52.4727C58.2051 52.4727 58.998 52.2812 59.668 51.8984C60.3516 51.5156 60.9121 50.9893 61.3496 50.3193C61.7871 49.6494 62.1084 48.8701 62.3135 47.9814C62.5322 47.0928 62.6416 46.1494 62.6416 45.1514V44.6797C62.6416 43.6953 62.5322 42.7656 62.3135 41.8906C62.1084 41.002 61.7803 40.2158 61.3291 39.5322C60.8916 38.8486 60.3311 38.3154 59.6475 37.9326C58.9775 37.5361 58.1777 37.3379 57.248 37.3379C56.3184 37.3379 55.5117 37.5361 54.8281 37.9326C54.1582 38.3154 53.6045 38.8486 53.167 39.5322C52.7295 40.2158 52.4082 41.002 52.2031 41.8906C51.998 42.7656 51.8955 43.6953 51.8955 44.6797Z" fill="#0E2B06"/>
</svg>
