<svg width="88" height="88" viewBox="0 0 88 88" fill="none" xmlns="http://www.w3.org/2000/svg">
<rect width="88" height="88" rx="6" fill="#F1E8FB"/>
<path d="M37.8271 44.8643H30.0547V40.7832H37.8271C39.1807 40.7832 40.2744 40.5645 41.1084 40.127C41.9424 39.6895 42.5508 39.0879 42.9336 38.3223C43.3301 37.543 43.5283 36.6543 43.5283 35.6562C43.5283 34.7129 43.3301 33.8311 42.9336 33.0107C42.5508 32.1768 41.9424 31.5068 41.1084 31.001C40.2744 30.4951 39.1807 30.2422 37.8271 30.2422H31.6338V56H26.4863V26.1406H37.8271C40.1377 26.1406 42.0996 26.5508 43.7129 27.3711C45.3398 28.1777 46.5771 29.2988 47.4248 30.7344C48.2725 32.1562 48.6963 33.7832 48.6963 35.6152C48.6963 37.543 48.2725 39.1973 47.4248 40.5781C46.5771 41.959 45.3398 43.0186 43.7129 43.7568C42.0996 44.4951 40.1377 44.8643 37.8271 44.8643ZM63.2773 33.8105V37.4199H50.7676V33.8105H63.2773ZM54.377 28.376H59.3193V49.8682C59.3193 50.5518 59.415 51.0781 59.6064 51.4473C59.8115 51.8027 60.0918 52.042 60.4473 52.165C60.8027 52.2881 61.2197 52.3496 61.6982 52.3496C62.04 52.3496 62.3682 52.3291 62.6826 52.2881C62.9971 52.2471 63.25 52.2061 63.4414 52.165L63.4619 55.9385C63.0518 56.0615 62.5732 56.1709 62.0264 56.2666C61.4932 56.3623 60.8779 56.4102 60.1807 56.4102C59.0459 56.4102 58.041 56.2119 57.166 55.8154C56.291 55.4053 55.6074 54.7422 55.1152 53.8262C54.623 52.9102 54.377 51.6934 54.377 50.1758V28.376Z" fill="#5A3EE3"/>
</svg>
