<svg width="88" height="88" viewBox="0 0 88 88" fill="none" xmlns="http://www.w3.org/2000/svg">
<rect width="88" height="88" rx="6" fill="#FBE8E7"/>
<path d="M22.4873 26.1406H33.0488C35.3184 26.1406 37.2529 26.4824 38.8525 27.166C40.4521 27.8496 41.6758 28.8613 42.5234 30.2012C43.3848 31.5273 43.8154 33.168 43.8154 35.123C43.8154 36.6133 43.542 37.9258 42.9951 39.0605C42.4482 40.1953 41.6758 41.1523 40.6777 41.9316C39.6797 42.6973 38.4902 43.292 37.1094 43.7158L35.5508 44.4746H26.0557L26.0146 40.3936H33.1309C34.3613 40.3936 35.3867 40.1748 36.207 39.7373C37.0273 39.2998 37.6426 38.7051 38.0527 37.9531C38.4766 37.1875 38.6885 36.3262 38.6885 35.3691C38.6885 34.3301 38.4834 33.4277 38.0732 32.6621C37.6768 31.8828 37.0615 31.2881 36.2275 30.8779C35.3936 30.4541 34.334 30.2422 33.0488 30.2422H27.6348V56H22.4873V26.1406ZM39.5293 56L32.5156 42.5879L37.9092 42.5674L45.0254 55.7334V56H39.5293ZM60.96 51.5498V40.9678C60.96 40.1748 60.8164 39.4912 60.5293 38.917C60.2422 38.3428 59.8047 37.8984 59.2168 37.584C58.6426 37.2695 57.918 37.1123 57.043 37.1123C56.2363 37.1123 55.5391 37.249 54.9512 37.5225C54.3633 37.7959 53.9053 38.165 53.5771 38.6299C53.249 39.0947 53.085 39.6211 53.085 40.209H48.1631C48.1631 39.334 48.375 38.4863 48.7988 37.666C49.2227 36.8457 49.8379 36.1143 50.6445 35.4717C51.4512 34.8291 52.415 34.3232 53.5361 33.9541C54.6572 33.585 55.915 33.4004 57.3096 33.4004C58.9775 33.4004 60.4541 33.6807 61.7393 34.2412C63.0381 34.8018 64.0566 35.6494 64.7949 36.7842C65.5469 37.9053 65.9229 39.3135 65.9229 41.0088V50.873C65.9229 51.8848 65.9912 52.7939 66.1279 53.6006C66.2783 54.3936 66.4902 55.084 66.7637 55.6719V56H61.6982C61.4658 55.4668 61.2812 54.79 61.1445 53.9697C61.0215 53.1357 60.96 52.3291 60.96 51.5498ZM61.6777 42.5059L61.7188 45.5615H58.1709C57.2549 45.5615 56.4482 45.6504 55.751 45.8281C55.0537 45.9922 54.4727 46.2383 54.0078 46.5664C53.543 46.8945 53.1943 47.291 52.9619 47.7559C52.7295 48.2207 52.6133 48.7471 52.6133 49.335C52.6133 49.9229 52.75 50.4629 53.0234 50.9551C53.2969 51.4336 53.6934 51.8096 54.2129 52.083C54.7461 52.3564 55.3887 52.4932 56.1406 52.4932C57.1523 52.4932 58.0342 52.2881 58.7861 51.8779C59.5518 51.4541 60.1533 50.9414 60.5908 50.3398C61.0283 49.7246 61.2607 49.1436 61.2881 48.5967L62.8877 50.791C62.7236 51.3516 62.4434 51.9531 62.0469 52.5957C61.6504 53.2383 61.1309 53.8535 60.4883 54.4414C59.8594 55.0156 59.1006 55.4873 58.2119 55.8564C57.3369 56.2256 56.3252 56.4102 55.1768 56.4102C53.7275 56.4102 52.4355 56.123 51.3008 55.5488C50.166 54.9609 49.2773 54.1748 48.6348 53.1904C47.9922 52.1924 47.6709 51.0645 47.6709 49.8066C47.6709 48.6309 47.8896 47.5918 48.3271 46.6895C48.7783 45.7734 49.4346 45.0078 50.2959 44.3926C51.1709 43.7773 52.2373 43.3125 53.4951 42.998C54.7529 42.6699 56.1885 42.5059 57.8018 42.5059H61.6777Z" fill="#C4292E"/>
</svg>
