<svg width="88" height="88" viewBox="0 0 88 88" fill="none" xmlns="http://www.w3.org/2000/svg">
<rect width="88" height="88" rx="6" fill="#DEF7FE"/>
<path d="M21.9951 26.1406H32.5566C34.8262 26.1406 36.7607 26.4824 38.3604 27.166C39.96 27.8496 41.1836 28.8613 42.0312 30.2012C42.8926 31.5273 43.3232 33.168 43.3232 35.123C43.3232 36.6133 43.0498 37.9258 42.5029 39.0605C41.9561 40.1953 41.1836 41.1523 40.1855 41.9316C39.1875 42.6973 37.998 43.292 36.6172 43.7158L35.0586 44.4746H25.5635L25.5225 40.3936H32.6387C33.8691 40.3936 34.8945 40.1748 35.7148 39.7373C36.5352 39.2998 37.1504 38.7051 37.5605 37.9531C37.9844 37.1875 38.1963 36.3262 38.1963 35.3691C38.1963 34.3301 37.9912 33.4277 37.5811 32.6621C37.1846 31.8828 36.5693 31.2881 35.7354 30.8779C34.9014 30.4541 33.8418 30.2422 32.5566 30.2422H27.1426V56H21.9951V26.1406ZM39.0371 56L32.0234 42.5879L37.417 42.5674L44.5332 55.7334V56H39.0371ZM47.9785 24.5H52.9209V51.2627L52.4492 56H47.9785V24.5ZM67.3994 44.7002V45.1309C67.3994 46.7715 67.2148 48.2822 66.8457 49.6631C66.4902 51.0303 65.9434 52.2197 65.2051 53.2314C64.4805 54.2432 63.5781 55.0293 62.498 55.5898C61.4316 56.1367 60.1943 56.4102 58.7861 56.4102C57.4053 56.4102 56.2021 56.1504 55.1768 55.6309C54.1514 55.1113 53.29 54.373 52.5928 53.416C51.9092 52.459 51.3555 51.3174 50.9316 49.9912C50.5078 48.665 50.207 47.2021 50.0293 45.6025V44.2285C50.207 42.6152 50.5078 41.1523 50.9316 39.8398C51.3555 38.5137 51.9092 37.3721 52.5928 36.415C53.29 35.4443 54.1445 34.6992 55.1562 34.1797C56.1816 33.6602 57.3779 33.4004 58.7451 33.4004C60.167 33.4004 61.418 33.6738 62.498 34.2207C63.5918 34.7676 64.501 35.5469 65.2256 36.5586C65.9502 37.5566 66.4902 38.7461 66.8457 40.127C67.2148 41.5078 67.3994 43.0322 67.3994 44.7002ZM62.457 45.1309V44.7002C62.457 43.7021 62.375 42.7656 62.2109 41.8906C62.0469 41.002 61.7734 40.2227 61.3906 39.5527C61.0215 38.8828 60.5156 38.3564 59.873 37.9736C59.2441 37.5771 58.458 37.3789 57.5146 37.3789C56.6396 37.3789 55.8877 37.5293 55.2588 37.8301C54.6299 38.1309 54.1035 38.541 53.6797 39.0605C53.2559 39.5801 52.9209 40.1816 52.6748 40.8652C52.4424 41.5488 52.2852 42.2871 52.2031 43.0801V46.792C52.3262 47.8174 52.5859 48.7607 52.9824 49.6221C53.3926 50.4697 53.9668 51.1533 54.7051 51.6729C55.4434 52.1787 56.3936 52.4316 57.5557 52.4316C58.4717 52.4316 59.2441 52.2471 59.873 51.8779C60.502 51.5088 61.001 50.9961 61.3701 50.3398C61.7529 49.6699 62.0264 48.8906 62.1904 48.002C62.3682 47.1133 62.457 46.1562 62.457 45.1309Z" fill="#317389"/>
</svg>
