<svg width="88" height="88" viewBox="0 0 88 88" fill="none" xmlns="http://www.w3.org/2000/svg">
<rect width="88" height="88" rx="6" fill="#F1E8FB"/>
<path d="M22.5488 26.1406H33.1104C35.3799 26.1406 37.3145 26.4824 38.9141 27.166C40.5137 27.8496 41.7373 28.8613 42.585 30.2012C43.4463 31.5273 43.877 33.168 43.877 35.123C43.877 36.6133 43.6035 37.9258 43.0566 39.0605C42.5098 40.1953 41.7373 41.1523 40.7393 41.9316C39.7412 42.6973 38.5518 43.292 37.1709 43.7158L35.6123 44.4746H26.1172L26.0762 40.3936H33.1924C34.4229 40.3936 35.4482 40.1748 36.2686 39.7373C37.0889 39.2998 37.7041 38.7051 38.1143 37.9531C38.5381 37.1875 38.75 36.3262 38.75 35.3691C38.75 34.3301 38.5449 33.4277 38.1348 32.6621C37.7383 31.8828 37.123 31.2881 36.2891 30.8779C35.4551 30.4541 34.3955 30.2422 33.1104 30.2422H27.6963V56H22.5488V26.1406ZM39.5908 56L32.5771 42.5879L37.9707 42.5674L45.0869 55.7334V56H39.5908ZM58.2939 56.4102C56.6533 56.4102 55.1699 56.1436 53.8438 55.6104C52.5312 55.0635 51.4102 54.3047 50.4805 53.334C49.5645 52.3633 48.8604 51.2217 48.3682 49.9092C47.876 48.5967 47.6299 47.1816 47.6299 45.6641V44.8438C47.6299 43.1074 47.8828 41.5352 48.3887 40.127C48.8945 38.7188 49.5986 37.5156 50.501 36.5176C51.4033 35.5059 52.4697 34.7334 53.7002 34.2002C54.9307 33.667 56.2637 33.4004 57.6992 33.4004C59.2852 33.4004 60.6729 33.667 61.8623 34.2002C63.0518 34.7334 64.0361 35.4854 64.8154 36.4561C65.6084 37.4131 66.1963 38.5547 66.5791 39.8809C66.9756 41.207 67.1738 42.6699 67.1738 44.2695V46.3818H50.0293V42.834H62.293V42.4443C62.2656 41.5557 62.0879 40.7217 61.7598 39.9424C61.4453 39.1631 60.96 38.5342 60.3037 38.0557C59.6475 37.5771 58.7725 37.3379 57.6787 37.3379C56.8584 37.3379 56.127 37.5156 55.4844 37.8711C54.8555 38.2129 54.3291 38.7119 53.9053 39.3682C53.4814 40.0244 53.1533 40.8174 52.9209 41.7471C52.7021 42.6631 52.5928 43.6953 52.5928 44.8438V45.6641C52.5928 46.6348 52.7227 47.5371 52.9824 48.3711C53.2559 49.1914 53.6523 49.9092 54.1719 50.5244C54.6914 51.1396 55.3203 51.625 56.0586 51.9805C56.7969 52.3223 57.6377 52.4932 58.5811 52.4932C59.7705 52.4932 60.8301 52.2539 61.7598 51.7754C62.6895 51.2969 63.4961 50.6201 64.1797 49.7451L66.7842 52.2676C66.3057 52.9648 65.6836 53.6348 64.918 54.2773C64.1523 54.9062 63.2158 55.4189 62.1084 55.8154C61.0146 56.2119 59.7432 56.4102 58.2939 56.4102Z" fill="#5A3EE3"/>
</svg>
