<svg width="88" height="88" viewBox="0 0 88 88" fill="none" xmlns="http://www.w3.org/2000/svg">
<rect width="88" height="88" rx="6" fill="#F1E8FB"/>
<path d="M26.3838 26.1406H36.9453C39.2148 26.1406 41.1494 26.4824 42.749 27.166C44.3486 27.8496 45.5723 28.8613 46.4199 30.2012C47.2812 31.5273 47.7119 33.168 47.7119 35.123C47.7119 36.6133 47.4385 37.9258 46.8916 39.0605C46.3447 40.1953 45.5723 41.1523 44.5742 41.9316C43.5762 42.6973 42.3867 43.292 41.0059 43.7158L39.4473 44.4746H29.9521L29.9111 40.3936H37.0273C38.2578 40.3936 39.2832 40.1748 40.1035 39.7373C40.9238 39.2998 41.5391 38.7051 41.9492 37.9531C42.373 37.1875 42.585 36.3262 42.585 35.3691C42.585 34.3301 42.3799 33.4277 41.9697 32.6621C41.5732 31.8828 40.958 31.2881 40.124 30.8779C39.29 30.4541 38.2305 30.2422 36.9453 30.2422H31.5312V56H26.3838V26.1406ZM43.4258 56L36.4121 42.5879L41.8057 42.5674L48.9219 55.7334V56H43.4258ZM59.0322 56H54.0898V31.6777C54.0898 30.0234 54.3975 28.6357 55.0127 27.5146C55.6416 26.3799 56.5371 25.5254 57.6992 24.9512C58.8613 24.3633 60.2354 24.0693 61.8213 24.0693C62.3135 24.0693 62.7988 24.1035 63.2773 24.1719C63.7559 24.2266 64.2207 24.3154 64.6719 24.4385L64.5488 28.2529C64.2754 28.1846 63.9746 28.1367 63.6465 28.1094C63.332 28.082 62.9902 28.0684 62.6211 28.0684C61.8691 28.0684 61.2197 28.2119 60.6729 28.499C60.1396 28.7725 59.7295 29.1758 59.4424 29.709C59.1689 30.2422 59.0322 30.8984 59.0322 31.6777V56ZM63.6055 33.8105V37.4199H50.6855V33.8105H63.6055Z" fill="#5A3EE3"/>
</svg>
