<svg width="88" height="88" viewBox="0 0 88 88" fill="none" xmlns="http://www.w3.org/2000/svg">
<rect width="88" height="88" rx="6" fill="#E7E7EA"/>
<path d="M21.8926 26.1406H32.4541C34.7236 26.1406 36.6582 26.4824 38.2578 27.166C39.8574 27.8496 41.0811 28.8613 41.9287 30.2012C42.79 31.5273 43.2207 33.168 43.2207 35.123C43.2207 36.6133 42.9473 37.9258 42.4004 39.0605C41.8535 40.1953 41.0811 41.1523 40.083 41.9316C39.085 42.6973 37.8955 43.292 36.5146 43.7158L34.9561 44.4746H25.4609L25.4199 40.3936H32.5361C33.7666 40.3936 34.792 40.1748 35.6123 39.7373C36.4326 39.2998 37.0479 38.7051 37.458 37.9531C37.8818 37.1875 38.0938 36.3262 38.0938 35.3691C38.0938 34.3301 37.8887 33.4277 37.4785 32.6621C37.082 31.8828 36.4668 31.2881 35.6328 30.8779C34.7988 30.4541 33.7393 30.2422 32.4541 30.2422H27.04V56H21.8926V26.1406ZM38.9346 56L31.9209 42.5879L37.3145 42.5674L44.4307 55.7334V56H38.9346ZM62.0674 33.8105H66.5586V55.3848C66.5586 57.3809 66.1348 59.0762 65.2871 60.4707C64.4395 61.8652 63.2568 62.9248 61.7393 63.6494C60.2217 64.3877 58.4648 64.7568 56.4688 64.7568C55.6211 64.7568 54.6777 64.6338 53.6387 64.3877C52.6133 64.1416 51.6152 63.7451 50.6445 63.1982C49.6875 62.665 48.8877 61.9609 48.2451 61.0859L50.5625 58.1738C51.3555 59.1172 52.2305 59.8076 53.1875 60.2451C54.1445 60.6826 55.1494 60.9014 56.2021 60.9014C57.3369 60.9014 58.3008 60.6895 59.0938 60.2656C59.9004 59.8555 60.5225 59.2471 60.96 58.4404C61.3975 57.6338 61.6162 56.6494 61.6162 55.4873V38.835L62.0674 33.8105ZM46.9941 45.1514V44.7207C46.9941 43.0391 47.1992 41.5078 47.6094 40.127C48.0195 38.7324 48.6074 37.5361 49.373 36.5381C50.1387 35.5264 51.0684 34.7539 52.1621 34.2207C53.2559 33.6738 54.4932 33.4004 55.874 33.4004C57.3096 33.4004 58.5332 33.6602 59.5449 34.1797C60.5703 34.6992 61.4248 35.4443 62.1084 36.415C62.792 37.3721 63.3252 38.5205 63.708 39.8604C64.1045 41.1865 64.3984 42.6631 64.5898 44.29V45.6641C64.4121 47.25 64.1113 48.6992 63.6875 50.0117C63.2637 51.3242 62.7031 52.459 62.0059 53.416C61.3086 54.373 60.4473 55.1113 59.4219 55.6309C58.4102 56.1504 57.2139 56.4102 55.833 56.4102C54.4795 56.4102 53.2559 56.1299 52.1621 55.5693C51.082 55.0088 50.1523 54.2227 49.373 53.2109C48.6074 52.1992 48.0195 51.0098 47.6094 49.6426C47.1992 48.2617 46.9941 46.7646 46.9941 45.1514ZM51.9365 44.7207V45.1514C51.9365 46.1631 52.0322 47.1064 52.2236 47.9814C52.4287 48.8564 52.7363 49.6289 53.1465 50.2988C53.5703 50.9551 54.1035 51.4746 54.7461 51.8574C55.4023 52.2266 56.1748 52.4111 57.0635 52.4111C58.2256 52.4111 59.1758 52.165 59.9141 51.6729C60.666 51.1807 61.2402 50.5176 61.6367 49.6836C62.0469 48.8359 62.334 47.8926 62.498 46.8535V43.1416C62.416 42.335 62.2451 41.583 61.9854 40.8857C61.7393 40.1885 61.4043 39.5801 60.9805 39.0605C60.5566 38.5273 60.0234 38.1172 59.3809 37.8301C58.7383 37.5293 57.9795 37.3789 57.1045 37.3789C56.2158 37.3789 55.4434 37.5703 54.7871 37.9531C54.1309 38.3359 53.5908 38.8623 53.167 39.5322C52.7568 40.2021 52.4492 40.9814 52.2441 41.8701C52.0391 42.7588 51.9365 43.709 51.9365 44.7207Z" fill="#3E374D"/>
</svg>
