<svg width="88" height="88" viewBox="0 0 88 88" fill="none" xmlns="http://www.w3.org/2000/svg">
<rect width="88" height="88" rx="6" fill="#F1E8FB"/>
<path d="M22.1387 26.1406H32.7002C34.9697 26.1406 36.9043 26.4824 38.5039 27.166C40.1035 27.8496 41.3271 28.8613 42.1748 30.2012C43.0361 31.5273 43.4668 33.168 43.4668 35.123C43.4668 36.6133 43.1934 37.9258 42.6465 39.0605C42.0996 40.1953 41.3271 41.1523 40.3291 41.9316C39.3311 42.6973 38.1416 43.292 36.7607 43.7158L35.2021 44.4746H25.707L25.666 40.3936H32.7822C34.0127 40.3936 35.0381 40.1748 35.8584 39.7373C36.6787 39.2998 37.2939 38.7051 37.7041 37.9531C38.1279 37.1875 38.3398 36.3262 38.3398 35.3691C38.3398 34.3301 38.1348 33.4277 37.7246 32.6621C37.3281 31.8828 36.7129 31.2881 35.8789 30.8779C35.0449 30.4541 33.9854 30.2422 32.7002 30.2422H27.2861V56H22.1387V26.1406ZM39.1807 56L32.167 42.5879L37.5605 42.5674L44.6768 55.7334V56H39.1807ZM52.9824 24.5V56H48.0605V24.5H52.9824ZM52.1211 44.085L50.5215 44.0645C50.5352 42.5332 50.7471 41.1182 51.1572 39.8193C51.5811 38.5205 52.1689 37.3926 52.9209 36.4355C53.6865 35.4648 54.6025 34.7197 55.6689 34.2002C56.7354 33.667 57.918 33.4004 59.2168 33.4004C60.3105 33.4004 61.2949 33.5508 62.1699 33.8516C63.0586 34.1523 63.8242 34.6377 64.4668 35.3076C65.1094 35.9639 65.5947 36.8252 65.9229 37.8916C66.2646 38.9443 66.4355 40.2295 66.4355 41.7471V56H61.4727V41.7061C61.4727 40.6396 61.3154 39.792 61.001 39.1631C60.7002 38.5342 60.2559 38.083 59.668 37.8096C59.0801 37.5225 58.3623 37.3789 57.5146 37.3789C56.626 37.3789 55.8398 37.5566 55.1562 37.9121C54.4863 38.2676 53.9258 38.7529 53.4746 39.3682C53.0234 39.9834 52.6816 40.6943 52.4492 41.501C52.2305 42.3076 52.1211 43.1689 52.1211 44.085Z" fill="#5A3EE3"/>
</svg>
