<svg width="88" height="88" viewBox="0 0 88 88" fill="none" xmlns="http://www.w3.org/2000/svg">
<rect width="88" height="88" rx="6" fill="#FBE8EB"/>
<path d="M22.1182 26.1406H32.6797C34.9492 26.1406 36.8838 26.4824 38.4834 27.166C40.083 27.8496 41.3066 28.8613 42.1543 30.2012C43.0156 31.5273 43.4463 33.168 43.4463 35.123C43.4463 36.6133 43.1729 37.9258 42.626 39.0605C42.0791 40.1953 41.3066 41.1523 40.3086 41.9316C39.3105 42.6973 38.1211 43.292 36.7402 43.7158L35.1816 44.4746H25.6865L25.6455 40.3936H32.7617C33.9922 40.3936 35.0176 40.1748 35.8379 39.7373C36.6582 39.2998 37.2734 38.7051 37.6836 37.9531C38.1074 37.1875 38.3193 36.3262 38.3193 35.3691C38.3193 34.3301 38.1143 33.4277 37.7041 32.6621C37.3076 31.8828 36.6924 31.2881 35.8584 30.8779C35.0244 30.4541 33.9648 30.2422 32.6797 30.2422H27.2656V56H22.1182V26.1406ZM39.1602 56L32.1465 42.5879L37.54 42.5674L44.6562 55.7334V56H39.1602ZM52.9824 38.5479V56H48.04V33.8105H52.6953L52.9824 38.5479ZM52.1006 44.085L50.501 44.0645C50.5146 42.4922 50.7334 41.0498 51.1572 39.7373C51.5947 38.4248 52.1963 37.2969 52.9619 36.3535C53.7412 35.4102 54.6709 34.6855 55.751 34.1797C56.8311 33.6602 58.0342 33.4004 59.3604 33.4004C60.4268 33.4004 61.3906 33.5508 62.252 33.8516C63.127 34.1387 63.8721 34.6104 64.4873 35.2666C65.1162 35.9229 65.5947 36.7773 65.9229 37.8301C66.251 38.8691 66.415 40.1475 66.415 41.665V56H61.4521V41.6445C61.4521 40.5781 61.2949 39.7373 60.9805 39.1221C60.6797 38.4932 60.2354 38.0488 59.6475 37.7891C59.0732 37.5156 58.3555 37.3789 57.4941 37.3789C56.6465 37.3789 55.8877 37.5566 55.2178 37.9121C54.5479 38.2676 53.9805 38.7529 53.5156 39.3682C53.0645 39.9834 52.7158 40.6943 52.4697 41.501C52.2236 42.3076 52.1006 43.1689 52.1006 44.085Z" fill="#BC335F"/>
</svg>
