<svg width="88" height="88" viewBox="0 0 88 88" fill="none" xmlns="http://www.w3.org/2000/svg">
<rect width="88" height="88" rx="6" fill="#F1E8FB"/>
<path d="M22.1182 26.1406H32.6797C34.9492 26.1406 36.8838 26.4824 38.4834 27.166C40.083 27.8496 41.3066 28.8613 42.1543 30.2012C43.0156 31.5273 43.4463 33.168 43.4463 35.123C43.4463 36.6133 43.1729 37.9258 42.626 39.0605C42.0791 40.1953 41.3066 41.1523 40.3086 41.9316C39.3105 42.6973 38.1211 43.292 36.7402 43.7158L35.1816 44.4746H25.6865L25.6455 40.3936H32.7617C33.9922 40.3936 35.0176 40.1748 35.8379 39.7373C36.6582 39.2998 37.2734 38.7051 37.6836 37.9531C38.1074 37.1875 38.3193 36.3262 38.3193 35.3691C38.3193 34.3301 38.1143 33.4277 37.7041 32.6621C37.3076 31.8828 36.6924 31.2881 35.8584 30.8779C35.0244 30.4541 33.9648 30.2422 32.6797 30.2422H27.2656V56H22.1182V26.1406ZM39.1602 56L32.1465 42.5879L37.54 42.5674L44.6562 55.7334V56H39.1602ZM61.4316 50.7705V33.8105H66.3945V56H61.7188L61.4316 50.7705ZM62.1289 46.1562L63.79 46.1152C63.79 47.6055 63.626 48.9795 63.2979 50.2373C62.9697 51.4814 62.4639 52.5684 61.7803 53.498C61.0967 54.4141 60.2217 55.1318 59.1553 55.6514C58.0889 56.1572 56.8105 56.4102 55.3203 56.4102C54.2402 56.4102 53.249 56.2529 52.3467 55.9385C51.4443 55.624 50.665 55.1387 50.0088 54.4824C49.3662 53.8262 48.8672 52.9717 48.5117 51.9189C48.1562 50.8662 47.9785 49.6084 47.9785 48.1455V33.8105H52.9209V48.1865C52.9209 48.9932 53.0166 49.6699 53.208 50.2168C53.3994 50.75 53.6592 51.1807 53.9873 51.5088C54.3154 51.8369 54.6982 52.0693 55.1357 52.2061C55.5732 52.3428 56.0381 52.4111 56.5303 52.4111C57.9385 52.4111 59.0459 52.1377 59.8525 51.5908C60.6729 51.0303 61.2539 50.2783 61.5957 49.335C61.9512 48.3916 62.1289 47.332 62.1289 46.1562Z" fill="#5A3EE3"/>
</svg>
