<svg width="88" height="88" viewBox="0 0 88 88" fill="none" xmlns="http://www.w3.org/2000/svg">
<rect width="88" height="88" rx="6" fill="#E4EEFD"/>
<path d="M50.0293 48.3096C50.0293 47.6943 49.9336 47.1475 49.7422 46.6689C49.5645 46.1904 49.2432 45.7529 48.7783 45.3564C48.3135 44.96 47.6572 44.5771 46.8096 44.208C45.9756 43.8252 44.9092 43.4355 43.6104 43.0391C42.1885 42.6016 40.876 42.1162 39.6729 41.583C38.4834 41.0361 37.4443 40.4072 36.5557 39.6963C35.667 38.9717 34.9766 38.1445 34.4844 37.2148C33.9922 36.2715 33.7461 35.1846 33.7461 33.9541C33.7461 32.7373 33.999 31.6299 34.5049 30.6318C35.0244 29.6338 35.7559 28.7725 36.6992 28.0479C37.6562 27.3096 38.7842 26.7422 40.083 26.3457C41.3818 25.9355 42.8174 25.7305 44.3896 25.7305C46.6045 25.7305 48.5117 26.1406 50.1113 26.9609C51.7246 27.7812 52.9619 28.8818 53.8232 30.2627C54.6982 31.6436 55.1357 33.168 55.1357 34.8359H50.0293C50.0293 33.8516 49.8174 32.9834 49.3936 32.2314C48.9834 31.4658 48.3545 30.8643 47.5068 30.4268C46.6729 29.9893 45.6133 29.7705 44.3281 29.7705C43.1113 29.7705 42.0996 29.9551 41.293 30.3242C40.4863 30.6934 39.8848 31.1924 39.4883 31.8213C39.0918 32.4502 38.8936 33.1611 38.8936 33.9541C38.8936 34.5146 39.0234 35.0273 39.2832 35.4922C39.543 35.9434 39.9395 36.3672 40.4727 36.7637C41.0059 37.1465 41.6758 37.5088 42.4824 37.8506C43.2891 38.1924 44.2393 38.5205 45.333 38.835C46.9873 39.3271 48.4297 39.874 49.6602 40.4756C50.8906 41.0635 51.916 41.7334 52.7363 42.4854C53.5566 43.2373 54.1719 44.0918 54.582 45.0488C54.9922 45.9922 55.1973 47.0654 55.1973 48.2686C55.1973 49.5264 54.9443 50.6611 54.4385 51.6729C53.9326 52.6709 53.208 53.5254 52.2646 54.2363C51.335 54.9336 50.2139 55.4736 48.9014 55.8564C47.6025 56.2256 46.1533 56.4102 44.5537 56.4102C43.1182 56.4102 41.7031 56.2188 40.3086 55.8359C38.9277 55.4531 37.6699 54.8721 36.5352 54.0928C35.4004 53.2998 34.498 52.3154 33.8281 51.1396C33.1582 49.9502 32.8232 48.5625 32.8232 46.9766H37.9707C37.9707 47.9473 38.1348 48.7744 38.4629 49.458C38.8047 50.1416 39.2764 50.7021 39.8779 51.1396C40.4795 51.5635 41.1768 51.8779 41.9697 52.083C42.7764 52.2881 43.6377 52.3906 44.5537 52.3906C45.7568 52.3906 46.7617 52.2197 47.5684 51.8779C48.3887 51.5361 49.0039 51.0576 49.4141 50.4424C49.8242 49.8271 50.0293 49.1162 50.0293 48.3096Z" fill="#2163E7"/>
</svg>
