<svg width="88" height="88" viewBox="0 0 88 88" fill="none" xmlns="http://www.w3.org/2000/svg">
<rect width="88" height="88" rx="6" fill="#FDF7E2"/>
<path d="M38.2168 48.3096C38.2168 47.6943 38.1211 47.1475 37.9297 46.6689C37.752 46.1904 37.4307 45.7529 36.9658 45.3564C36.501 44.96 35.8447 44.5771 34.9971 44.208C34.1631 43.8252 33.0967 43.4355 31.7979 43.0391C30.376 42.6016 29.0635 42.1162 27.8604 41.583C26.6709 41.0361 25.6318 40.4072 24.7432 39.6963C23.8545 38.9717 23.1641 38.1445 22.6719 37.2148C22.1797 36.2715 21.9336 35.1846 21.9336 33.9541C21.9336 32.7373 22.1865 31.6299 22.6924 30.6318C23.2119 29.6338 23.9434 28.7725 24.8867 28.0479C25.8438 27.3096 26.9717 26.7422 28.2705 26.3457C29.5693 25.9355 31.0049 25.7305 32.5771 25.7305C34.792 25.7305 36.6992 26.1406 38.2988 26.9609C39.9121 27.7812 41.1494 28.8818 42.0107 30.2627C42.8857 31.6436 43.3232 33.168 43.3232 34.8359H38.2168C38.2168 33.8516 38.0049 32.9834 37.5811 32.2314C37.1709 31.4658 36.542 30.8643 35.6943 30.4268C34.8604 29.9893 33.8008 29.7705 32.5156 29.7705C31.2988 29.7705 30.2871 29.9551 29.4805 30.3242C28.6738 30.6934 28.0723 31.1924 27.6758 31.8213C27.2793 32.4502 27.0811 33.1611 27.0811 33.9541C27.0811 34.5146 27.2109 35.0273 27.4707 35.4922C27.7305 35.9434 28.127 36.3672 28.6602 36.7637C29.1934 37.1465 29.8633 37.5088 30.6699 37.8506C31.4766 38.1924 32.4268 38.5205 33.5205 38.835C35.1748 39.3271 36.6172 39.874 37.8477 40.4756C39.0781 41.0635 40.1035 41.7334 40.9238 42.4854C41.7441 43.2373 42.3594 44.0918 42.7695 45.0488C43.1797 45.9922 43.3848 47.0654 43.3848 48.2686C43.3848 49.5264 43.1318 50.6611 42.626 51.6729C42.1201 52.6709 41.3955 53.5254 40.4521 54.2363C39.5225 54.9336 38.4014 55.4736 37.0889 55.8564C35.79 56.2256 34.3408 56.4102 32.7412 56.4102C31.3057 56.4102 29.8906 56.2188 28.4961 55.8359C27.1152 55.4531 25.8574 54.8721 24.7227 54.0928C23.5879 53.2998 22.6855 52.3154 22.0156 51.1396C21.3457 49.9502 21.0107 48.5625 21.0107 46.9766H26.1582C26.1582 47.9473 26.3223 48.7744 26.6504 49.458C26.9922 50.1416 27.4639 50.7021 28.0654 51.1396C28.667 51.5635 29.3643 51.8779 30.1572 52.083C30.9639 52.2881 31.8252 52.3906 32.7412 52.3906C33.9443 52.3906 34.9492 52.2197 35.7559 51.8779C36.5762 51.5361 37.1914 51.0576 37.6016 50.4424C38.0117 49.8271 38.2168 49.1162 38.2168 48.3096ZM47.4658 24.5H52.4082V51.2627L51.9365 56H47.4658V24.5ZM66.8867 44.7002V45.1309C66.8867 46.7715 66.7021 48.2822 66.333 49.6631C65.9775 51.0303 65.4307 52.2197 64.6924 53.2314C63.9678 54.2432 63.0654 55.0293 61.9854 55.5898C60.9189 56.1367 59.6816 56.4102 58.2734 56.4102C56.8926 56.4102 55.6895 56.1504 54.6641 55.6309C53.6387 55.1113 52.7773 54.373 52.0801 53.416C51.3965 52.459 50.8428 51.3174 50.4189 49.9912C49.9951 48.665 49.6943 47.2021 49.5166 45.6025V44.2285C49.6943 42.6152 49.9951 41.1523 50.4189 39.8398C50.8428 38.5137 51.3965 37.3721 52.0801 36.415C52.7773 35.4443 53.6318 34.6992 54.6436 34.1797C55.6689 33.6602 56.8652 33.4004 58.2324 33.4004C59.6543 33.4004 60.9053 33.6738 61.9854 34.2207C63.0791 34.7676 63.9883 35.5469 64.7129 36.5586C65.4375 37.5566 65.9775 38.7461 66.333 40.127C66.7021 41.5078 66.8867 43.0322 66.8867 44.7002ZM61.9443 45.1309V44.7002C61.9443 43.7021 61.8623 42.7656 61.6982 41.8906C61.5342 41.002 61.2607 40.2227 60.8779 39.5527C60.5088 38.8828 60.0029 38.3564 59.3604 37.9736C58.7314 37.5771 57.9453 37.3789 57.002 37.3789C56.127 37.3789 55.375 37.5293 54.7461 37.8301C54.1172 38.1309 53.5908 38.541 53.167 39.0605C52.7432 39.5801 52.4082 40.1816 52.1621 40.8652C51.9297 41.5488 51.7725 42.2871 51.6904 43.0801V46.792C51.8135 47.8174 52.0732 48.7607 52.4697 49.6221C52.8799 50.4697 53.4541 51.1533 54.1924 51.6729C54.9307 52.1787 55.8809 52.4316 57.043 52.4316C57.959 52.4316 58.7314 52.2471 59.3604 51.8779C59.9893 51.5088 60.4883 50.9961 60.8574 50.3398C61.2402 49.6699 61.5137 48.8906 61.6777 48.002C61.8555 47.1133 61.9443 46.1562 61.9443 45.1309Z" fill="#8C591D"/>
</svg>
