<svg width="88" height="88" viewBox="0 0 88 88" fill="none" xmlns="http://www.w3.org/2000/svg">
<rect width="88" height="88" rx="6" fill="#F1E8FB"/>
<path d="M39.0576 48.3096C39.0576 47.6943 38.9619 47.1475 38.7705 46.6689C38.5928 46.1904 38.2715 45.7529 37.8066 45.3564C37.3418 44.96 36.6855 44.5771 35.8379 44.208C35.0039 43.8252 33.9375 43.4355 32.6387 43.0391C31.2168 42.6016 29.9043 42.1162 28.7012 41.583C27.5117 41.0361 26.4727 40.4072 25.584 39.6963C24.6953 38.9717 24.0049 38.1445 23.5127 37.2148C23.0205 36.2715 22.7744 35.1846 22.7744 33.9541C22.7744 32.7373 23.0273 31.6299 23.5332 30.6318C24.0527 29.6338 24.7842 28.7725 25.7275 28.0479C26.6846 27.3096 27.8125 26.7422 29.1113 26.3457C30.4102 25.9355 31.8457 25.7305 33.418 25.7305C35.6328 25.7305 37.54 26.1406 39.1396 26.9609C40.7529 27.7812 41.9902 28.8818 42.8516 30.2627C43.7266 31.6436 44.1641 33.168 44.1641 34.8359H39.0576C39.0576 33.8516 38.8457 32.9834 38.4219 32.2314C38.0117 31.4658 37.3828 30.8643 36.5352 30.4268C35.7012 29.9893 34.6416 29.7705 33.3564 29.7705C32.1396 29.7705 31.1279 29.9551 30.3213 30.3242C29.5146 30.6934 28.9131 31.1924 28.5166 31.8213C28.1201 32.4502 27.9219 33.1611 27.9219 33.9541C27.9219 34.5146 28.0518 35.0273 28.3115 35.4922C28.5713 35.9434 28.9678 36.3672 29.501 36.7637C30.0342 37.1465 30.7041 37.5088 31.5107 37.8506C32.3174 38.1924 33.2676 38.5205 34.3613 38.835C36.0156 39.3271 37.458 39.874 38.6885 40.4756C39.9189 41.0635 40.9443 41.7334 41.7646 42.4854C42.585 43.2373 43.2002 44.0918 43.6104 45.0488C44.0205 45.9922 44.2256 47.0654 44.2256 48.2686C44.2256 49.5264 43.9727 50.6611 43.4668 51.6729C42.9609 52.6709 42.2363 53.5254 41.293 54.2363C40.3633 54.9336 39.2422 55.4736 37.9297 55.8564C36.6309 56.2256 35.1816 56.4102 33.582 56.4102C32.1465 56.4102 30.7314 56.2188 29.3369 55.8359C27.9561 55.4531 26.6982 54.8721 25.5635 54.0928C24.4287 53.2998 23.5264 52.3154 22.8564 51.1396C22.1865 49.9502 21.8516 48.5625 21.8516 46.9766H26.999C26.999 47.9473 27.1631 48.7744 27.4912 49.458C27.833 50.1416 28.3047 50.7021 28.9062 51.1396C29.5078 51.5635 30.2051 51.8779 30.998 52.083C31.8047 52.2881 32.666 52.3906 33.582 52.3906C34.7852 52.3906 35.79 52.2197 36.5967 51.8779C37.417 51.5361 38.0322 51.0576 38.4424 50.4424C38.8525 49.8271 39.0576 49.1162 39.0576 48.3096ZM57.3506 52.4727C58.1572 52.4727 58.8818 52.3154 59.5244 52.001C60.1807 51.6729 60.707 51.2217 61.1035 50.6475C61.5137 50.0732 61.7393 49.4102 61.7803 48.6582H66.4355C66.4082 50.0938 65.9844 51.3994 65.1641 52.5752C64.3438 53.751 63.2568 54.6875 61.9033 55.3848C60.5498 56.0684 59.0527 56.4102 57.4121 56.4102C55.7168 56.4102 54.2402 56.123 52.9824 55.5488C51.7246 54.9609 50.6787 54.1543 49.8447 53.1289C49.0107 52.1035 48.3818 50.9209 47.958 49.5811C47.5479 48.2412 47.3428 46.8057 47.3428 45.2744V44.5566C47.3428 43.0254 47.5479 41.5898 47.958 40.25C48.3818 38.8965 49.0107 37.707 49.8447 36.6816C50.6787 35.6562 51.7246 34.8564 52.9824 34.2822C54.2402 33.6943 55.71 33.4004 57.3916 33.4004C59.1689 33.4004 60.7275 33.7559 62.0674 34.4668C63.4072 35.1641 64.46 36.1416 65.2256 37.3994C66.0049 38.6436 66.4082 40.0928 66.4355 41.7471H61.7803C61.7393 40.9268 61.5342 40.1885 61.165 39.5322C60.8096 38.8623 60.3037 38.3291 59.6475 37.9326C59.0049 37.5361 58.2324 37.3379 57.3301 37.3379C56.332 37.3379 55.5049 37.543 54.8486 37.9531C54.1924 38.3496 53.6797 38.8965 53.3105 39.5938C52.9414 40.2773 52.6748 41.0498 52.5107 41.9111C52.3604 42.7588 52.2852 43.6406 52.2852 44.5566V45.2744C52.2852 46.1904 52.3604 47.0791 52.5107 47.9404C52.6611 48.8018 52.9209 49.5742 53.29 50.2578C53.6729 50.9277 54.1924 51.4678 54.8486 51.8779C55.5049 52.2744 56.3389 52.4727 57.3506 52.4727Z" fill="#5A3EE3"/>
</svg>
