<svg width="88" height="88" viewBox="0 0 88 88" fill="none" xmlns="http://www.w3.org/2000/svg">
<rect width="88" height="88" rx="6" fill="#E4EEFD"/>
<path d="M38.7705 48.3096C38.7705 47.6943 38.6748 47.1475 38.4834 46.6689C38.3057 46.1904 37.9844 45.7529 37.5195 45.3564C37.0547 44.96 36.3984 44.5771 35.5508 44.208C34.7168 43.8252 33.6504 43.4355 32.3516 43.0391C30.9297 42.6016 29.6172 42.1162 28.4141 41.583C27.2246 41.0361 26.1855 40.4072 25.2969 39.6963C24.4082 38.9717 23.7178 38.1445 23.2256 37.2148C22.7334 36.2715 22.4873 35.1846 22.4873 33.9541C22.4873 32.7373 22.7402 31.6299 23.2461 30.6318C23.7656 29.6338 24.4971 28.7725 25.4404 28.0479C26.3975 27.3096 27.5254 26.7422 28.8242 26.3457C30.123 25.9355 31.5586 25.7305 33.1309 25.7305C35.3457 25.7305 37.2529 26.1406 38.8525 26.9609C40.4658 27.7812 41.7031 28.8818 42.5645 30.2627C43.4395 31.6436 43.877 33.168 43.877 34.8359H38.7705C38.7705 33.8516 38.5586 32.9834 38.1348 32.2314C37.7246 31.4658 37.0957 30.8643 36.248 30.4268C35.4141 29.9893 34.3545 29.7705 33.0693 29.7705C31.8525 29.7705 30.8408 29.9551 30.0342 30.3242C29.2275 30.6934 28.626 31.1924 28.2295 31.8213C27.833 32.4502 27.6348 33.1611 27.6348 33.9541C27.6348 34.5146 27.7646 35.0273 28.0244 35.4922C28.2842 35.9434 28.6807 36.3672 29.2139 36.7637C29.7471 37.1465 30.417 37.5088 31.2236 37.8506C32.0303 38.1924 32.9805 38.5205 34.0742 38.835C35.7285 39.3271 37.1709 39.874 38.4014 40.4756C39.6318 41.0635 40.6572 41.7334 41.4775 42.4854C42.2979 43.2373 42.9131 44.0918 43.3232 45.0488C43.7334 45.9922 43.9385 47.0654 43.9385 48.2686C43.9385 49.5264 43.6855 50.6611 43.1797 51.6729C42.6738 52.6709 41.9492 53.5254 41.0059 54.2363C40.0762 54.9336 38.9551 55.4736 37.6426 55.8564C36.3438 56.2256 34.8945 56.4102 33.2949 56.4102C31.8594 56.4102 30.4443 56.2188 29.0498 55.8359C27.6689 55.4531 26.4111 54.8721 25.2764 54.0928C24.1416 53.2998 23.2393 52.3154 22.5693 51.1396C21.8994 49.9502 21.5645 48.5625 21.5645 46.9766H26.7119C26.7119 47.9473 26.876 48.7744 27.2041 49.458C27.5459 50.1416 28.0176 50.7021 28.6191 51.1396C29.2207 51.5635 29.918 51.8779 30.7109 52.083C31.5176 52.2881 32.3789 52.3906 33.2949 52.3906C34.498 52.3906 35.5029 52.2197 36.3096 51.8779C37.1299 51.5361 37.7451 51.0576 38.1553 50.4424C38.5654 49.8271 38.7705 49.1162 38.7705 48.3096ZM57.7812 56.4102C56.1406 56.4102 54.6572 56.1436 53.3311 55.6104C52.0186 55.0635 50.8975 54.3047 49.9678 53.334C49.0518 52.3633 48.3477 51.2217 47.8555 49.9092C47.3633 48.5967 47.1172 47.1816 47.1172 45.6641V44.8438C47.1172 43.1074 47.3701 41.5352 47.876 40.127C48.3818 38.7188 49.0859 37.5156 49.9883 36.5176C50.8906 35.5059 51.957 34.7334 53.1875 34.2002C54.418 33.667 55.751 33.4004 57.1865 33.4004C58.7725 33.4004 60.1602 33.667 61.3496 34.2002C62.5391 34.7334 63.5234 35.4854 64.3027 36.4561C65.0957 37.4131 65.6836 38.5547 66.0664 39.8809C66.4629 41.207 66.6611 42.6699 66.6611 44.2695V46.3818H49.5166V42.834H61.7803V42.4443C61.7529 41.5557 61.5752 40.7217 61.2471 39.9424C60.9326 39.1631 60.4473 38.5342 59.791 38.0557C59.1348 37.5771 58.2598 37.3379 57.166 37.3379C56.3457 37.3379 55.6143 37.5156 54.9717 37.8711C54.3428 38.2129 53.8164 38.7119 53.3926 39.3682C52.9688 40.0244 52.6406 40.8174 52.4082 41.7471C52.1895 42.6631 52.0801 43.6953 52.0801 44.8438V45.6641C52.0801 46.6348 52.21 47.5371 52.4697 48.3711C52.7432 49.1914 53.1396 49.9092 53.6592 50.5244C54.1787 51.1396 54.8076 51.625 55.5459 51.9805C56.2842 52.3223 57.125 52.4932 58.0684 52.4932C59.2578 52.4932 60.3174 52.2539 61.2471 51.7754C62.1768 51.2969 62.9834 50.6201 63.667 49.7451L66.2715 52.2676C65.793 52.9648 65.1709 53.6348 64.4053 54.2773C63.6396 54.9062 62.7031 55.4189 61.5957 55.8154C60.502 56.2119 59.2305 56.4102 57.7812 56.4102Z" fill="#2163E7"/>
</svg>
