<svg width="88" height="88" viewBox="0 0 88 88" fill="none" xmlns="http://www.w3.org/2000/svg">
<rect width="88" height="88" rx="6" fill="#F1E8FB"/>
<path d="M38.1143 48.3096C38.1143 47.6943 38.0186 47.1475 37.8271 46.6689C37.6494 46.1904 37.3281 45.7529 36.8633 45.3564C36.3984 44.96 35.7422 44.5771 34.8945 44.208C34.0605 43.8252 32.9941 43.4355 31.6953 43.0391C30.2734 42.6016 28.9609 42.1162 27.7578 41.583C26.5684 41.0361 25.5293 40.4072 24.6406 39.6963C23.752 38.9717 23.0615 38.1445 22.5693 37.2148C22.0771 36.2715 21.8311 35.1846 21.8311 33.9541C21.8311 32.7373 22.084 31.6299 22.5898 30.6318C23.1094 29.6338 23.8408 28.7725 24.7842 28.0479C25.7412 27.3096 26.8691 26.7422 28.168 26.3457C29.4668 25.9355 30.9023 25.7305 32.4746 25.7305C34.6895 25.7305 36.5967 26.1406 38.1963 26.9609C39.8096 27.7812 41.0469 28.8818 41.9082 30.2627C42.7832 31.6436 43.2207 33.168 43.2207 34.8359H38.1143C38.1143 33.8516 37.9023 32.9834 37.4785 32.2314C37.0684 31.4658 36.4395 30.8643 35.5918 30.4268C34.7578 29.9893 33.6982 29.7705 32.4131 29.7705C31.1963 29.7705 30.1846 29.9551 29.3779 30.3242C28.5713 30.6934 27.9697 31.1924 27.5732 31.8213C27.1768 32.4502 26.9785 33.1611 26.9785 33.9541C26.9785 34.5146 27.1084 35.0273 27.3682 35.4922C27.6279 35.9434 28.0244 36.3672 28.5576 36.7637C29.0908 37.1465 29.7607 37.5088 30.5674 37.8506C31.374 38.1924 32.3242 38.5205 33.418 38.835C35.0723 39.3271 36.5146 39.874 37.7451 40.4756C38.9756 41.0635 40.001 41.7334 40.8213 42.4854C41.6416 43.2373 42.2568 44.0918 42.667 45.0488C43.0771 45.9922 43.2822 47.0654 43.2822 48.2686C43.2822 49.5264 43.0293 50.6611 42.5234 51.6729C42.0176 52.6709 41.293 53.5254 40.3496 54.2363C39.4199 54.9336 38.2988 55.4736 36.9863 55.8564C35.6875 56.2256 34.2383 56.4102 32.6387 56.4102C31.2031 56.4102 29.7881 56.2188 28.3936 55.8359C27.0127 55.4531 25.7549 54.8721 24.6201 54.0928C23.4854 53.2998 22.583 52.3154 21.9131 51.1396C21.2432 49.9502 20.9082 48.5625 20.9082 46.9766H26.0557C26.0557 47.9473 26.2197 48.7744 26.5479 49.458C26.8896 50.1416 27.3613 50.7021 27.9629 51.1396C28.5645 51.5635 29.2617 51.8779 30.0547 52.083C30.8613 52.2881 31.7227 52.3906 32.6387 52.3906C33.8418 52.3906 34.8467 52.2197 35.6533 51.8779C36.4736 51.5361 37.0889 51.0576 37.499 50.4424C37.9092 49.8271 38.1143 49.1162 38.1143 48.3096ZM61.5547 33.8105H66.0459V55.3848C66.0459 57.3809 65.6221 59.0762 64.7744 60.4707C63.9268 61.8652 62.7441 62.9248 61.2266 63.6494C59.709 64.3877 57.9521 64.7568 55.9561 64.7568C55.1084 64.7568 54.165 64.6338 53.126 64.3877C52.1006 64.1416 51.1025 63.7451 50.1318 63.1982C49.1748 62.665 48.375 61.9609 47.7324 61.0859L50.0498 58.1738C50.8428 59.1172 51.7178 59.8076 52.6748 60.2451C53.6318 60.6826 54.6367 60.9014 55.6895 60.9014C56.8242 60.9014 57.7881 60.6895 58.5811 60.2656C59.3877 59.8555 60.0098 59.2471 60.4473 58.4404C60.8848 57.6338 61.1035 56.6494 61.1035 55.4873V38.835L61.5547 33.8105ZM46.4814 45.1514V44.7207C46.4814 43.0391 46.6865 41.5078 47.0967 40.127C47.5068 38.7324 48.0947 37.5361 48.8604 36.5381C49.626 35.5264 50.5557 34.7539 51.6494 34.2207C52.7432 33.6738 53.9805 33.4004 55.3613 33.4004C56.7969 33.4004 58.0205 33.6602 59.0322 34.1797C60.0576 34.6992 60.9121 35.4443 61.5957 36.415C62.2793 37.3721 62.8125 38.5205 63.1953 39.8604C63.5918 41.1865 63.8857 42.6631 64.0771 44.29V45.6641C63.8994 47.25 63.5986 48.6992 63.1748 50.0117C62.751 51.3242 62.1904 52.459 61.4932 53.416C60.7959 54.373 59.9346 55.1113 58.9092 55.6309C57.8975 56.1504 56.7012 56.4102 55.3203 56.4102C53.9668 56.4102 52.7432 56.1299 51.6494 55.5693C50.5693 55.0088 49.6396 54.2227 48.8604 53.2109C48.0947 52.1992 47.5068 51.0098 47.0967 49.6426C46.6865 48.2617 46.4814 46.7646 46.4814 45.1514ZM51.4238 44.7207V45.1514C51.4238 46.1631 51.5195 47.1064 51.7109 47.9814C51.916 48.8564 52.2236 49.6289 52.6338 50.2988C53.0576 50.9551 53.5908 51.4746 54.2334 51.8574C54.8896 52.2266 55.6621 52.4111 56.5508 52.4111C57.7129 52.4111 58.6631 52.165 59.4014 51.6729C60.1533 51.1807 60.7275 50.5176 61.124 49.6836C61.5342 48.8359 61.8213 47.8926 61.9854 46.8535V43.1416C61.9033 42.335 61.7324 41.583 61.4727 40.8857C61.2266 40.1885 60.8916 39.5801 60.4678 39.0605C60.0439 38.5273 59.5107 38.1172 58.8682 37.8301C58.2256 37.5293 57.4668 37.3789 56.5918 37.3789C55.7031 37.3789 54.9307 37.5703 54.2744 37.9531C53.6182 38.3359 53.0781 38.8623 52.6543 39.5322C52.2441 40.2021 51.9365 40.9814 51.7314 41.8701C51.5264 42.7588 51.4238 43.709 51.4238 44.7207Z" fill="#5A3EE3"/>
</svg>
