<svg width="88" height="88" viewBox="0 0 88 88" fill="none" xmlns="http://www.w3.org/2000/svg">
<rect width="88" height="88" rx="6" fill="#FDF7E2"/>
<path d="M44.6768 48.3096C44.6768 47.6943 44.5811 47.1475 44.3896 46.6689C44.2119 46.1904 43.8906 45.7529 43.4258 45.3564C42.9609 44.96 42.3047 44.5771 41.457 44.208C40.623 43.8252 39.5566 43.4355 38.2578 43.0391C36.8359 42.6016 35.5234 42.1162 34.3203 41.583C33.1309 41.0361 32.0918 40.4072 31.2031 39.6963C30.3145 38.9717 29.624 38.1445 29.1318 37.2148C28.6396 36.2715 28.3936 35.1846 28.3936 33.9541C28.3936 32.7373 28.6465 31.6299 29.1523 30.6318C29.6719 29.6338 30.4033 28.7725 31.3467 28.0479C32.3037 27.3096 33.4316 26.7422 34.7305 26.3457C36.0293 25.9355 37.4648 25.7305 39.0371 25.7305C41.252 25.7305 43.1592 26.1406 44.7588 26.9609C46.3721 27.7812 47.6094 28.8818 48.4707 30.2627C49.3457 31.6436 49.7832 33.168 49.7832 34.8359H44.6768C44.6768 33.8516 44.4648 32.9834 44.041 32.2314C43.6309 31.4658 43.002 30.8643 42.1543 30.4268C41.3203 29.9893 40.2607 29.7705 38.9756 29.7705C37.7588 29.7705 36.7471 29.9551 35.9404 30.3242C35.1338 30.6934 34.5322 31.1924 34.1357 31.8213C33.7393 32.4502 33.541 33.1611 33.541 33.9541C33.541 34.5146 33.6709 35.0273 33.9307 35.4922C34.1904 35.9434 34.5869 36.3672 35.1201 36.7637C35.6533 37.1465 36.3232 37.5088 37.1299 37.8506C37.9365 38.1924 38.8867 38.5205 39.9805 38.835C41.6348 39.3271 43.0771 39.874 44.3076 40.4756C45.5381 41.0635 46.5635 41.7334 47.3838 42.4854C48.2041 43.2373 48.8193 44.0918 49.2295 45.0488C49.6396 45.9922 49.8447 47.0654 49.8447 48.2686C49.8447 49.5264 49.5918 50.6611 49.0859 51.6729C48.5801 52.6709 47.8555 53.5254 46.9121 54.2363C45.9824 54.9336 44.8613 55.4736 43.5488 55.8564C42.25 56.2256 40.8008 56.4102 39.2012 56.4102C37.7656 56.4102 36.3506 56.2188 34.9561 55.8359C33.5752 55.4531 32.3174 54.8721 31.1826 54.0928C30.0479 53.2998 29.1455 52.3154 28.4756 51.1396C27.8057 49.9502 27.4707 48.5625 27.4707 46.9766H32.6182C32.6182 47.9473 32.7822 48.7744 33.1104 49.458C33.4521 50.1416 33.9238 50.7021 34.5254 51.1396C35.127 51.5635 35.8242 51.8779 36.6172 52.083C37.4238 52.2881 38.2852 52.3906 39.2012 52.3906C40.4043 52.3906 41.4092 52.2197 42.2158 51.8779C43.0361 51.5361 43.6514 51.0576 44.0615 50.4424C44.4717 49.8271 44.6768 49.1162 44.6768 48.3096ZM59.1963 33.8105V56H54.2334V33.8105H59.1963ZM53.9053 27.9863C53.9053 27.2344 54.1514 26.6123 54.6436 26.1201C55.1494 25.6143 55.8467 25.3613 56.7354 25.3613C57.6104 25.3613 58.3008 25.6143 58.8066 26.1201C59.3125 26.6123 59.5654 27.2344 59.5654 27.9863C59.5654 28.7246 59.3125 29.3398 58.8066 29.832C58.3008 30.3242 57.6104 30.5703 56.7354 30.5703C55.8467 30.5703 55.1494 30.3242 54.6436 29.832C54.1514 29.3398 53.9053 28.7246 53.9053 27.9863Z" fill="#8C591D"/>
</svg>
