<svg width="88" height="88" viewBox="0 0 88 88" fill="none" xmlns="http://www.w3.org/2000/svg">
<rect width="88" height="88" rx="6" fill="#DDF8E9"/>
<path d="M38.3398 48.3096C38.3398 47.6943 38.2441 47.1475 38.0527 46.6689C37.875 46.1904 37.5537 45.7529 37.0889 45.3564C36.624 44.96 35.9678 44.5771 35.1201 44.208C34.2861 43.8252 33.2197 43.4355 31.9209 43.0391C30.499 42.6016 29.1865 42.1162 27.9834 41.583C26.7939 41.0361 25.7549 40.4072 24.8662 39.6963C23.9775 38.9717 23.2871 38.1445 22.7949 37.2148C22.3027 36.2715 22.0566 35.1846 22.0566 33.9541C22.0566 32.7373 22.3096 31.6299 22.8154 30.6318C23.335 29.6338 24.0664 28.7725 25.0098 28.0479C25.9668 27.3096 27.0947 26.7422 28.3936 26.3457C29.6924 25.9355 31.1279 25.7305 32.7002 25.7305C34.915 25.7305 36.8223 26.1406 38.4219 26.9609C40.0352 27.7812 41.2725 28.8818 42.1338 30.2627C43.0088 31.6436 43.4463 33.168 43.4463 34.8359H38.3398C38.3398 33.8516 38.1279 32.9834 37.7041 32.2314C37.2939 31.4658 36.665 30.8643 35.8174 30.4268C34.9834 29.9893 33.9238 29.7705 32.6387 29.7705C31.4219 29.7705 30.4102 29.9551 29.6035 30.3242C28.7969 30.6934 28.1953 31.1924 27.7988 31.8213C27.4023 32.4502 27.2041 33.1611 27.2041 33.9541C27.2041 34.5146 27.334 35.0273 27.5938 35.4922C27.8535 35.9434 28.25 36.3672 28.7832 36.7637C29.3164 37.1465 29.9863 37.5088 30.793 37.8506C31.5996 38.1924 32.5498 38.5205 33.6436 38.835C35.2979 39.3271 36.7402 39.874 37.9707 40.4756C39.2012 41.0635 40.2266 41.7334 41.0469 42.4854C41.8672 43.2373 42.4824 44.0918 42.8926 45.0488C43.3027 45.9922 43.5078 47.0654 43.5078 48.2686C43.5078 49.5264 43.2549 50.6611 42.749 51.6729C42.2432 52.6709 41.5186 53.5254 40.5752 54.2363C39.6455 54.9336 38.5244 55.4736 37.2119 55.8564C35.9131 56.2256 34.4639 56.4102 32.8643 56.4102C31.4287 56.4102 30.0137 56.2188 28.6191 55.8359C27.2383 55.4531 25.9805 54.8721 24.8457 54.0928C23.7109 53.2998 22.8086 52.3154 22.1387 51.1396C21.4688 49.9502 21.1338 48.5625 21.1338 46.9766H26.2812C26.2812 47.9473 26.4453 48.7744 26.7734 49.458C27.1152 50.1416 27.5869 50.7021 28.1885 51.1396C28.79 51.5635 29.4873 51.8779 30.2803 52.083C31.0869 52.2881 31.9482 52.3906 32.8643 52.3906C34.0674 52.3906 35.0723 52.2197 35.8789 51.8779C36.6992 51.5361 37.3145 51.0576 37.7246 50.4424C38.1348 49.8271 38.3398 49.1162 38.3398 48.3096ZM52.4697 38.5479V56H47.5273V33.8105H52.1826L52.4697 38.5479ZM51.5879 44.085L49.9883 44.0645C50.002 42.4922 50.2207 41.0498 50.6445 39.7373C51.082 38.4248 51.6836 37.2969 52.4492 36.3535C53.2285 35.4102 54.1582 34.6855 55.2383 34.1797C56.3184 33.6602 57.5215 33.4004 58.8477 33.4004C59.9141 33.4004 60.8779 33.5508 61.7393 33.8516C62.6143 34.1387 63.3594 34.6104 63.9746 35.2666C64.6035 35.9229 65.082 36.7773 65.4102 37.8301C65.7383 38.8691 65.9023 40.1475 65.9023 41.665V56H60.9395V41.6445C60.9395 40.5781 60.7822 39.7373 60.4678 39.1221C60.167 38.4932 59.7227 38.0488 59.1348 37.7891C58.5605 37.5156 57.8428 37.3789 56.9814 37.3789C56.1338 37.3789 55.375 37.5566 54.7051 37.9121C54.0352 38.2676 53.4678 38.7529 53.0029 39.3682C52.5518 39.9834 52.2031 40.6943 51.957 41.501C51.7109 42.3076 51.5879 43.1689 51.5879 44.085Z" fill="#0E2B06"/>
</svg>
