<svg width="88" height="88" viewBox="0 0 88 88" fill="none" xmlns="http://www.w3.org/2000/svg">
<rect width="88" height="88" rx="6" fill="#FBE8E7"/>
<path d="M42.6055 48.3096C42.6055 47.6943 42.5098 47.1475 42.3184 46.6689C42.1406 46.1904 41.8193 45.7529 41.3545 45.3564C40.8896 44.96 40.2334 44.5771 39.3857 44.208C38.5518 43.8252 37.4854 43.4355 36.1865 43.0391C34.7646 42.6016 33.4521 42.1162 32.249 41.583C31.0596 41.0361 30.0205 40.4072 29.1318 39.6963C28.2432 38.9717 27.5527 38.1445 27.0605 37.2148C26.5684 36.2715 26.3223 35.1846 26.3223 33.9541C26.3223 32.7373 26.5752 31.6299 27.0811 30.6318C27.6006 29.6338 28.332 28.7725 29.2754 28.0479C30.2324 27.3096 31.3604 26.7422 32.6592 26.3457C33.958 25.9355 35.3936 25.7305 36.9658 25.7305C39.1807 25.7305 41.0879 26.1406 42.6875 26.9609C44.3008 27.7812 45.5381 28.8818 46.3994 30.2627C47.2744 31.6436 47.7119 33.168 47.7119 34.8359H42.6055C42.6055 33.8516 42.3936 32.9834 41.9697 32.2314C41.5596 31.4658 40.9307 30.8643 40.083 30.4268C39.249 29.9893 38.1895 29.7705 36.9043 29.7705C35.6875 29.7705 34.6758 29.9551 33.8691 30.3242C33.0625 30.6934 32.4609 31.1924 32.0645 31.8213C31.668 32.4502 31.4697 33.1611 31.4697 33.9541C31.4697 34.5146 31.5996 35.0273 31.8594 35.4922C32.1191 35.9434 32.5156 36.3672 33.0488 36.7637C33.582 37.1465 34.252 37.5088 35.0586 37.8506C35.8652 38.1924 36.8154 38.5205 37.9092 38.835C39.5635 39.3271 41.0059 39.874 42.2363 40.4756C43.4668 41.0635 44.4922 41.7334 45.3125 42.4854C46.1328 43.2373 46.748 44.0918 47.1582 45.0488C47.5684 45.9922 47.7734 47.0654 47.7734 48.2686C47.7734 49.5264 47.5205 50.6611 47.0146 51.6729C46.5088 52.6709 45.7842 53.5254 44.8408 54.2363C43.9111 54.9336 42.79 55.4736 41.4775 55.8564C40.1787 56.2256 38.7295 56.4102 37.1299 56.4102C35.6943 56.4102 34.2793 56.2188 32.8848 55.8359C31.5039 55.4531 30.2461 54.8721 29.1113 54.0928C27.9766 53.2998 27.0742 52.3154 26.4043 51.1396C25.7344 49.9502 25.3994 48.5625 25.3994 46.9766H30.5469C30.5469 47.9473 30.7109 48.7744 31.0391 49.458C31.3809 50.1416 31.8525 50.7021 32.4541 51.1396C33.0557 51.5635 33.7529 51.8779 34.5459 52.083C35.3525 52.2881 36.2139 52.3906 37.1299 52.3906C38.333 52.3906 39.3379 52.2197 40.1445 51.8779C40.9648 51.5361 41.5801 51.0576 41.9902 50.4424C42.4004 49.8271 42.6055 49.1162 42.6055 48.3096ZM56.7969 38.0352V56H51.8545V33.8105H56.5713L56.7969 38.0352ZM63.585 33.667L63.5439 38.2607C63.2432 38.2061 62.915 38.165 62.5596 38.1377C62.2178 38.1104 61.876 38.0967 61.5342 38.0967C60.6865 38.0967 59.9414 38.2197 59.2988 38.4658C58.6562 38.6982 58.1162 39.04 57.6787 39.4912C57.2549 39.9287 56.9268 40.4619 56.6943 41.0908C56.4619 41.7197 56.3252 42.4238 56.2842 43.2031L55.1562 43.2852C55.1562 41.8906 55.293 40.5986 55.5664 39.4092C55.8398 38.2197 56.25 37.1738 56.7969 36.2715C57.3574 35.3691 58.0547 34.665 58.8887 34.1592C59.7363 33.6533 60.7139 33.4004 61.8213 33.4004C62.1221 33.4004 62.4434 33.4277 62.7852 33.4824C63.1406 33.5371 63.4072 33.5986 63.585 33.667Z" fill="#C4292E"/>
</svg>
