<svg width="88" height="88" viewBox="0 0 88 88" fill="none" xmlns="http://www.w3.org/2000/svg">
<rect width="88" height="88" rx="6" fill="#F1E8FB"/>
<path d="M36.5762 26.1406V56H31.4697V26.1406H36.5762ZM45.9482 26.1406V30.2422H22.1797V26.1406H45.9482ZM59.1553 51.5498V40.9678C59.1553 40.1748 59.0117 39.4912 58.7246 38.917C58.4375 38.3428 58 37.8984 57.4121 37.584C56.8379 37.2695 56.1133 37.1123 55.2383 37.1123C54.4316 37.1123 53.7344 37.249 53.1465 37.5225C52.5586 37.7959 52.1006 38.165 51.7725 38.6299C51.4443 39.0947 51.2803 39.6211 51.2803 40.209H46.3584C46.3584 39.334 46.5703 38.4863 46.9941 37.666C47.418 36.8457 48.0332 36.1143 48.8398 35.4717C49.6465 34.8291 50.6104 34.3232 51.7314 33.9541C52.8525 33.585 54.1104 33.4004 55.5049 33.4004C57.1729 33.4004 58.6494 33.6807 59.9346 34.2412C61.2334 34.8018 62.252 35.6494 62.9902 36.7842C63.7422 37.9053 64.1182 39.3135 64.1182 41.0088V50.873C64.1182 51.8848 64.1865 52.7939 64.3232 53.6006C64.4736 54.3936 64.6855 55.084 64.959 55.6719V56H59.8936C59.6611 55.4668 59.4766 54.79 59.3398 53.9697C59.2168 53.1357 59.1553 52.3291 59.1553 51.5498ZM59.873 42.5059L59.9141 45.5615H56.3662C55.4502 45.5615 54.6436 45.6504 53.9463 45.8281C53.249 45.9922 52.668 46.2383 52.2031 46.5664C51.7383 46.8945 51.3896 47.291 51.1572 47.7559C50.9248 48.2207 50.8086 48.7471 50.8086 49.335C50.8086 49.9229 50.9453 50.4629 51.2188 50.9551C51.4922 51.4336 51.8887 51.8096 52.4082 52.083C52.9414 52.3564 53.584 52.4932 54.3359 52.4932C55.3477 52.4932 56.2295 52.2881 56.9814 51.8779C57.7471 51.4541 58.3486 50.9414 58.7861 50.3398C59.2236 49.7246 59.4561 49.1436 59.4834 48.5967L61.083 50.791C60.9189 51.3516 60.6387 51.9531 60.2422 52.5957C59.8457 53.2383 59.3262 53.8535 58.6836 54.4414C58.0547 55.0156 57.2959 55.4873 56.4072 55.8564C55.5322 56.2256 54.5205 56.4102 53.3721 56.4102C51.9229 56.4102 50.6309 56.123 49.4961 55.5488C48.3613 54.9609 47.4727 54.1748 46.8301 53.1904C46.1875 52.1924 45.8662 51.0645 45.8662 49.8066C45.8662 48.6309 46.085 47.5918 46.5225 46.6895C46.9736 45.7734 47.6299 45.0078 48.4912 44.3926C49.3662 43.7773 50.4326 43.3125 51.6904 42.998C52.9482 42.6699 54.3838 42.5059 55.9971 42.5059H59.873Z" fill="#5A3EE3"/>
</svg>
