<svg width="88" height="88" viewBox="0 0 88 88" fill="none" xmlns="http://www.w3.org/2000/svg">
<rect width="88" height="88" rx="6" fill="#F1E8FB"/>
<path d="M33.0898 26.1406V56H27.9834V26.1406H33.0898ZM42.4619 26.1406V30.2422H18.6934V26.1406H42.4619ZM63.4619 46.2793H68.5889C68.4248 48.2344 67.8779 49.9775 66.9482 51.5088C66.0186 53.0264 64.7129 54.2227 63.0312 55.0977C61.3496 55.9727 59.3057 56.4102 56.8994 56.4102C55.0537 56.4102 53.3926 56.082 51.916 55.4258C50.4395 54.7559 49.1748 53.8125 48.1221 52.5957C47.0693 51.3652 46.2627 49.8818 45.7021 48.1455C45.1553 46.4092 44.8818 44.4678 44.8818 42.3213V39.8398C44.8818 37.6934 45.1621 35.752 45.7227 34.0156C46.2969 32.2793 47.1172 30.7959 48.1836 29.5654C49.25 28.3213 50.5283 27.3711 52.0186 26.7148C53.5225 26.0586 55.2109 25.7305 57.084 25.7305C59.4629 25.7305 61.4727 26.168 63.1133 27.043C64.7539 27.918 66.0254 29.1279 66.9277 30.6729C67.8438 32.2178 68.4043 33.9883 68.6094 35.9844H63.4824C63.3457 34.6992 63.0449 33.5986 62.5801 32.6826C62.1289 31.7666 61.459 31.0693 60.5703 30.5908C59.6816 30.0986 58.5195 29.8525 57.084 29.8525C55.9082 29.8525 54.8828 30.0713 54.0078 30.5088C53.1328 30.9463 52.4014 31.5889 51.8135 32.4365C51.2256 33.2842 50.7812 34.3301 50.4805 35.5742C50.1934 36.8047 50.0498 38.2129 50.0498 39.7988V42.3213C50.0498 43.8252 50.1797 45.1924 50.4395 46.4229C50.7129 47.6396 51.123 48.6855 51.6699 49.5605C52.2305 50.4355 52.9414 51.1123 53.8027 51.5908C54.6641 52.0693 55.6963 52.3086 56.8994 52.3086C58.3623 52.3086 59.5449 52.0762 60.4473 51.6113C61.3633 51.1465 62.0537 50.4697 62.5186 49.5811C62.9971 48.6787 63.3115 47.5781 63.4619 46.2793Z" fill="#5A3EE3"/>
</svg>
