<svg width="88" height="88" viewBox="0 0 88 88" fill="none" xmlns="http://www.w3.org/2000/svg">
<rect width="88" height="88" rx="6" fill="#FDF7E2"/>
<path d="M36.248 26.1406V56H31.1416V26.1406H36.248ZM45.6201 26.1406V30.2422H21.8516V26.1406H45.6201ZM56.8789 56.4102C55.2383 56.4102 53.7549 56.1436 52.4287 55.6104C51.1162 55.0635 49.9951 54.3047 49.0654 53.334C48.1494 52.3633 47.4453 51.2217 46.9531 49.9092C46.4609 48.5967 46.2148 47.1816 46.2148 45.6641V44.8438C46.2148 43.1074 46.4678 41.5352 46.9736 40.127C47.4795 38.7188 48.1836 37.5156 49.0859 36.5176C49.9883 35.5059 51.0547 34.7334 52.2852 34.2002C53.5156 33.667 54.8486 33.4004 56.2842 33.4004C57.8701 33.4004 59.2578 33.667 60.4473 34.2002C61.6367 34.7334 62.6211 35.4854 63.4004 36.4561C64.1934 37.4131 64.7812 38.5547 65.1641 39.8809C65.5605 41.207 65.7588 42.6699 65.7588 44.2695V46.3818H48.6143V42.834H60.8779V42.4443C60.8506 41.5557 60.6729 40.7217 60.3447 39.9424C60.0303 39.1631 59.5449 38.5342 58.8887 38.0557C58.2324 37.5771 57.3574 37.3379 56.2637 37.3379C55.4434 37.3379 54.7119 37.5156 54.0693 37.8711C53.4404 38.2129 52.9141 38.7119 52.4902 39.3682C52.0664 40.0244 51.7383 40.8174 51.5059 41.7471C51.2871 42.6631 51.1777 43.6953 51.1777 44.8438V45.6641C51.1777 46.6348 51.3076 47.5371 51.5674 48.3711C51.8408 49.1914 52.2373 49.9092 52.7568 50.5244C53.2764 51.1396 53.9053 51.625 54.6436 51.9805C55.3818 52.3223 56.2227 52.4932 57.166 52.4932C58.3555 52.4932 59.415 52.2539 60.3447 51.7754C61.2744 51.2969 62.0811 50.6201 62.7646 49.7451L65.3691 52.2676C64.8906 52.9648 64.2686 53.6348 63.5029 54.2773C62.7373 54.9062 61.8008 55.4189 60.6934 55.8154C59.5996 56.2119 58.3281 56.4102 56.8789 56.4102Z" fill="#8C591D"/>
</svg>
