<svg width="88" height="88" viewBox="0 0 88 88" fill="none" xmlns="http://www.w3.org/2000/svg">
<rect width="88" height="88" rx="6" fill="#F1E8FB"/>
<path d="M41.1699 26.1406V56H36.0635V26.1406H41.1699ZM50.542 26.1406V30.2422H26.7734V26.1406H50.542ZM59.2783 33.8105V56H54.3154V33.8105H59.2783ZM53.9873 27.9863C53.9873 27.2344 54.2334 26.6123 54.7256 26.1201C55.2314 25.6143 55.9287 25.3613 56.8174 25.3613C57.6924 25.3613 58.3828 25.6143 58.8887 26.1201C59.3945 26.6123 59.6475 27.2344 59.6475 27.9863C59.6475 28.7246 59.3945 29.3398 58.8887 29.832C58.3828 30.3242 57.6924 30.5703 56.8174 30.5703C55.9287 30.5703 55.2314 30.3242 54.7256 29.832C54.2334 29.3398 53.9873 28.7246 53.9873 27.9863Z" fill="#5A3EE3"/>
</svg>
