<svg width="88" height="88" viewBox="0 0 88 88" fill="none" xmlns="http://www.w3.org/2000/svg">
<rect width="88" height="88" rx="6" fill="#E7E7EA"/>
<path d="M36.7607 26.1406V56H31.6543V26.1406H36.7607ZM46.1328 26.1406V30.2422H22.3643V26.1406H46.1328ZM59.9346 49.9912C59.9346 49.499 59.8115 49.0547 59.5654 48.6582C59.3193 48.248 58.8477 47.8789 58.1504 47.5508C57.4668 47.2227 56.4551 46.9219 55.1152 46.6484C53.9395 46.3887 52.8594 46.0811 51.875 45.7256C50.9043 45.3564 50.0703 44.9121 49.373 44.3926C48.6758 43.873 48.1357 43.2578 47.7529 42.5469C47.3701 41.8359 47.1787 41.0156 47.1787 40.0859C47.1787 39.1836 47.377 38.3291 47.7734 37.5225C48.1699 36.7158 48.7373 36.0049 49.4756 35.3896C50.2139 34.7744 51.1094 34.2891 52.1621 33.9336C53.2285 33.5781 54.418 33.4004 55.7305 33.4004C57.5898 33.4004 59.1826 33.7148 60.5088 34.3438C61.8486 34.959 62.874 35.7998 63.585 36.8662C64.2959 37.9189 64.6514 39.1084 64.6514 40.4346H59.709C59.709 39.8467 59.5586 39.2998 59.2578 38.7939C58.9707 38.2744 58.5332 37.8574 57.9453 37.543C57.3574 37.2148 56.6191 37.0508 55.7305 37.0508C54.8828 37.0508 54.1787 37.1875 53.6182 37.4609C53.0713 37.7207 52.6611 38.0625 52.3877 38.4863C52.1279 38.9102 51.998 39.375 51.998 39.8809C51.998 40.25 52.0664 40.585 52.2031 40.8857C52.3535 41.1729 52.5996 41.4395 52.9414 41.6855C53.2832 41.918 53.748 42.1367 54.3359 42.3418C54.9375 42.5469 55.6895 42.7451 56.5918 42.9365C58.2871 43.292 59.7432 43.75 60.96 44.3105C62.1904 44.8574 63.1338 45.5684 63.79 46.4434C64.4463 47.3047 64.7744 48.3984 64.7744 49.7246C64.7744 50.709 64.5625 51.6113 64.1387 52.4316C63.7285 53.2383 63.127 53.9424 62.334 54.5439C61.541 55.1318 60.5908 55.5898 59.4834 55.918C58.3896 56.2461 57.1592 56.4102 55.792 56.4102C53.7822 56.4102 52.0801 56.0547 50.6855 55.3438C49.291 54.6191 48.2314 53.6963 47.5068 52.5752C46.7959 51.4404 46.4404 50.2646 46.4404 49.0479H51.2188C51.2734 49.9639 51.5264 50.6953 51.9775 51.2422C52.4424 51.7754 53.0166 52.165 53.7002 52.4111C54.3975 52.6436 55.1152 52.7598 55.8535 52.7598C56.7422 52.7598 57.4873 52.6436 58.0889 52.4111C58.6904 52.165 59.1484 51.8369 59.4629 51.4268C59.7773 51.0029 59.9346 50.5244 59.9346 49.9912Z" fill="#3E374D"/>
</svg>
