<svg width="88" height="88" viewBox="0 0 88 88" fill="none" xmlns="http://www.w3.org/2000/svg">
<rect width="88" height="88" rx="6" fill="#FBE8EB"/>
<path d="M26.6914 26.1406L33.0283 37.0303L39.3652 26.1406H45.292L36.2686 40.9268L45.5176 56H39.5293L33.0283 44.9053L26.5273 56H20.5186L29.7881 40.9268L20.7441 26.1406H26.6914ZM58.0684 56.4102C56.4277 56.4102 54.9443 56.1436 53.6182 55.6104C52.3057 55.0635 51.1846 54.3047 50.2549 53.334C49.3389 52.3633 48.6348 51.2217 48.1426 49.9092C47.6504 48.5967 47.4043 47.1816 47.4043 45.6641V44.8438C47.4043 43.1074 47.6572 41.5352 48.1631 40.127C48.6689 38.7188 49.373 37.5156 50.2754 36.5176C51.1777 35.5059 52.2441 34.7334 53.4746 34.2002C54.7051 33.667 56.0381 33.4004 57.4736 33.4004C59.0596 33.4004 60.4473 33.667 61.6367 34.2002C62.8262 34.7334 63.8105 35.4854 64.5898 36.4561C65.3828 37.4131 65.9707 38.5547 66.3535 39.8809C66.75 41.207 66.9482 42.6699 66.9482 44.2695V46.3818H49.8037V42.834H62.0674V42.4443C62.04 41.5557 61.8623 40.7217 61.5342 39.9424C61.2197 39.1631 60.7344 38.5342 60.0781 38.0557C59.4219 37.5771 58.5469 37.3379 57.4531 37.3379C56.6328 37.3379 55.9014 37.5156 55.2588 37.8711C54.6299 38.2129 54.1035 38.7119 53.6797 39.3682C53.2559 40.0244 52.9277 40.8174 52.6953 41.7471C52.4766 42.6631 52.3672 43.6953 52.3672 44.8438V45.6641C52.3672 46.6348 52.4971 47.5371 52.7568 48.3711C53.0303 49.1914 53.4268 49.9092 53.9463 50.5244C54.4658 51.1396 55.0947 51.625 55.833 51.9805C56.5713 52.3223 57.4121 52.4932 58.3555 52.4932C59.5449 52.4932 60.6045 52.2539 61.5342 51.7754C62.4639 51.2969 63.2705 50.6201 63.9541 49.7451L66.5586 52.2676C66.0801 52.9648 65.458 53.6348 64.6924 54.2773C63.9268 54.9062 62.9902 55.4189 61.8828 55.8154C60.7891 56.2119 59.5176 56.4102 58.0684 56.4102Z" fill="#BC335F"/>
</svg>
