<svg width="88" height="88" viewBox="0 0 88 88" fill="none" xmlns="http://www.w3.org/2000/svg">
<rect width="88" height="88" rx="6" fill="#F1E8FB"/>
<path d="M43.5488 51.9189V56H22.8154V51.9189H43.5488ZM43.0771 29.3193L24.7227 56H21.2773V52.7393L39.6934 26.1406H43.0771V29.3193ZM41.1699 26.1406V30.2422H21.4004V26.1406H41.1699ZM52.4287 38.5479V56H47.4863V33.8105H52.1416L52.4287 38.5479ZM51.5469 44.085L49.9473 44.0645C49.9609 42.4922 50.1797 41.0498 50.6035 39.7373C51.041 38.4248 51.6426 37.2969 52.4082 36.3535C53.1875 35.4102 54.1172 34.6855 55.1973 34.1797C56.2773 33.6602 57.4805 33.4004 58.8066 33.4004C59.873 33.4004 60.8369 33.5508 61.6982 33.8516C62.5732 34.1387 63.3184 34.6104 63.9336 35.2666C64.5625 35.9229 65.041 36.7773 65.3691 37.8301C65.6973 38.8691 65.8613 40.1475 65.8613 41.665V56H60.8984V41.6445C60.8984 40.5781 60.7412 39.7373 60.4268 39.1221C60.126 38.4932 59.6816 38.0488 59.0938 37.7891C58.5195 37.5156 57.8018 37.3789 56.9404 37.3789C56.0928 37.3789 55.334 37.5566 54.6641 37.9121C53.9941 38.2676 53.4268 38.7529 52.9619 39.3682C52.5107 39.9834 52.1621 40.6943 51.916 41.501C51.6699 42.3076 51.5469 43.1689 51.5469 44.085Z" fill="#5A3EE3"/>
</svg>
