<svg width="88" height="88" viewBox="0 0 88 88" fill="none" xmlns="http://www.w3.org/2000/svg">
<rect width="88" height="88" rx="6" fill="#F1E8FB"/>
<path d="M47.8145 51.9189V56H27.0811V51.9189H47.8145ZM47.3428 29.3193L28.9883 56H25.543V52.7393L43.959 26.1406H47.3428V29.3193ZM45.4355 26.1406V30.2422H25.666V26.1406H45.4355ZM56.7559 38.0352V56H51.8135V33.8105H56.5303L56.7559 38.0352ZM63.5439 33.667L63.5029 38.2607C63.2021 38.2061 62.874 38.165 62.5186 38.1377C62.1768 38.1104 61.835 38.0967 61.4932 38.0967C60.6455 38.0967 59.9004 38.2197 59.2578 38.4658C58.6152 38.6982 58.0752 39.04 57.6377 39.4912C57.2139 39.9287 56.8857 40.4619 56.6533 41.0908C56.4209 41.7197 56.2842 42.4238 56.2432 43.2031L55.1152 43.2852C55.1152 41.8906 55.252 40.5986 55.5254 39.4092C55.7988 38.2197 56.209 37.1738 56.7559 36.2715C57.3164 35.3691 58.0137 34.665 58.8477 34.1592C59.6953 33.6533 60.6729 33.4004 61.7803 33.4004C62.0811 33.4004 62.4023 33.4277 62.7441 33.4824C63.0996 33.5371 63.3662 33.5986 63.5439 33.667Z" fill="#5A3EE3"/>
</svg>
