<svg xmlns="http://www.w3.org/2000/svg" height="24px" viewBox="0 -960 960 960" width="24px" fill="000"><path d="M381.26-413.8 418-537.49l-100.49-69.74h123.96L480-738.77l37.86 131.54h124.63l-99.44 69.74 36.08 123.69L480-490.33l-98.74 76.53ZM241.9-46.77V-353.1q-41.72-45-61.81-100.8Q160-509.71 160-566.67q0-134.17 92.95-227.08 92.96-92.91 227.18-92.91 134.23 0 227.05 92.91Q800-700.84 800-566.67q0 56.96-19.42 112.77-19.43 55.8-62.48 100.8v306.33L480-125.69 241.9-46.77Zm417.2-340.72q73.31-73.22 73.31-179.1 0-105.87-73.23-179.18t-179.1-73.31q-105.87 0-179.18 73.23t-73.31 179.11q0 105.87 73.23 179.18 73.23 73.3 179.1 73.3 105.87 0 179.18-73.23ZM309.49-145.36 480-192.72l170.51 47.36v-152.82q-38.46 26.77-82.29 39.14-43.84 12.37-88.22 12.37-44.38 0-88.22-12.37-43.83-12.37-82.29-39.14v152.82ZM480-221.98Z"/></svg>