<svg width="368" height="176" viewBox="0 0 368 176" fill="none" xmlns="http://www.w3.org/2000/svg">
<g clip-path="url(#clip0_578_40)">
<path d="M125.04 16.8182V75H119.727V16.8182H125.04ZM144.514 47.7273V75H139.457V31.3636H144.372V38.2102H144.827C145.849 35.9754 147.44 34.1856 149.599 32.8409C151.777 31.4773 154.467 30.7955 157.668 30.7955C160.603 30.7955 163.179 31.411 165.395 32.642C167.63 33.8542 169.363 35.6439 170.594 38.0114C171.844 40.3788 172.469 43.286 172.469 46.733V75H167.412V47.0455C167.412 43.4659 166.408 40.6345 164.401 38.5511C162.412 36.4678 159.741 35.4261 156.389 35.4261C154.098 35.4261 152.062 35.9186 150.281 36.9034C148.501 37.8883 147.09 39.3087 146.048 41.1648C145.026 43.0019 144.514 45.1894 144.514 47.7273ZM203.74 31.3636V35.767H182.291V31.3636H203.74ZM188.996 75V24.9716C188.996 22.6231 189.536 20.6439 190.615 19.0341C191.714 17.4242 193.143 16.2026 194.905 15.3693C196.666 14.536 198.532 14.1193 200.501 14.1193C201.827 14.1193 202.926 14.233 203.797 14.4602C204.687 14.6686 205.388 14.8769 205.899 15.0852L204.422 19.517C204.043 19.4034 203.579 19.2708 203.03 19.1193C202.481 18.9678 201.789 18.892 200.956 18.892C198.759 18.892 197.064 19.5076 195.871 20.7386C194.678 21.9697 194.081 23.7311 194.081 26.0227L194.053 75H188.996ZM213.889 75V31.3636H218.974V75H213.889ZM216.474 23.8636C215.433 23.8636 214.543 23.5133 213.804 22.8125C213.065 22.0928 212.696 21.2311 212.696 20.2273C212.696 19.2235 213.065 18.3712 213.804 17.6705C214.543 16.9508 215.433 16.5909 216.474 16.5909C217.516 16.5909 218.406 16.9508 219.145 17.6705C219.884 18.3712 220.253 19.2235 220.253 20.2273C220.253 21.2311 219.884 22.0928 219.145 22.8125C218.406 23.5133 217.516 23.8636 216.474 23.8636ZM237.405 47.7273V75H232.348V31.3636H237.263V38.2102H237.717C238.74 35.9754 240.331 34.1856 242.49 32.8409C244.668 31.4773 247.357 30.7955 250.558 30.7955C253.494 30.7955 256.07 31.411 258.286 32.642C260.52 33.8542 262.253 35.6439 263.484 38.0114C264.734 40.3788 265.359 43.286 265.359 46.733V75H260.303V47.0455C260.303 43.4659 259.299 40.6345 257.291 38.5511C255.303 36.4678 252.632 35.4261 249.28 35.4261C246.988 35.4261 244.952 35.9186 243.172 36.9034C241.392 37.8883 239.981 39.3087 238.939 41.1648C237.916 43.0019 237.405 45.1894 237.405 47.7273ZM278.733 75V31.3636H283.818V75H278.733ZM281.318 23.8636C280.277 23.8636 279.386 23.5133 278.648 22.8125C277.909 22.0928 277.54 21.2311 277.54 20.2273C277.54 19.2235 277.909 18.3712 278.648 17.6705C279.386 16.9508 280.277 16.5909 281.318 16.5909C282.36 16.5909 283.25 16.9508 283.989 17.6705C284.727 18.3712 285.097 19.2235 285.097 20.2273C285.097 21.2311 284.727 22.0928 283.989 22.8125C283.25 23.5133 282.36 23.8636 281.318 23.8636ZM314.379 31.3636V35.767H293.555V31.3636H314.379ZM300.061 20.9091H305.146V63.608C305.146 65.4261 305.459 66.8561 306.084 67.8977C306.709 68.9205 307.523 69.6496 308.527 70.0852C309.531 70.5019 310.601 70.7102 311.737 70.7102C312.4 70.7102 312.968 70.6723 313.442 70.5966C313.915 70.5019 314.332 70.4072 314.692 70.3125L315.771 74.8864C315.279 75.0758 314.673 75.2462 313.953 75.3977C313.233 75.5682 312.343 75.6534 311.283 75.6534C309.427 75.6534 307.637 75.2462 305.913 74.4318C304.209 73.6174 302.807 72.4053 301.709 70.7955C300.61 69.1856 300.061 67.1875 300.061 64.8011V20.9091ZM343.037 75.9091C338.965 75.9091 335.442 74.9621 332.469 73.0682C329.495 71.1553 327.194 68.5133 325.565 65.142C323.955 61.7519 323.151 57.8504 323.151 53.4375C323.151 49.0436 323.955 45.142 325.565 41.733C327.194 38.3049 329.438 35.625 332.298 33.6932C335.177 31.7424 338.501 30.767 342.27 30.767C344.637 30.767 346.92 31.2027 349.116 32.0739C351.313 32.9261 353.283 34.2424 355.026 36.0227C356.787 37.7841 358.179 40.0095 359.202 42.6989C360.224 45.3693 360.736 48.5322 360.736 52.1875V54.6875H326.645V50.2273H355.565C355.565 47.4242 354.997 44.9053 353.861 42.6705C352.743 40.4167 351.181 38.6364 349.173 37.3295C347.185 36.0227 344.884 35.3693 342.27 35.3693C339.505 35.3693 337.071 36.108 334.969 37.5852C332.866 39.0625 331.219 41.0133 330.026 43.4375C328.851 45.8617 328.255 48.5133 328.236 51.392V54.0625C328.236 57.5284 328.832 60.5587 330.026 63.1534C331.238 65.7292 332.952 67.7273 335.168 69.1477C337.384 70.5682 340.007 71.2784 343.037 71.2784C345.101 71.2784 346.91 70.9564 348.463 70.3125C350.035 69.6686 351.351 68.8068 352.412 67.7273C353.491 66.6288 354.306 65.4261 354.855 64.1193L359.656 65.6818C358.993 67.5189 357.904 69.214 356.389 70.767C354.893 72.3201 353.018 73.5701 350.764 74.517C348.529 75.4451 345.954 75.9091 343.037 75.9091Z" fill="black"/>
<circle cx="122.25" cy="17.25" r="6.25" fill="black"/>
<circle cx="122.25" cy="75.25" r="6.25" fill="black"/>
<path d="M57.7159 112.739H48.8523C48.5114 110.845 47.8769 109.178 46.9489 107.739C46.0208 106.299 44.8845 105.078 43.5398 104.074C42.1951 103.07 40.6894 102.312 39.0227 101.801C37.375 101.29 35.6231 101.034 33.767 101.034C30.4148 101.034 27.4129 101.877 24.7614 103.562C22.1288 105.248 20.0455 107.72 18.5114 110.977C16.9962 114.235 16.2386 118.212 16.2386 122.909C16.2386 127.644 16.9962 131.64 18.5114 134.898C20.0455 138.155 22.1383 140.617 24.7898 142.284C27.4413 143.951 30.4242 144.784 33.7386 144.784C35.5758 144.784 37.3182 144.538 38.9659 144.045C40.6326 143.534 42.1383 142.786 43.483 141.801C44.8277 140.816 45.964 139.614 46.892 138.193C47.839 136.754 48.4924 135.106 48.8523 133.25L57.7159 133.278C57.2424 136.138 56.3239 138.771 54.9602 141.176C53.6155 143.562 51.8826 145.627 49.7614 147.369C47.6591 149.093 45.2538 150.428 42.5455 151.375C39.8371 152.322 36.8826 152.795 33.6818 152.795C28.6439 152.795 24.1553 151.602 20.2159 149.216C16.2765 146.811 13.1705 143.373 10.8977 138.903C8.64394 134.434 7.51705 129.102 7.51705 122.909C7.51705 116.697 8.65341 111.366 10.9261 106.915C13.1989 102.445 16.3049 99.017 20.2443 96.6307C24.1837 94.2254 28.6629 93.0227 33.6818 93.0227C36.7689 93.0227 39.6477 93.4678 42.3182 94.358C45.0076 95.2292 47.4223 96.517 49.5625 98.2216C51.7027 99.9072 53.4735 101.972 54.875 104.415C56.2765 106.839 57.2235 109.614 57.7159 112.739ZM72.0327 126.091V152H63.5384V93.8182H71.919V115.466H72.4588C73.4815 113.117 75.044 111.252 77.1463 109.869C79.2486 108.487 81.9948 107.795 85.3849 107.795C88.3774 107.795 90.991 108.411 93.2259 109.642C95.4796 110.873 97.2221 112.71 98.4531 115.153C99.7031 117.578 100.328 120.608 100.328 124.244V152H91.8338V125.267C91.8338 122.066 91.0099 119.585 89.3622 117.824C87.7145 116.044 85.4228 115.153 82.4872 115.153C80.4796 115.153 78.6804 115.58 77.0895 116.432C75.5175 117.284 74.277 118.534 73.3679 120.182C72.4777 121.811 72.0327 123.78 72.0327 126.091ZM126.47 152.881C122.171 152.881 118.468 151.962 115.362 150.125C112.275 148.269 109.889 145.665 108.203 142.312C106.536 138.941 105.703 134.992 105.703 130.466C105.703 125.996 106.536 122.057 108.203 118.648C109.889 115.239 112.237 112.578 115.249 110.665C118.279 108.752 121.821 107.795 125.874 107.795C128.336 107.795 130.722 108.203 133.033 109.017C135.343 109.831 137.417 111.11 139.254 112.852C141.091 114.595 142.54 116.858 143.601 119.642C144.661 122.407 145.192 125.769 145.192 129.727V132.739H110.504V126.375H136.868C136.868 124.14 136.413 122.161 135.504 120.438C134.595 118.695 133.317 117.322 131.669 116.318C130.04 115.314 128.127 114.812 125.93 114.812C123.544 114.812 121.461 115.4 119.68 116.574C117.919 117.729 116.555 119.244 115.589 121.119C114.643 122.975 114.169 124.992 114.169 127.17V132.142C114.169 135.059 114.68 137.54 115.703 139.585C116.745 141.631 118.194 143.193 120.05 144.273C121.906 145.333 124.074 145.864 126.555 145.864C128.165 145.864 129.633 145.636 130.959 145.182C132.285 144.708 133.43 144.008 134.396 143.08C135.362 142.152 136.101 141.006 136.612 139.642L144.652 141.091C144.008 143.458 142.853 145.532 141.186 147.312C139.538 149.074 137.464 150.447 134.964 151.432C132.483 152.398 129.652 152.881 126.47 152.881ZM150.616 152V108.364H158.77V115.466H159.31C160.219 113.061 161.705 111.186 163.77 109.841C165.834 108.477 168.306 107.795 171.185 107.795C174.101 107.795 176.545 108.477 178.514 109.841C180.503 111.205 181.971 113.08 182.918 115.466H183.372C184.414 113.136 186.071 111.28 188.344 109.898C190.616 108.496 193.325 107.795 196.469 107.795C200.427 107.795 203.656 109.036 206.156 111.517C208.675 113.998 209.935 117.739 209.935 122.739V152H201.44V123.534C201.44 120.58 200.635 118.439 199.026 117.114C197.416 115.788 195.493 115.125 193.259 115.125C190.493 115.125 188.344 115.977 186.81 117.682C185.276 119.367 184.509 121.536 184.509 124.188V152H176.043V122.994C176.043 120.627 175.304 118.723 173.827 117.284C172.349 115.845 170.427 115.125 168.06 115.125C166.45 115.125 164.963 115.551 163.599 116.403C162.255 117.237 161.166 118.402 160.332 119.898C159.518 121.394 159.111 123.127 159.111 125.097V152H150.616ZM217.32 152V108.364H225.814V152H217.32ZM221.609 101.631C220.132 101.631 218.863 101.138 217.803 100.153C216.761 99.1496 216.24 97.9564 216.24 96.5739C216.24 95.1723 216.761 93.9792 217.803 92.9943C218.863 91.9905 220.132 91.4886 221.609 91.4886C223.087 91.4886 224.346 91.9905 225.388 92.9943C226.448 93.9792 226.979 95.1723 226.979 96.5739C226.979 97.9564 226.448 99.1496 225.388 100.153C224.346 101.138 223.087 101.631 221.609 101.631ZM265.94 119.017L258.241 120.381C257.92 119.396 257.408 118.458 256.707 117.568C256.026 116.678 255.098 115.949 253.923 115.381C252.749 114.812 251.281 114.528 249.52 114.528C247.115 114.528 245.107 115.068 243.497 116.148C241.887 117.208 241.082 118.581 241.082 120.267C241.082 121.725 241.622 122.9 242.702 123.79C243.781 124.68 245.524 125.409 247.929 125.977L254.861 127.568C258.876 128.496 261.868 129.926 263.838 131.858C265.808 133.79 266.793 136.299 266.793 139.386C266.793 142 266.035 144.33 264.52 146.375C263.024 148.402 260.931 149.992 258.241 151.148C255.571 152.303 252.474 152.881 248.952 152.881C244.065 152.881 240.079 151.839 236.991 149.756C233.904 147.653 232.01 144.67 231.31 140.807L239.52 139.557C240.031 141.697 241.082 143.316 242.673 144.415C244.264 145.494 246.338 146.034 248.895 146.034C251.679 146.034 253.904 145.456 255.571 144.301C257.238 143.127 258.071 141.697 258.071 140.011C258.071 138.648 257.56 137.502 256.537 136.574C255.533 135.646 253.99 134.945 251.906 134.472L244.52 132.852C240.448 131.924 237.437 130.447 235.486 128.42C233.554 126.394 232.588 123.828 232.588 120.722C232.588 118.146 233.308 115.892 234.747 113.96C236.187 112.028 238.175 110.523 240.713 109.443C243.251 108.345 246.158 107.795 249.435 107.795C254.151 107.795 257.863 108.818 260.571 110.864C263.279 112.89 265.069 115.608 265.94 119.017ZM292.501 108.364V115.182H268.666V108.364H292.501ZM275.058 97.9091H283.553V139.188C283.553 140.835 283.799 142.076 284.291 142.909C284.784 143.723 285.418 144.282 286.195 144.585C286.99 144.869 287.852 145.011 288.78 145.011C289.462 145.011 290.058 144.964 290.57 144.869C291.081 144.775 291.479 144.699 291.763 144.642L293.297 151.659C292.804 151.848 292.104 152.038 291.195 152.227C290.286 152.436 289.149 152.549 287.786 152.568C285.551 152.606 283.467 152.208 281.536 151.375C279.604 150.542 278.041 149.254 276.848 147.511C275.655 145.769 275.058 143.581 275.058 140.949V97.9091ZM297.898 152V108.364H306.108V115.295H306.562C307.358 112.947 308.759 111.1 310.767 109.756C312.794 108.392 315.085 107.71 317.642 107.71C318.172 107.71 318.797 107.729 319.517 107.767C320.256 107.805 320.833 107.852 321.25 107.909V116.034C320.909 115.939 320.303 115.835 319.432 115.722C318.561 115.589 317.689 115.523 316.818 115.523C314.811 115.523 313.021 115.949 311.449 116.801C309.896 117.634 308.665 118.799 307.756 120.295C306.847 121.773 306.392 123.458 306.392 125.352V152H297.898ZM331.298 168.364C330.029 168.364 328.874 168.259 327.832 168.051C326.791 167.862 326.014 167.653 325.503 167.426L327.548 160.466C329.101 160.883 330.484 161.063 331.696 161.006C332.908 160.949 333.978 160.494 334.906 159.642C335.853 158.79 336.687 157.398 337.406 155.466L338.457 152.568L322.491 108.364H331.582L342.634 142.227H343.088L354.139 108.364H363.259L345.276 157.824C344.442 160.097 343.382 162.019 342.094 163.591C340.806 165.182 339.272 166.375 337.491 167.17C335.711 167.966 333.647 168.364 331.298 168.364Z" fill="black"/>
<circle cx="96.25" cy="152.25" r="6.25" fill="black"/>
<circle cx="53.25" cy="112.25" r="6.25" fill="black"/>
</g>
<defs>
<clipPath id="clip0_578_40">
<rect width="368" height="176" fill="white"/>
</clipPath>
</defs>
</svg>
